<svg fill="none" height="160" viewBox="0 0 432 160" width="432" xmlns="http://www.w3.org/2000/svg" xmlns:xlink="http://www.w3.org/1999/xlink"><clipPath id="a"><path d="m0 0h432v160h-432z"/></clipPath><g clip-path="url(#a)"><path d="m0 0h432v160h-432z" fill="#f4f4f4"/><path d="m0 0h432v160h-432z" fill="#fff"/><g fill="#323a45"><path d="m192.376 69.1926 22.571-22.5711c.281-.2757.658-.4302 1.052-.4302.393 0 .771.1545 1.052.4302l32.518 32.7089c.275.2808.43.6586.43 1.0521s-.155.7713-.43 1.052l-.192.1913c-1.297 1.2868-3.05 2.0088-4.877 2.0088-1.828 0-3.581-.722-4.878-2.0088l-22.954-22.9537c-.28-.2757-.658-.4301-1.052-.4301-.393 0-.771.1544-1.052.4301l-12.815 12.8158c-1.298 1.2868-3.051 2.0088-4.878 2.0088s-3.581-.722-4.878-2.0088c-.132-.3842-.166-.7953-.099-1.1961.066-.4008.232-.7786.482-1.0992z"/><path d="m239.813 90.8074-22.571 22.5716c-.281.275-.658.43-1.052.43-.393 0-.771-.155-1.052-.43l-32.709-32.7095c-.276-.2808-.43-.6585-.43-1.052s.154-.7713.43-1.0521c1.297-1.2867 3.051-2.0088 4.878-2.0088s3.58.7221 4.877 2.0088l22.763 22.7626c.281.276.658.43 1.052.43.393 0 .771-.154 1.052-.43l12.816-12.816c1.297-1.2867 3.05-2.0088 4.877-2.0088 1.828 0 3.581.7221 4.878 2.0088.169.1342.309.3016.411.4919.102.1902.163.3993.181.6144s-.008.4316-.077.6361-.179.3927-.324.553z"/><path d="m218.391 79.3304-5.548-5.5472c-.739-.8104-1.149-1.8679-1.149-2.9648 0-1.097.41-2.1544 1.149-2.9649l.192-.1913c.379-.4073.838-.7322 1.348-.9544s1.06-.3368 1.617-.3368c.556 0 1.106.1146 1.616.3368.511.2222.969.5471 1.348.9544l11.477 11.4769c.276.2807.43.6585.43 1.052s-.154.7713-.43 1.0521l-11.094 11.0942c-.379.4074-.838.7323-1.348.9545-.51.2221-1.06.3368-1.617.3368-.556 0-1.107-.1147-1.617-.3368-.51-.2222-.969-.5471-1.348-.9545-.407-.3789-.732-.8378-.954-1.3479s-.337-1.0605-.337-1.6169.115-1.1068.337-1.6169.547-.969.954-1.348l5.165-5.1645c.2-.2896.291-.6411.256-.9916-.035-.3506-.193-.6771-.447-.9212z"/><path d="m211.505 78.7567-1.913-1.9128c-.379-.4074-.837-.7323-1.347-.9545-.511-.2221-1.061-.3368-1.617-.3368-.557 0-1.107.1147-1.617.3368-.51.2222-.969.5471-1.348.9545-.74.8104-1.149 1.8678-1.149 2.9648s.409 2.1544 1.149 2.9649c.379.4073.838.7322 1.348.9544s1.06.3368 1.617.3368c.556 0 1.106-.1146 1.617-.3368.51-.2222.968-.5471 1.347-.9544l1.913-1.9128c.276-.2808.43-.6586.43-1.0521s-.154-.7713-.43-1.052z"/></g></g></svg>