<svg fill="none" height="160" viewBox="0 0 432 160" width="432" xmlns="http://www.w3.org/2000/svg"><path d="m0 0h432v160h-432z" fill="#f8f8f7"/><path clip-rule="evenodd" d="m210.836 52.3167c-1.569 2.7429-4.292 7.4917-7.438 12.9771v.0009c-7.841 13.6704-18.304 31.9146-20.048 35.0843-1.073 2.596.422 5.676 3.109 6.431.791.211 1.612.197 2.384.183.318-.006.629-.011.925-.001 7.052.007 16.287.003 25.627-.001h.011c10.227-.004 20.578-.008 28.324.001.429.008 1.179 0 1.811-.18 1.95-.547 3.399-2.416 3.457-4.454.021-.675-.104-1.35-.346-1.975-.222-.484-.404-.798-.584-1.1067-.069-.1185-.137-.2361-.207-.3622l-27.731-48.4127c-.34-.5669-.785-1.0838-1.324-1.4865-2.252-1.667-5.559-.9598-6.934 1.4865-.228.3998-.551.9658-.956 1.6743l-.015-.0067c-.022.0492-.043.0984-.065.1477zm4.567.1915.004-.0081.005-.0081c.073-.1305.218-.2555.449-.3049.226-.0484.404.0034.521.0867.065.0502.158.1443.25.2921l17.03 29.7317-20.924-25.1288c1.238-2.1601 2.171-3.7914 2.665-4.6606zm-6.373 11.1287c.738-1.2868 1.438-2.5076 2.089-3.6419l21.098 23.7625c-.67-.3777-1.355-.7276-2.055-1.046l-21.649-16.4979c.142-.8619.316-1.7215.517-2.5767zm-6.01 10.4806c-6.812 11.8811-14.155 24.7004-15.949 27.9255-.022.127-.009.29.079.472.11.227.265.337.385.378.083.018.263.042.644.045.179.001.352-.002.577-.006l.156-.003c.255-.004.581-.008.923.002.829 0 1.687.001 2.573.002zm-7.115 28.8165c-.068 0-.136 0-.203 0l10.296-30.9525c.016.833.07 1.6647.165 2.4932l-3.4 26.5083c-2.21.84-4.524 1.467-6.858 1.951zm11.654-.001c2.571-.001 5.197-.002 7.832-.003h.007c10.24-.005 20.609-.009 28.337.001h.036.035c.15.003.308.002.455-.009.072-.005.126-.012.162-.017.01-.002.018-.003.023-.004.07-.02.201-.088.324-.247.124-.16.165-.316.168-.411v-.008-.009c.003-.072-.008-.173-.044-.29-.069-.142-.131-.258-.195-.371-.043-.077-.085-.149-.142-.247l-.02-.034c-.06-.103-.134-.231-.213-.373l-2.251-3.9295zm31.554-11.1183 1.332 2.3242-32.332 6.6381c.622-.349 1.231-.721 1.824-1.1162l25.942-10.8467c1.127.9352 2.204 1.9439 3.234 3.0006zm-30.945-18.5217c-.019-.2292-.034-.4585-.047-.6881l.25-2.9265 16.172 11.2729zm24.896 13.5978-1.905-1.3282c-.416-.2285-.837-.4456-1.264-.6504l-15.088 10.5388zm-24.287-10.4146.158 1.099c.096.3385.201.6761.315 1.0126.112.3161.232.6287.36.9377l9.609 1.1296zm18.065 7.2297c-.716-.2242-1.448-.4128-2.197-.5626-.317-.0578-.634-.1083-.952-.1509l-5.954 7.9861 9.197-7.2347zm-21.029 15.9383 1.679-19.6646c.022.0566.044.1132.066.1697l1.516 17.5512c-1.036.7274-2.128 1.3716-3.261 1.9437zm4.157-14.8755 1.573 10.9312c.506-.4731.993-.9733 1.457-1.5024.253-.2965.496-.5995.73-.9094l-3.4-7.8958zm1.91-.9876 3.202 5.5445h.002c.245.4228.853.4228 1.098 0l3.202-5.5445c.242-.4227-.063-.9511-.55-.9511h-6.404c-.489 0-.795.5284-.55.9511z" fill="#000" fill-rule="evenodd"/></svg>