<svg fill="none" height="160" viewBox="0 0 432 160" width="432" xmlns="http://www.w3.org/2000/svg" xmlns:xlink="http://www.w3.org/1999/xlink"><clipPath id="a"><path d="m0 0h432v160h-432z"/></clipPath><g clip-path="url(#a)"><path d="m0 0h432v160h-432z" fill="#0d0e12"/><g fill="#fff"><path d="m202.089 105.813c-7.299 0-13.227-5.9439-13.227-13.262v-9.9743c0-5.8089 4.716-10.523 10.497-10.523h25.908c5.794 0 10.496 4.7274 10.496 10.523v9.9743c0 7.3181-5.928 13.262-13.227 13.262zm-2.73-29.3529c-1.62.0042-3.171.6505-4.315 1.7971-1.144 1.1467-1.786 2.7001-1.786 4.3195v9.9743c0 4.8752 3.956 8.841 8.818 8.841h20.447c4.862 0 8.818-3.9658 8.818-8.841v-9.9743c0-3.366-2.731-6.1166-6.101-6.1166h-1.985l-.559.935c-.348.5767-.838 1.0541-1.423 1.3861-.586.3321-1.247.5075-1.921.5094h-14.132c-.674-.0019-1.335-.1773-1.921-.5094-.585-.332-1.075-.8094-1.423-1.3861l-.559-.935h-1.985z"/><path d="m203.168 93.5929c2.096 0 3.796-1.705 3.796-3.8056.001-1.008-.398-1.9752-1.11-2.6888-.712-.7137-1.678-1.1154-2.686-1.1168-1.008.0014-1.974.4031-2.686 1.1168-.712.7136-1.111 1.6808-1.11 2.6888-.001 1.008.398 1.9752 1.11 2.6889.712.7136 1.678 1.1153 2.686 1.1167zm18.302 0c2.097 0 3.796-1.705 3.796-3.8056.001-1.008-.398-1.9752-1.11-2.6888-.712-.7137-1.678-1.1154-2.686-1.1168-1.008.0014-1.974.4031-2.686 1.1168-.712.7136-1.111 1.6808-1.11 2.6888-.001 1.008.398 1.9752 1.11 2.6889.712.7136 1.678 1.1153 2.686 1.1167zm1.066 12.2201v5.927l8.831-9.32-2.651-.6m11.163-40.0492c1.478-.9884 1.718-3.0983.439-4.3264-6.553-6.3298-15.625-10.0036-25.428-9.3748-15.665 1.0016-28.133 12.6196-30.89 27.4157l.786-.0532c2.797-12.8461 13.76-22.8217 27.493-23.7035 9.391-.6007 18.049 3.1916 23.99 9.6146.945 1.015 2.464 1.2015 3.623.4409zm9.43 5.7024c-.767-.1583-1.48-.5137-2.069-1.0313-.589-.5175-1.032-1.1794-1.287-1.9205l-.88-2.6041-.546 2.6974c-.156.7682-.51 1.4825-1.026 2.0727s-1.177 1.0359-1.917 1.2933l-2.598.8805 2.691.5474c.767.1583 1.481.5137 2.069 1.0313.589.5176 1.032 1.1794 1.287 1.9205l.88 2.6041.546-2.6973c.156-.7683.51-1.4826 1.026-2.0728.516-.5901 1.177-1.0358 1.918-1.2933l2.597-.8804zm-3.197 16.4652.88-4.6608-1.799-.4129-1.212 4.6195zm-2.597 1.2947-6.261 23.8249 3.903.867 4.609-24.2097z"/></g></g></svg>