<svg fill="none" height="160" viewBox="0 0 432 160" width="432" xmlns="http://www.w3.org/2000/svg"><path d="m0 0h432v160h-432z" fill="#fff"/><path d="m217.656 63.2406c6.865 0 11.402 3.4329 13.364 10.1763l14.59-4.9042c-1.472-5.64-4.537-10.4214-9.441-14.3449-4.904-3.9234-11.28-6.0076-18.881-6.0076-8.828 0-16.307 3.0651-22.314 9.0728-6.008 6.1304-8.951 13.7316-8.951 22.9269 0 9.1957 2.943 16.797 9.073 22.9271 6.13 6.131 13.609 9.073 22.682 9.073 7.479 0 13.732-1.961 18.636-6.007 4.904-3.924 8.092-8.7054 9.563-14.3455l-14.345-4.7814c-.858 2.8198-2.452 5.2721-4.658 7.2337-2.33 1.9616-5.395 2.9426-9.196 2.9426-4.414 0-8.092-1.4713-11.034-4.5366-2.943-3.065-4.414-7.2337-4.414-12.5059 0-5.1493 1.471-9.3176 4.414-12.383 2.942-2.9426 6.498-4.5363 10.912-4.5363z" fill="#171717"/></svg>