<svg fill="none" height="160" viewBox="0 0 432 160" width="432" xmlns="http://www.w3.org/2000/svg"><path d="m0 0h432v160h-432z" fill="#fff"/><path clip-rule="evenodd" d="m226.225 88.6203c0 2.8297 1.86 4.665 4.727 4.665h10.186c1.155-2.8404 1.931-5.9627 2.291-9.3315h-12.477c-2.867 0-4.727 1.8353-4.727 4.6665zm-9.395 0c0-2.8312-1.86-4.6665-4.726-4.6665h-23.532v9.3315h23.532c2.866 0 4.726-1.8353 4.726-4.665zm-5.44-41.1203h-16.999c-3.529 0-5.819 2.2687-5.819 5.7675v3.5888h46.894c-5.64-5.9551-13.935-9.3563-24.076-9.3563zm-22.818 58.234c0 3.497 2.29 5.766 5.819 5.766h16.999c10.141 0 18.436-3.401 24.076-9.355h-46.894zm28.262-39.9967c-2.868 0-4.728 1.8361-4.728 4.6662 0 2.8312 1.86 4.6662 4.728 4.6662h26.595c-.36-3.3686-1.136-6.4911-2.291-9.3324zm-14.123 4.6662c0-2.8301-1.86-4.6662-4.726-4.6662h-9.413v9.3324h9.413c2.866 0 4.726-1.835 4.726-4.6662z" fill="#5059fe" fill-rule="evenodd"/></svg>