<svg fill="none" height="160" viewBox="0 0 432 160" width="432" xmlns="http://www.w3.org/2000/svg"><path d="m0 0h432v160h-432z" fill="#3a30ba"/><g fill="#fff"><path d="m213.61 114c-14.43 0-26.159-11.555-26.159-25.7348 0-14.2052 11.729-25.7593 26.159-25.7593h1.926c1.501 0 2.726 1.2254 2.726 2.7259v3.0261c0 1.5006-1.225 2.726-2.726 2.726h-1.926c-9.753 0-17.706 7.7528-17.706 17.3063s7.953 17.3058 17.706 17.3058c8.954 0 16.381-6.5269 17.557-14.9549.175-1.3255 1.3-2.3259 2.651-2.3259h3.101c1.625 0 2.901 1.4255 2.701 3.0261-1.526 12.7297-12.605 22.6587-26.01 22.6587z"/><path d="m237.369 81.1377h-3.451c-1.501 0-2.701-1.2254-2.701-2.7009v-29.7358c0-1.5006 1.225-2.701 2.701-2.701h3.451c1.501 0 2.701 1.2254 2.701 2.701v29.7108c0 1.5005-1.2 2.7259-2.701 2.7259z"/></g></svg>