<svg fill="none" height="160" viewBox="0 0 432 160" width="432" xmlns="http://www.w3.org/2000/svg" xmlns:xlink="http://www.w3.org/1999/xlink"><clipPath id="a"><path d="m158.5 66.4888h114v27.0222h-114z"/></clipPath><path d="m0 0h432v160h-432z" fill="#131313"/><g clip-path="url(#a)"><path d="m166.179 88.0981c-1.537 0-2.888-.349-4.052-1.0471-1.165-.7093-2.061-1.6881-2.687-2.9361-.627-1.2487-.94-2.6598-.94-4.2332 0-1.6518.333-3.0972.998-4.3363.676-1.2385 1.591-2.1874 2.746-2.8466 1.165-.6688 2.467-1.0032 3.906-1.0032 1.418 0 2.671.3246 3.758.9737 1.097.6389 1.944 1.5436 2.541 2.714.606 1.1704.91 2.5322.91 4.0854 0 .1774-.01.3643-.03.5607-.009.1869-.019.4031-.029.6486h-12.143c.079 1.0921.344 2.0314.793 2.8179.46.7769 1.062 1.3618 1.807 1.7547.743.3834 1.584.5754 2.525.5759.685 0 1.326-.1182 1.923-.3546.571-.2193 1.083-.5676 1.497-1.0176.408-.4343.705-.9603.867-1.5335h2.687c-.209.9899-.652 1.9154-1.292 2.6989-.636.7768-1.454 1.3865-2.452 1.829-.988.4324-2.099.6494-3.333.6494zm4.463-9.5887c-.039-.9148-.249-1.726-.631-2.4337-.349-.6937-.895-1.2687-1.57-1.6525-.667-.3919-1.446-.5878-2.336-.5878-.803 0-1.557.1672-2.261.5016-.696.3344-1.278.8555-1.748 1.5631-.469.6981-.778 1.5684-.925 2.611zm2.879 9.2492 5.8-7.8178-5.815-7.8762h3.098l4.009 5.5751c.078.1182.156.2313.234.3394.088.1081.166.2114.235.3099h.03c.068-.0985.142-.2018.219-.3099.079-.1081.153-.2212.221-.3394l4.038-5.5751h3.098l-5.844 7.8762 5.858 7.8178h-3.068l-4.081-5.5758c-.144-.2127-.291-.4239-.44-.6334h-.03c-.161.204-.313.4154-.455.6334l-4.037 5.5758zm20.438.3099c-.988 0-1.859-.1821-2.613-.5463-.721-.3433-1.324-.8925-1.732-1.5783-.411-.698-.617-1.534-.617-2.508 0-1.002.23-1.8378.69-2.5071.47-.6778 1.159-1.2039 2.07-1.5783.91-.3828 2.06-.6384 3.45-.7668l4.038-.3546v-1.2084c0-.6097-.147-1.1409-.441-1.5935-.293-.4616-.714-.8107-1.262-1.0471-.549-.2364-1.19-.3547-1.924-.3547-.714 0-1.341.123-1.879.3691-.505.2265-.937.589-1.248 1.0471-.304.4526-.475.9837-.514 1.5934h-2.643c.079-1.0915.387-2.0356.926-2.8322.537-.8057 1.29-1.4443 2.172-1.8435.921-.4329 1.983-.6493 3.186-.6493 1.303 0 2.423.2164 3.363.6493.949.433 1.669 1.0522 2.158 1.8578.499.7972.749 1.7317.749 2.8036v10.7379h-2.644v-2.6262h-.028c-.392.8659-1.048 1.5741-1.968 2.1246-.91.5405-2.007.8115-3.289.8115zm.705-2.1989c.94 0 1.753-.2164 2.437-.6494.685-.4219 1.235-1.0307 1.586-1.7547.372-.7471.557-1.5732.557-2.4785v-.7667l-3.919.3546c-1.214.098-2.139.373-2.775.8251-.636.4526-.955 1.0918-.955 1.9177 0 .5213.128.9736.382 1.357s.612.6784 1.073.885c.459.2066.997.3099 1.614.3099zm16.856 2.2581c-1.39 0-2.687-.3052-3.891-.9154-1.194-.6091-2.153-1.5234-2.877-2.7428-.715-1.2295-1.073-2.7242-1.073-4.484 0-1.7114.343-3.1914 1.028-4.4401.695-1.2492 1.63-2.2031 2.805-2.8618 1.184-.6587 2.52-.988 4.008-.988 1.371 0 2.575.2804 3.612.8411 1.047.5601 1.869 1.3122 2.466 2.2563.61.9416.992 2.0122 1.117 3.127h-2.673c-.117-.747-.366-1.4108-.748-1.9912-.384-.5926-.916-1.0756-1.542-1.4018-.636-.3535-1.375-.5303-2.218-.5303-.998 0-1.888.2458-2.671.7372-.773.4819-1.38 1.1752-1.821 2.0799-.431.8951-.646 1.9422-.646 3.1413 0 1.2295.225 2.2868.676 3.1718.46.8849 1.076 1.5537 1.849 2.0064.784.452 1.65.678 2.599.678.803 0 1.522-.1621 2.159-.4864.624-.3062 1.164-.7622 1.57-1.3274.4-.5583.671-1.1982.794-1.8738h2.686c-.144 1.0735-.536 2.0988-1.145 2.9944-.607.9046-1.434 1.6323-2.482 2.1828-1.037.5512-2.231.8268-3.582.8268zm14.228-.3691c-.871 0-1.57-.1278-2.099-.3833-.529-.2658-.906-.6345-1.132-1.1063-.215-.4819-.322-1.0623-.322-1.7412v-10.1181h-2.936v-2.3451h2.936v-4.0119h2.716v4.0111h3.891v2.3459h-3.891v10.1037c0 .3046.064.5258.191.6638.137.1373.362.206.676.206h2.995v2.3754zm7.401 0h-2.717v-21.2698h2.717zm5.286 5.738 2.217-5.6197-6.284-15.8275h2.789l3.73 9.8826c.097.2657.19.5311.278.7963.099.2657.192.5216.28.7676.166.4717.313.9193.441 1.3426h.073c.362-1.0825.695-2.0514.998-2.9065l3.656-9.8826h2.804l-8.368 21.4616zm10.132-5.738v-3.4369h3.288v3.4369zm10.733.3099c-.988 0-1.86-.1821-2.614-.5463-.721-.3433-1.323-.8925-1.732-1.5783-.411-.698-.617-1.534-.617-2.508 0-1.002.23-1.8378.691-2.5071.469-.6778 1.159-1.2039 2.069-1.5783.911-.3828 2.061-.6384 3.451-.7668l4.038-.3546v-1.2084c0-.6097-.147-1.1409-.441-1.5935-.294-.4616-.715-.8107-1.262-1.0471-.548-.2364-1.189-.3547-1.924-.3547-.714 0-1.341.123-1.88.3691-.505.2265-.937.589-1.247 1.0471-.304.4526-.475.9837-.514 1.5934h-2.643c.078-1.0915.387-2.0356.925-2.8322.538-.8056 1.263-1.4201 2.173-1.8435.92-.4329 1.982-.6493 3.186-.6493 1.302 0 2.423.2164 3.363.6493.949.433 1.668 1.0522 2.158 1.8578.499.7972.748 1.7317.748 2.8036v10.7379h-2.642v-2.6262h-.03c-.391.8659-1.047 1.5741-1.967 2.1246-.911.5405-2.007.8115-3.289.8115zm.705-2.1989c.94 0 1.752-.2164 2.437-.6494.685-.4219 1.235-1.0307 1.586-1.7547.371-.7471.557-1.5732.558-2.4785v-.7667l-3.921.3546c-1.213.098-2.138.373-2.775.8251-.636.4526-.954 1.0918-.954 1.9177 0 .5213.127.9736.382 1.357.254.3834.611.6784 1.071.885.461.2066.999.3099 1.616.3099zm9.603-16.2834v-3.0974h2.892v3.0974zm.088 18.1724v-15.7092h2.716v15.7092z" fill="#fff"/></g></svg>