<svg fill="none" height="160" viewBox="0 0 432 160" width="432" xmlns="http://www.w3.org/2000/svg" xmlns:xlink="http://www.w3.org/1999/xlink"><clipPath id="a"><path d="m0 0h432v160h-432z"/></clipPath><g clip-path="url(#a)"><path d="m0 0h432v160h-432z" fill="#da9cff"/><path d="m208.474 73.423.712-.2371.237-.7116 6.577-19.7309 6.577 19.7309.237.7116.712.2371 19.731 6.577-19.731 6.577-.712.2371-.237.7116-6.577 19.7313-6.577-19.7313-.237-.7116-.712-.2371-19.731-6.577z" stroke="#080013" stroke-width="3"/><g fill="#080013"><path d="m197.5 58-2-7.5-2 7.5-7 2 7 2 2 7.5 2-7.5 7.5-2z"/><path d="m238 98.5-2-7.5-2 7.5-7 2 7 2 2 7.5 2-7.5 7.5-2z"/></g></g></svg>