<svg fill="none" height="160" viewBox="0 0 432 160" width="432" xmlns="http://www.w3.org/2000/svg" xmlns:xlink="http://www.w3.org/1999/xlink"><filter id="a" color-interpolation-filters="sRGB" filterUnits="userSpaceOnUse" height="97.3355" width="96.1675" x="204.4" y="33.9824"><feFlood flood-opacity="0" result="BackgroundImageFix"/><feColorMatrix in="SourceAlpha" result="hardAlpha" type="matrix" values="0 0 0 0 0 0 0 0 0 0 0 0 0 0 0 0 0 0 127 0"/><feOffset dy="3.65009"/><feGaussianBlur stdDeviation="7.30017"/><feComposite in2="hardAlpha" operator="out"/><feColorMatrix type="matrix" values="0 0 0 0 0.146685 0 0 0 0 0.0726086 0 0 0 0 0.241055 0 0 0 0.2 0"/><feBlend in2="BackgroundImageFix" mode="normal" result="effect1_dropShadow_2855_9207"/><feBlend in="SourceGraphic" in2="effect1_dropShadow_2855_9207" mode="normal" result="shape"/></filter><clipPath id="b"><path d="m161 52h37.3333v56h-37.3333z"/></clipPath><path d="m0 0h432v160h-432z" fill="#fff"/><g clip-path="url(#b)"><path d="m179.67 79.9993c0-2.4753.983-4.8493 2.734-6.5996 1.75-1.7504 4.124-2.7337 6.599-2.7337 2.476 0 4.85.9833 6.6 2.7337 1.75 1.7503 2.734 4.1243 2.734 6.5996 0 2.4754-.984 4.8494-2.734 6.5997-1.75 1.7504-4.124 2.7337-6.6 2.7337-2.475 0-4.849-.9833-6.599-2.7337-1.751-1.7503-2.734-4.1243-2.734-6.5997z" fill="#1abcfe"/><path d="m161.004 98.6673c0-2.4753.983-4.8493 2.734-6.5996 1.75-1.7504 4.124-2.7337 6.599-2.7337h9.334v9.3333c0 2.4757-.984 4.8497-2.734 6.5997s-4.124 2.734-6.6 2.734c-2.475 0-4.849-.984-6.599-2.734-1.751-1.75-2.734-4.124-2.734-6.5997z" fill="#0acf83"/><path d="m179.67 52v18.6667h9.333c2.476 0 4.85-.9834 6.6-2.7337s2.734-4.1243 2.734-6.5997c0-2.4753-.984-4.8493-2.734-6.5996-1.75-1.7504-4.124-2.7337-6.6-2.7337z" fill="#ff7262"/><path d="m161.004 61.3333c0 2.4754.983 4.8494 2.734 6.5997 1.75 1.7503 4.124 2.7337 6.599 2.7337h9.334v-18.6667h-9.334c-2.475 0-4.849.9833-6.599 2.7337-1.751 1.7503-2.734 4.1243-2.734 6.5996z" fill="#f24e1e"/><path d="m161.004 79.9993c0 2.4754.983 4.8494 2.734 6.5997 1.75 1.7504 4.124 2.7337 6.599 2.7337h9.334v-18.6667h-9.334c-2.475 0-4.849.9833-6.599 2.7337-1.751 1.7503-2.734 4.1243-2.734 6.5996z" fill="#a259ff"/></g><g filter="url(#a)"><rect fill="#fff" height="68.135" rx="14.842" width="66.9668" x="219" y="44.9326"/><path clip-rule="evenodd" d="m272.34 64.2375c0 1.5059-.598 2.9501-1.663 4.0149s-2.509 1.663-4.015 1.663-2.95-.5982-4.015-1.663-1.663-2.509-1.663-4.0149.598-2.9501 1.663-4.0149 2.509-1.663 4.015-1.663 2.95.5982 4.015 1.663 1.663 2.509 1.663 4.0149zm-5.678 3.4067c.447 0 .89-.0881 1.304-.2593.413-.1712.788-.4221 1.105-.7385.316-.3163.567-.6919.738-1.1052s.26-.8563.26-1.3037-.089-.8904-.26-1.3037-.422-.7889-.738-1.1052c-.317-.3164-.692-.5673-1.105-.7385-.414-.1712-.857-.2594-1.304-.2594-.904 0-1.77.359-2.409.9979-.639.6388-.998 1.5054-.998 2.4089s.359 1.77.998 2.4089 1.505.9978 2.409.9978zm0 20.4405c.301 0 .59.1197.803.3326.213.213.332.5018.332.803v3.4068h3.407c.301 0 .59.1196.803.3326.213.2129.333.5018.333.803 0 .3011-.12.59-.333.8029-.213.213-.502.3326-.803.3326h-3.407v3.4068c0 .3012-.119.59-.332.803-.213.2129-.502.3326-.803.3326s-.59-.1197-.803-.3326c-.213-.213-.333-.5018-.333-.803v-3.4068h-3.407c-.301 0-.59-.1196-.802-.3326-.213-.2129-.333-.5018-.333-.8029 0-.3012.12-.5901.333-.803.212-.213.501-.3326.802-.3326h3.407v-3.4068c0-.3012.12-.59.333-.803.213-.2129.502-.3326.803-.3326zm-19.691-24.3923-2.537 8.8803-8.917 2.5664c-3.865 1.1129-3.849 6.6.023 7.6902l8.896 2.5051 2.535 8.8711c1.104 3.8656 6.582 3.8656 7.685 0l2.537-8.8757 8.876-2.5369c3.866-1.1038 3.866-6.5818 0-7.6856l-8.876-2.5369-2.537-8.8757c-1.103-3.8655-6.581-3.8678-7.685-.0023zm-10.813 16.952c-1.674-.4724-1.681-2.839-.012-3.3204l10.125-2.9162 2.885-10.0908c.477-1.6693 2.839-1.6693 3.316 0l2.884 10.0908 10.088 2.8821c1.67.4769 1.67 2.8435 0 3.3204l-10.088 2.8821-2.884 10.0886c-.477 1.6693-2.839 1.6693-3.316 0l-2.885-10.0886z" fill="#000" fill-rule="evenodd"/></g></svg>