<svg fill="none" height="160" viewBox="0 0 432 160" width="432" xmlns="http://www.w3.org/2000/svg" xmlns:xlink="http://www.w3.org/1999/xlink"><clipPath id="a"><path d="m0 0h432v160h-432z"/></clipPath><g clip-path="url(#a)"><path d="m0 0h432v160h-432z" fill="#fff"/><path clip-rule="evenodd" d="m187.073 48c-1.697 0-3.073 1.3757-3.073 3.0728v57.8542c0 1.697 1.376 3.073 3.073 3.073s3.073-1.376 3.073-3.073v-57.8542c0-1.6971-1.376-3.0728-3.073-3.0728zm13.941 8.3025c-3.56 0-6.445 2.8853-6.445 6.4446 0 3.5592 2.885 6.4445 6.445 6.4445h40.987c3.559 0 6.444-2.8853 6.444-6.4445 0-3.5593-2.885-6.4446-6.444-6.4446zm0 17.2706c-3.56 0-6.445 2.8855-6.445 6.4446 0 3.5593 2.885 6.4446 6.445 6.4446h18.302c3.559 0 6.445-2.8853 6.445-6.4446 0-3.5591-2.886-6.4446-6.445-6.4446zm-6.445 23.7173c0-3.5593 2.885-6.4446 6.445-6.4446 3.559 0 6.444 2.8853 6.444 6.4446 0 3.5596-2.885 6.4446-6.444 6.4446-3.56 0-6.445-2.885-6.445-6.4446z" fill="#222" fill-rule="evenodd"/></g></svg>