<svg fill="none" height="160" viewBox="0 0 432 160" width="432" xmlns="http://www.w3.org/2000/svg"><path d="m0 0h432v160h-432z" fill="#eb1000"/><path d="m221.146 101.637c0 .238-.094.466-.262.634s-.396.263-.634.263-.466-.095-.634-.263-.263-.396-.263-.634c0-.237.095-.466.263-.634s.396-.262.634-.262.466.094.634.262.262.397.262.634zm-1.793 2.15c-.265 0-.497.103-.697.245.04-.115.074-.234.074-.362 0-.225-.067-.445-.191-.632-.125-.187-.303-.332-.51-.418-.208-.087-.436-.109-.657-.065-.22.044-.423.152-.582.311s-.267.361-.311.582c-.044.22-.021.449.065.656.086.208.232.385.419.51s.407.191.632.191c.233 0 .439-.087.621-.21-.052.132-.081.272-.084.414 0 .674.547 1.222 1.221 1.222.318-.009.62-.142.842-.37s.346-.534.346-.852-.124-.624-.346-.852-.524-.36-.842-.37zm-2.122 2.712c-.045-.733-.639-1.319-1.383-1.319-.131 0-.248.042-.368.075.226-.241.353-.557.355-.887 0-.261-.077-.516-.222-.734-.146-.217-.352-.386-.594-.486-.241-.1-.507-.126-.763-.075s-.492.176-.676.361c-.185.185-.311.421-.362.677s-.025.522.075.763c.101.242.27.448.487.593.218.145.473.223.734.223.114 0 .216-.038.322-.065-.247.257-.386.599-.387.955 0 .636.433 1.152 1.015 1.322 0 .019-.01.034-.01.052.013.392.177.764.459 1.037s.659.426 1.051.426.769-.153 1.051-.426.446-.645.459-1.037c0-.739-.541-1.326-1.243-1.455zm-3.492 1.361c.066-.172.11-.353.11-.548 0-.801-.615-1.437-1.395-1.515.192-.245.325-.54.325-.877 0-.69-.493-1.239-1.14-1.383.296-.246.495-.602.495-1.018 0-.515-.3-.949-.726-1.173.318-.012.619-.147.84-.376.222-.229.346-.535.347-.854 0-.328-.131-.643-.363-.8753s-.547-.3628-.876-.3628c-.328 0-.643.1305-.875.3628-.233.2323-.363.5473-.363.8753 0 .464.266.855.644 1.067-.35.007-.683.15-.929.4-.245.25-.383.586-.384.936 0 .627.438 1.128 1.018 1.277-.341.264-.576.659-.576 1.124 0 .729.549 1.307 1.251 1.406-.227.269-.381.606-.381.986 0 .74.533 1.329 1.228 1.479-.115.232-.194.483-.194.759 0 .46.183.9.508 1.225s.766.508 1.225.508c.46 0 .9-.183 1.225-.508s.508-.765.508-1.225c0-.881-.669-1.582-1.522-1.69zm-17.73-10.6413c0 .6143-.353 1.1305-.854 1.4123.092-.0164.174-.0553.271-.0553.436 0 .854.1733 1.163.4817.308.3085.482.7269.482 1.1636 0 .262-.075.501-.183.721.286-.248.648-.413 1.057-.413.428.001.838.169 1.143.469.305.299.48.706.489 1.133.177-.679.755-1.183 1.48-1.216-.151-.227-.261-.486-.261-.781 0-.3832.152-.7506.423-1.0215.27-.2708.638-.423 1.021-.423s.75.1522 1.021.423c.271.2709.423.6383.423 1.0215 0 .743-.568 1.333-1.29 1.414.216.276.365.609.365.986 0 .427-.172.808-.44 1.098.297.286.472.678.519 1.11.048-.416.229-.785.523-1.052-.332-.284-.554-.691-.554-1.161 0-.807.625-1.448 1.414-1.519-.201-.242-.337-.542-.337-.881 0-.5088.285-.934.69-1.1794-.597-.0961-1.062-.5914-1.062-1.2182 0-.3335.132-.6533.368-.8892.236-.2358.556-.3683.889-.3683.334 0 .653.1325.889.3683.236.2359.369.5557.369.8892 0 .4406-.239.808-.581 1.033.69.0851 1.232.6507 1.232 1.3646 0 .702-.525 1.257-1.198 1.357.267.282.417.655.419 1.043 0 .412-.167.781-.429 1.058.421.308.712.78.712 1.342 0 .307-.104.579-.246.827.557.315.948.889.948 1.573 0 .197-.054.377-.111.554.19.09.363.207.515.348-.173-.265-.3-.564-.3-.906 0-.36.139-.676.332-.951-.29-.116-.538-.317-.713-.575s-.268-.563-.269-.875c0-.467.214-.874.538-1.16-.437-.249-.745-.701-.745-1.24 0-.755.586-1.356 1.324-1.421-.276-.241-.459-.585-.459-.981 0-.5397.326-1.0012.791-1.2048-.068.0125-.131.0414-.203.0414-.244.0001-.482-.0722-.685-.2076-.203-.1355-.361-.328-.454-.5533-.094-.2253-.118-.4733-.071-.7125.048-.2392.165-.459.338-.6315.172-.1725.392-.29.631-.3376s.487-.0233.713.0701c.225.0933.418.2513.553.4541.136.2028.208.4412.208.6851-.001.2393-.071.4733-.202.6734s-.318.3576-.537.4532c.079-.0149.152-.0473.236-.0473.35 0 .685.1389.932.3861s.386.5825.386.9322c0 .675-.515 1.213-1.171 1.288.332.265.558.655.558 1.113 0 .38-.15.744-.418 1.013.512.259.872.776.872 1.387 0 .308-.111.578-.264.82.668.226 1.156.839 1.156 1.581 0 .208-.05.402-.118.586.801.234 1.397.943 1.397 1.818 0 .511-.203 1-.564 1.361s-.85.564-1.361.564c-.918 0-1.649-.657-1.842-1.517-.193.937-.983 1.654-1.977 1.654-.809 0-1.492-.477-1.829-1.155-.346.76-1.102 1.294-1.992 1.294-.813 0-1.495-.464-1.873-1.121-.385.694-1.097 1.183-1.946 1.183-.822 0-1.511-.463-1.905-1.122-.394.664-1.087 1.13-1.915 1.13-.967 0-1.778-.614-2.101-1.468-.424.423-.999.661-1.598.661-.602-.001-1.179-.24-1.604-.665-.426-.425-.665-1.002-.665-1.604 0-.098.043-.182.055-.275-.232.081-.473.147-.733.147-.597 0-1.169-.237-1.591-.659-.423-.423-.66-.995-.66-1.592 0-.488.188-.914.452-1.283-1.113-.103-1.995-1.01-1.995-2.15 0-.868.516-1.605 1.25-1.959-.648-.363-1.104-1.032-1.104-1.8266 0-1.1469.913-2.0689 2.05-2.1112-.38-.3844-.593-.9031-.594-1.4437 0-.2712.054-.5397.158-.7902.103-.2505.256-.4781.447-.6698.192-.1917.42-.3437.67-.4475.251-.1037.519-.157.79-.157.035 0 .064.0175.098.0199-.398-.3713-.654-.8906-.654-1.4785 0-.2673.053-.5319.155-.7788s.252-.4713.441-.6602c.189-.189.414-.3388.661-.441s.511-.1547.778-.1546c.084 0 .154.0373.233.0473-.452-.3674-.76-.906-.76-1.5358 0-.2634.052-.5242.153-.7676.101-.2433.248-.4645.434-.6508.187-.1863.408-.3341.651-.4349.243-.1009.504-.1528.768-.1529.131 0 .245.0503.369.0752-.51-.3575-.866-.9205-.866-1.5921 0-.2595.051-.5164.15-.7562s.245-.4576.429-.6411c.183-.1835.401-.329.641-.4283.24-.0992.497-.1503.756-.1502.18 0 .342.0577.508.1025-.573-.3385-.976-.9359-.976-1.6497 0-.5163.205-1.0115.57-1.3766s.86-.5703 1.377-.5704c.228 0 .439.0572.642.1299-.634-.3126-1.081-.9518-1.081-1.706 0-.2518.05-.5012.146-.7338s.238-.444.416-.622.389-.3192.622-.4156c.232-.0963.482-.1458.734-.1457.564 0 1.059.2538 1.41.6426.219-.096.46-.1548.716-.1548.571 0 1.056.2863 1.382.7054.224-.1155.468-.1966.737-.1966.584 0 1.073.3226 1.363.7831.22-.1275.461-.2201.734-.2201.694 0 1.251.4829 1.419 1.1241.149-.0562.308-.0961.477-.0961.178-.0001.355.0349.519.1029.165.0681.314.1679.44.2938s.226.2754.294.4399c.069.1645.104.3409.104.519 0 .3978-.178.7467-.451.9956.182-.0762.38-.1064.577-.0877.196.0188.385.0857.549.195.165.1093.299.2574.393.4314.093.1739.142.3682.142.5655 0 .3251-.132.6193-.343.8344.19-.1703.433-.2803.707-.2803.211-.0001.418.0624.594.1797.175.1172.312.2839.393.479s.102.4098.061.617c-.041.2071-.143.3974-.292.5468s-.339.2512-.546.2925c-.208.0413-.422.0203-.617-.0604-.196-.0808-.362-.2176-.48-.3931-.117-.1756-.18-.382-.18-.5932 0-.2902.117-.5516.305-.7442-.213.1941-.489.3186-.799.3186-.237-.0002-.469-.0708-.666-.2027s-.35-.3193-.44-.5383c-.091-.2191-.114-.4601-.067-.6924s.161-.4455.329-.6127c-.166.0709-.345.1072-.526.1066-.587 0-1.076-.3789-1.264-.9031-.197.0969-.413.1486-.632.1514-.486 0-.897-.2465-1.17-.6054-.266.1892-.575.3236-.926.3236-.224-.0009-.444-.0478-.649-.138-.204-.0901-.387-.2214-.538-.3857-.276.1752-.583.3027-.933.3027-.467 0-.884-.1892-1.201-.4829-.279.1578-.582.2718-.926.2718-.223 0-.431-.0578-.631-.128.184.0901.356.1977.501.3381.257-.1394.536-.239.847-.239.532 0 .998.239 1.328.6054.256-.1613.541-.2788.864-.2788.544 0 1.003.2788 1.305.6815.248-.1792.536-.3067.866-.3067.647 0 1.188.4102 1.404.9817.171-.0771.358-.1259.559-.1259.362 0 .71.1439.966.4002.257.2563.401.6038.401.9663 0 .2788-.104.5242-.247.7408.107-.0314.213-.0677.331-.0677.322.0002.631.1283.858.3561.228.2278.356.5366.356.8586-.004.186-.05.3688-.137.5336.164-.0986.344-.1712.549-.1712.214.0001.423.0636.601.1825s.316.2879.398.4856.103.4152.061.625-.145.4025-.296.5537c-.151.1513-.344.2543-.554.296s-.427.0202-.625-.0617c-.197-.0819-.366-.2205-.485-.3984s-.182-.387-.182-.601c0-.1573.036-.3051.097-.44-.189.1224-.4.21-.641.21-.322 0-.631-.1279-.859-.3557s-.356-.5368-.356-.8589c0-.2251.078-.4237.185-.6049-.134.0433-.271.0846-.421.0846-.545 0-1.008-.325-1.227-.7865-.221.1249-.463.2175-.736.2175-.441 0-.828-.1961-1.105-.4978-.289.2489-.654.4142-1.066.4142-.425 0-.804-.1728-1.098-.4366-.306.2404-.674.4067-1.094.4067-.242 0-.472-.0513-.685-.1394.201.0881.38.2131.536.3619.283-.2175.62-.3688 1.005-.3688.502 0 .939.2314 1.245.5799.269-.2359.613-.3923.999-.3923.608 0 1.123.3615 1.369.8762.199-.111.416-.1922.661-.1922.365-.0001.715.1449.974.4031.258.2582.404.6085.404.9739 0 .1753-.04.34-.1.4939.084-.0185.163-.0513.253-.0513.162 0 .322.032.472.0939.149.062.285.1528.399.2672s.205.2502.267.3996c.062.1495.094.3097.093.4714 0 .1175-.036.225-.066.3325.158-.0896.331-.1548.526-.1548.215 0 .426.0639.605.1835s.318.2896.401.4885c.082.1989.104.4178.062.629-.042.2111-.146.4051-.298.5574s-.346.256-.557.2981c-.212.0421-.43.0206-.629-.0617-.199-.0824-.369-.2218-.489-.4008s-.184-.3894-.184-.6048c0-.0891.031-.1677.051-.2504-.193.124-.408.2141-.653.2141-.326 0-.639-.1296-.87-.3604-.231-.2307-.361-.5437-.361-.8702 0-.1314.037-.2529.075-.3714-.122.0349-.242.0747-.375.0747-.504 0-.926-.2848-1.166-.689-.249.1762-.536.3017-.864.3017-.385-.0023-.754-.1513-1.033-.4167-.147.1565-.324.2827-.52.3714.097-.0199.187-.0588.29-.0588.569 0 1.047.3236 1.314.7831.226-.1593.486-.2728.783-.2728.369.0001.722.1466.982.4071.261.2606.407.6139.407.9823 0 .0991-.036.1862-.057.2788.093-.0209.181-.0562.28-.0562.329.0004.644.1311.876.3635.232.2325.362.5475.362.876 0 .0613-.026.114-.034.1713.164-.0986.345-.1713.551-.1713.215 0 .426.0639.605.1834.179.1196.318.2896.4.4884.083.1989.104.4177.062.6288s-.145.405-.297.5572c-.153.1522-.347.2558-.558.2978s-.43.0204-.628-.0619c-.199-.0824-.369-.2219-.489-.4008-.119-.179-.183-.3894-.183-.6046 0-.0299.014-.0538.017-.0842-.199.1364-.425.234-.684.234-.328-.0003-.643-.1308-.875-.3629s-.363-.5468-.363-.8752c0-.0547.024-.1015.03-.1538-.129.0398-.261.0812-.404.0812-.464 0-.854-.2415-1.106-.5905-.27.2305-.609.3844-.991.3844-.38 0-.717-.1529-.986-.3814-.067.0871-.128.1738-.21.2474.501.0214.923.2853 1.194.6706.247-.2091.555-.349.903-.349.186.0001.37.0368.542.108.171.0711.327.1754.459.3069.131.1315.235.2875.306.4593.071.1717.108.3558.108.5416 0 .0224-.012.0409-.013.0638.096-.0239.188-.0588.291-.0588.33 0 .646.1311.88.3643.233.2333.364.5496.364.8795s-.131.6463-.364.8795c-.234.2333-.55.3643-.88.3643-.661 0-1.189-.5207-1.228-1.1708-.147.0512-.3.0935-.465.0935-.424 0-.793-.1946-1.052-.4898-.284.2847-.677.463-1.112.463-.361 0-.679-.1429-.943-.3485-.037.0613-.076.1203-.12.1767.42.0548.778.2589 1.031.5725.134-.1372.293-.2462.47-.3207.176-.0745.366-.1129.557-.1129.382 0 .749.1518 1.019.4221s.422.6369.422 1.0191-.152.7488-.422 1.0191-.637.4221-1.019.4221c-.194-.0003-.386-.0402-.565-.1174-.178-.0771-.339-.1898-.472-.3311-.294.3564-.722.5973-1.22.5973m.221 9.6808c.334.227.612.523.765.901.05-.081.099-.161.158-.234-.243-.3-.404-.665-.42-1.077-.141.166-.312.305-.503.41zm3.866.461c.194.183.353.398.464.644.044-.096.116-.174.175-.26-.217-.206-.364-.47-.457-.761-.045.136-.108.257-.182.377zm3.663-.736c-.025.24-.098.472-.216.683.345.271.586.652.685 1.08.054-.211.139-.4.26-.574-.201-.133-.371-.309-.497-.514-.126-.206-.205-.436-.232-.676zm-4.04-1.588c.264.22.459.512.561.841.101-.312.286-.589.535-.802-.232-.275-.384-.616-.393-1.002-.102.4-.354.744-.703.962zm-3.374-1.667c-.606 0-1.114-.342-1.399-.83.008.069.04.127.04.199 0 .315-.099.596-.238.856.19-.064.384-.12.596-.12.995 0 1.794.792 1.829 1.779.148-.175.327-.32.53-.427-.306-.306-.478-.722-.477-1.155 0-.26.073-.497.181-.716-.289.249-.652.414-1.062.414zm-1.058-3.0065c-.413 0-.778-.1663-1.068-.4177-.134.4226-.422.7795-.806 1.0006.272.0401.532.1419.759.2977.228.1558.416.3619.552.6019-.003-.043-.025-.079-.025-.121 0-.6173.354-1.1335.856-1.4153-.091.015-.173.0538-.268.0538zm2.266-12.001c-.378 0-.71-.1479-.99-.3589-.07.0672-.162.106-.242.1623.424.0273.812.1926 1.094.4754.136-.1464.299-.2647.481-.348-.115.0239-.221.0692-.343.0692zm-1.57-3.3553c-.144-.0628-.263-.1628-.384-.2589-.069.0473-.133.0996-.208.1394.207.0114.409.0438.592.1195zm1.476-6.983c.269-.002.534-.0621.777-.1762.32.3475.77.5725 1.28.5725.293 0 .558-.0896.8-.2161.296.3739.733.6293 1.248.6293.292 0 .552-.0991.788-.2355.261.4192.704.7129 1.234.7129.193 0 .376-.0423.544-.1095.14.5939.65 1.0439 1.285 1.0439.696 0 1.25-.5352 1.32-1.2132.162.4466.582.7691 1.084.7691.155.0033.309-.0245.453-.0815.144-.0571.275-.1423.386-.2506.11-.1084.198-.2378.258-.3806.06-.1427.091-.296.091-.4509s-.031-.3082-.091-.451c-.06-.1427-.148-.2721-.258-.3805-.111-.1084-.242-.1936-.386-.2506s-.298-.0848-.453-.0816c-.596 0-1.069.454-1.138 1.0315-.17-.5461-.663-.9503-1.266-.9503-.139 0-.265.0398-.39.0786-.102-.7178-.693-1.2794-1.439-1.2794-.216 0-.418.0513-.603.1354-.268-.5192-.795-.8861-1.42-.8861-.207.0013-.412.0431-.604.123-.313-.4789-.828-.814-1.443-.814-.202 0-.389.0523-.57.1145-.344-.46-.868-.7776-1.487-.7776-.248 0-.493.0488-.722.1437-.229.0948-.437.2339-.612.4091-.176.1752-.315.3833-.409.6123-.095.2289-.144.4743-.144.7222 0 .2478.049.4932.144.7222.094.229.233.437.409.6123.175.1752.383.3142.612.4091.229.0948.474.1436.722.1436zm1.479-3.5529c.223 0 .43-.0548.629-.1265.316.4182.793.7069 1.358.7069.235 0 .459-.0493.664-.1344.284.4356.751.7408 1.311.7408.233 0 .451-.0563.65-.1464.24.4814.725.8204 1.299.8204.161 0 .308-.0438.453-.0911.067.6751.617 1.2077 1.31 1.2077.59 0 1.074-.3883 1.251-.9204.09.2093.24.3875.43.5129.191.1253.414.1922.642.1925.31 0 .608-.1234.828-.3429.219-.2195.343-.5173.343-.8277 0-.3105-.124-.6083-.343-.8278-.22-.2195-.518-.3429-.828-.3429-.495 0-.915.3102-1.085.7458-.095-.2519-.264-.469-.486-.6224-.221-.1535-.483-.2361-.752-.2369-.108 0-.206.0374-.306.0613-.007-.3823-.163-.7466-.436-1.0147-.272-.2681-.639-.4186-1.021-.4191-.166 0-.32.0443-.468.0956-.229-.6019-.8-1.033-1.481-1.033-.157 0-.3.0473-.443.0896-.284-.5665-.855-.9652-1.532-.9652-.148 0-.281.0487-.418.0846-.325-.5426-.892-.9225-1.569-.9225-.486.0113-.947.2119-1.287.5591-.339.3472-.529.8134-.529 1.2988s.19.9516.529 1.2988c.34.3472.801.5478 1.287.5591zm1.478-3.552c.167 0 .317-.0538.471-.0951.295.5038.82.8593 1.447.8593.176 0 .336-.0498.495-.1001.254.5277.783.8981 1.407.8981.187 0 .358-.0463.524-.1051.196.5651.719.9768 1.352.9768.136 0 .258-.0429.383-.0777-.001.0189-.011.0338-.011.0513 0 .7318.593 1.3242 1.324 1.3242.507 0 .934-.2947 1.155-.7139.089.2156.239.4001.433.53.193.1299.421.1992.654.1993.312 0 .612-.124.832-.3447.221-.2207.345-.52.345-.8321 0-.3122-.124-.6115-.345-.8322-.22-.2207-.52-.3447-.832-.3447-.435 0-.799.2474-1.003.5974-.176-.5237-.656-.9065-1.239-.9065-.1 0-.187.0348-.28.0562.006-.0523.031-.0986.031-.1538 0-.3837-.152-.7518-.424-1.0231-.271-.2714-.639-.4239-1.023-.4241-.134 0-.254.0428-.377.0767-.171-.6845-.761-1.2023-1.498-1.2023-.112 0-.211.0414-.317.0638-.239-.6512-.851-1.1216-1.586-1.1216-.094 0-.176.0388-.266.0537-.29-.6267-.916-1.0668-1.651-1.0668-.485 0-.95.1927-1.293.5356s-.536.808-.536 1.2929c0 .485.193.95.536 1.293.343.3429.807.5355 1.292.5355zm1.479-3.5529c.111 0 .206-.0439.311-.0628.13.3002.344.5558.618.7356.273.1797.592.2757.919.276.134 0 .252-.0463.376-.0762.207.6153.77 1.0654 1.455 1.0654.15 0 .287-.0458.426-.0862.132.6542.682 1.156 1.375 1.156.129 0 .245-.0413.365-.0742-.016.0817-.049.1563-.049.2415 0 .3482.139.6821.385.9283s.58.3846.928.3849c.443 0 .816-.234 1.054-.57.156.47.585.8139 1.107.8139.31-.0063.604-.1337.821-.3549s.338-.5185.338-.8281c0-.3097-.121-.607-.338-.8281-.217-.2212-.511-.3487-.821-.355-.378 0-.701.1902-.917.4665-.153-.5556-.64-.9718-1.244-.9718-.094 0-.177.0349-.267.0538.028-.1115.069-.2191.069-.339 0-.188-.037-.3741-.109-.5477s-.177-.3313-.31-.4642-.291-.2382-.465-.3101c-.173-.0719-.359-.1088-.547-.1088-.101 0-.189.0374-.285.0578-.095-.7682-.723-1.3695-1.516-1.3695-.082 0-.152.0333-.231.0463-.179-.7333-.81-1.2884-1.6-1.2884-.059 0-.108.0274-.165.0338-.243-.7069-.893-1.2221-1.682-1.2221-.477 0-.935.1895-1.272.5268s-.527.7948-.527 1.2718.19.9345.527 1.2718c.337.3374.794.5269 1.271.5269zm1.479-3.5535c.078 0 .146-.0348.22-.0448.208.6765.814 1.1778 1.558 1.1778.102 0 .189-.0398.285-.0572.141.7019.731 1.2406 1.473 1.2406.117 0 .22-.0414.329-.0662.046.7402.647 1.3306 1.399 1.3306.123 0 .233-.0398.347-.0697-.048.1344-.086.2758-.086.4272 0 .3455.137.677.381.9214s.576.3817.921.3819c.511 0 .943-.3012 1.156-.7303-.007.0497-.03.0945-.03.1473 0 .1561.031.3107.091.455.06.1442.147.2752.258.3856.11.1104.241.1979.385.2575.145.0597.299.0903.455.0902.316 0 .618-.1252.841-.3482.223-.2229.348-.5253.348-.8406s-.125-.6176-.348-.8406c-.223-.2229-.525-.3482-.841-.3482-.464 0-.855.2738-1.051.6621.01-.0667.039-.1254.039-.1931 0-.171-.034-.3403-.099-.4983-.066-.158-.162-.3015-.283-.4224s-.264-.2168-.422-.2822-.328-.099-.499-.0989c-.089 0-.168.0338-.254.0512.066-.1627.107-.3375.107-.5227 0-.3755-.15-.7356-.415-1.0011-.266-.2655-.626-.4147-1.001-.4147-.07 0-.13.0299-.196.0398l.001-.0059c0-.2013-.04-.4006-.117-.5866s-.19-.3549-.332-.4972c-.143-.1424-.312-.2552-.498-.3322-.186-.0769-.385-.1165-.586-.1163-.051 0-.095.0239-.144.0288-.103-.8139-.771-1.4536-1.613-1.4536-.031 0-.057.0169-.088.0179-.181-.784-.851-1.3819-1.691-1.3819-.46.0134-.897.2056-1.218.5359s-.5.7726-.5 1.2331.179.9028.5 1.2331.758.5225 1.218.5359zm1.506-3.5405c.069 0 .129-.0314.195-.0398.12.7865.768 1.3988 1.588 1.3988.104 0 .196-.0408.295-.0597.004.4011.166.7844.451 1.0668s.669.4411 1.07.4416c.17 0 .326-.0448.478-.0961-.017.0886-.053.1713-.053.2664 0 .3767.149.738.416 1.0045.266.2664.628.4161 1.004.4162.235 0 .447-.0716.642-.1717-.183.2265-.308.5028-.308.8154 0 .2609.078.5159.222.7329.145.2169.351.386.592.4859.241.0998.506.126.762.0751.256-.0508.491-.1764.676-.3609.184-.1844.31-.4195.361-.6753.05-.2559.024-.5211-.076-.7621-.1-.2409-.269-.4469-.486-.5918-.216-.1448-.472-.2221-.732-.222-.198.0026-.393.051-.569.1414.201-.245.337-.5461.337-.8876 0-.3769-.15-.7382-.416-1.0047-.266-.2664-.628-.4161-1.005-.4161-.139 0-.263.0413-.39.0786.029-.1165.071-.229.071-.3539 0-.4047-.161-.7928-.447-1.0789-.286-.2862-.674-.4469-1.079-.4469-.069 0-.128.0298-.195.0398 0-.0259.015-.0463.015-.0722 0-.2148-.043-.4274-.125-.6259-.082-.1984-.203-.3786-.354-.5305-.152-.1518-.333-.2722-.531-.3543-.199-.0821-.411-.1243-.626-.1241-.027 0-.049.0139-.076.0149-.082-.8827-.803-1.5831-1.707-1.5831-.457.0077-.892.1944-1.212.5198-.319.3254-.499.7635-.499 1.2198 0 .4564.18.8945.499 1.2199.32.3254.755.5121 1.212.5198zm2.171-3.1592c.117 0 .219-.0438.329-.0662-.006.0563-.033.1045-.033.1623 0 .2134.042.4248.124.6219.081.1972.201.3763.352.5272s.33.2706.527.3522c.197.0817.409.1236.622.1236.177 0 .339-.0488.5-.1001-.044.1414-.09.2828-.09.4381 0 .2018.04.4016.117.5881.078.1865.191.3559.334.4986.142.1427.312.2559.498.3331.187.0772.386.117.588.117.345 0 .647-.1354.904-.3266-.229.2564-.379.5864-.379.9578 0 .2879.086.5693.246.8087s.387.426.653.5361c.266.1102.559.139.841.0829.282-.0562.542-.1948.745-.3984.204-.2036.343-.4629.399-.7453s.027-.575-.083-.841-.297-.4934-.536-.6533c-.24-.1599-.521-.2453-.809-.2453-.323 0-.605.1249-.846.3027.243-.2714.402-.6213.402-1.0156-.001-.4074-.163-.798-.451-1.086s-.678-.4498-1.086-.4498c-.151 0-.287.0448-.424.0847.054-.1623.103-.3296.103-.5113 0-.4311-.172-.8446-.476-1.1495-.305-.3049-.719-.4763-1.15-.4764-.091 0-.17.0378-.258.0528.011-.0797.047-.1504.047-.2325 0-.3381-.1-.6686-.288-.9497s-.455-.5003-.767-.6297-.656-.1632-.988-.0973c-.331.0659-.636.2287-.875.4677s-.402.5436-.468.8752-.032.6753.097.9876c.129.3124.348.5795.63.7674.281.1879.611.2882.949.2883zm2.964-2.4199c.192 0 .37-.0498.542-.109-.101.2099-.154.4393-.156.672 0 .3195.095.6317.272.8972.178.2655.43.4724.725.5945.295.1222.62.154.934.0916.313-.0624.601-.2162.826-.4422.226-.2259.38-.5137.442-.827.063-.3133.031-.638-.092-.9331-.122-.2952-.329-.5475-.594-.725-.266-.1775-.578-.2723-.898-.2724-.179 0-.343.0488-.503.1016.109-.2226.183-.464.183-.7293 0-.928-.752-1.6797-1.681-1.6797-.928 0-1.68.7517-1.68 1.6797 0 .9279.752 1.6811 1.68 1.6811zm3.513-1.496c.438 0 .858-.1739 1.167-.4835.31-.3095.484-.7294.484-1.1672s-.174-.8577-.484-1.1673c-.309-.3096-.729-.4835-1.167-.4835s-.858.1739-1.167.4835c-.31.3096-.484.7295-.484 1.1673s.174.8577.484 1.1672c.309.3096.729.4835 1.167.4835zm3.786-.4515c.213.0001.423-.0418.62-.1232s.376-.2007.526-.3512c.151-.1505.27-.3291.352-.5257.081-.1967.123-.4074.123-.6203s-.042-.4236-.123-.6203-.201-.3754-.351-.526c-.151-.1506-.329-.27-.526-.3515s-.407-.1235-.62-.1236c-.43-.0001-.842.1705-1.147.4744-.304.3039-.475.7161-.475 1.146s.171.8422.475 1.1463.716.475 1.146.4751zm3.75.6318c.209-.0001.416-.0414.61-.1214.193-.0801.368-.1974.516-.3453s.265-.3234.345-.5166.121-.4002.121-.6093c0-.209-.041-.4161-.121-.6092-.081-.1931-.198-.3686-.346-.5164s-.323-.265-.516-.3449c-.194-.08-.401-.1211-.61-.121-.422.0001-.827.168-1.125.4666-.299.2987-.466.7037-.466 1.1259 0 .4223.168.8271.466 1.1256.299.2985.704.4661 1.126.466zm4.763 3.1138c-.149-.0463-.301-.0936-.466-.0936-.261.0001-.517.0646-.746.1878-.229.1231-.425.3011-.568.518-.144.217-.232.4661-.256.7252-.024.2592.016.5202.117.76-.112-.0249-.217-.0673-.336-.0673-.208 0-.413.0408-.605.1202-.191.0793-.366.1957-.512.3424-.147.1466-.263.3208-.343.5125-.079.1917-.12.3971-.12.6045 0 .3301.125.6188.298.8712-.101-.0199-.196-.0607-.304-.0607-.413.0003-.81.1648-1.103.4575-.292.2926-.456.6894-.456 1.1032 0 .3903.157.7367.394 1.0105-.133-.0398-.267-.0836-.414-.0836-.296-.0002-.585.0873-.831.2514s-.437.3974-.551.6705c-.113.273-.143.5735-.085.8635.057.29.2.5564.409.7655s.475.3515.765.4092c.29.0578.59.0283.863-.0848.274-.1131.507-.3047.671-.5505.165-.2457.252-.5347.252-.8303 0-.3679-.147-.693-.367-.9534.146.0448.293.0916.454.0916.413-.0001.81-.1645 1.103-.4569.292-.2925.456-.6891.457-1.1027 0-.3236-.122-.6074-.291-.8563.105.0219.204.0632.316.0632.261-.0001.517-.0649.747-.1884s.425-.302.569-.5194c.144-.2175.232-.4672.255-.7269.024-.2596-.017-.5211-.118-.7612.112.0249.217.0672.336.0672.417 0 .818-.1659 1.114-.4614.295-.2955.462-.6962.462-1.1142 0-.1677-.047-.3201-.095-.4714.138.0413.277.0861.43.0861.406 0 .796-.1614 1.083-.4487s.449-.677.449-1.0833-.162-.796-.449-1.0833c-.287-.2874-.677-.4488-1.083-.4488-.202 0-.401.0396-.587.1165-.186.077-.355.1899-.497.3322s-.255.3112-.332.4972c-.077.1859-.117.3852-.117.5864 0 .1539.046.2937.088.4336zm15.56 34.4921c0 .323.128.6329.356.8613.229.2285.539.3568.862.3569s.632-.1282.861-.3565c.228-.2284.357-.5382.357-.8612s-.129-.6328-.357-.8612-.538-.3567-.861-.3567-.633.1283-.861.3567c-.229.2284-.357.5377-.357.8607zm1.532 3.5196c0 .154.031.3064.09.4486.059.1423.145.2715.254.3803s.238.1951.38.2539c.143.0589.295.0892.449.0891s.307-.0305.449-.0894c.142-.059.271-.1454.38-.2543s.195-.2382.254-.3805c.059-.1422.089-.2947.089-.4487 0-.3109-.124-.609-.344-.8288s-.518-.3432-.829-.343c-.311.0001-.609.1237-.829.3437-.22.2199-.343.5182-.343.8291zm1.532 3.5181c0 .2987.118.5852.329.7965s.498.3302.796.3304c.299.0002.586-.1183.797-.3293.211-.2111.33-.4974.33-.7961 0-.1478-.029-.2943-.085-.431-.057-.1366-.14-.2608-.244-.3654-.105-.1047-.229-.1877-.365-.2444-.137-.0567-.283-.0859-.431-.086s-.294.0289-.431.0854-.261.1394-.366.2439c-.104.1045-.187.2286-.244.3652-.057.1365-.086.283-.086.4308zm1.458 3.5498c0 .286.113.561.316.764.203.202.477.316.764.316.286 0 .561-.114.764-.316.202-.203.316-.478.316-.764 0-.1421-.028-.2825-.082-.4135-.054-.1309-.134-.2499-.234-.3502-.101-.1002-.22-.1797-.351-.2339s-.271-.082-.413-.082c-.286 0-.561.1137-.764.3161-.202.2024-.316.4769-.316.7635zm1.198 2.753c-.138-.005-.276.019-.405.069s-.247.125-.347.222c-.099.096-.178.212-.232.339-.054.128-.082.265-.082.404 0 .138.028.275.082.403s.133.243.232.339c.1.097.218.172.347.222s.267.074.405.07c.271-.006.528-.118.717-.311.189-.194.295-.453.295-.724 0-.27-.106-.53-.295-.723s-.446-.304-.717-.31zm-1.575 3.491c-.262 0-.513.104-.699.289-.185.186-.289.437-.289.7 0 .262.104.513.289.699.186.185.437.289.699.289.263 0 .514-.104.699-.289.186-.186.29-.437.29-.699 0-.263-.104-.514-.29-.7-.185-.185-.436-.289-.699-.289zm-2.668 2.693c-.25 0-.49.099-.667.276-.176.177-.276.416-.276.666s.099.49.276.667.416.276.666.276c.251 0 .49-.099.667-.276.177-.176.277-.416.277-.666s-.1-.49-.276-.667c-.177-.177-.417-.276-.667-.276zm-3.01.785c-.284.011-.554.131-.751.336-.198.205-.309.479-.309.764 0 .284.111.558.309.763.197.205.467.326.751.336.292 0 .571-.116.778-.322.206-.206.322-.486.322-.777 0-.292-.116-.572-.322-.778-.207-.206-.486-.322-.778-.322zm-25.946-56.9766c0 .2109.042.4196.122.6144.081.1947.199.3717.348.5207.15.1491.327.2673.521.3479.195.0806.404.1221.615.122.425 0 .834-.1691 1.135-.4702s.47-.7095.47-1.1353-.169-.8341-.47-1.1352-.71-.4702-1.135-.4702c-.211 0-.42.0415-.615.1222s-.372.199-.521.3482c-.149.1491-.267.3262-.348.521-.08.1948-.122.4037-.122.6145zm3.624.1668c-.004.2119.035.4225.113.6194.079.1969.196.3761.344.5273.149.1512.326.2713.521.3533.196.082.406.1242.618.1242s.421-.0422.617-.1242c.195-.082.373-.2021.521-.3533.149-.1512.266-.3304.344-.5273.079-.1969.117-.4075.113-.6194-.007-.4183-.178-.817-.477-1.1103-.298-.2932-.7-.4575-1.118-.4575-.419 0-.821.1643-1.119.4575-.298.2933-.47.692-.477 1.1103zm4.985-.3266c-.421 0-.824.1671-1.122.4644-.297.2973-.464.7006-.465 1.1212 0 .4018.162.7592.409 1.0385-.31-.1324-.655-.1614-.983-.0826s-.621.2612-.837.5201c-.216.2588-.343.5804-.362.917-.019.3367.071.6704.257.9517.186.2814.458.4954.775.6102.317.1149.662.1246.985.0276s.606-.2955.807-.566.31-.5987.31-.9358c0-.3968-.16-.7498-.403-1.0246.194.0827.405.1315.629.1315.208 0 .415-.0411.607-.1209.193-.0798.368-.1968.515-.3442.148-.1474.264-.3224.344-.515s.121-.3991.121-.6075c0-.3261-.123-.6123-.292-.8637.202.0961.424.1598.663.1598.31.0001.612-.0915.869-.2632.257-.1716.457-.4157.576-.7012.118-.2856.149-.5998.089-.903-.061-.3032-.21-.5817-.428-.8002-.219-.2186-.497-.3675-.8-.4277-.304-.0603-.618-.0293-.903.089-.286.1183-.53.3187-.702.5758-.171.257-.263.5592-.263.8683 0 .3201.12.6004.285.8483-.208-.1001-.434-.1678-.681-.1678zm18.941 39.0134c-.159 0-.317.0314-.464.0923-.147.061-.28.1503-.393.2629-.227.2274-.355.5357-.355.8572s.128.6298.355.8571c.228.2273.536.3549.858.3549.321 0 .629-.1278.857-.3551.227-.2273.355-.5357.355-.8571 0-.3215-.128-.6299-.355-.8572-.228-.2273-.536-.355-.857-.355zm2.566 4.555c0-.3076-.122-.6026-.339-.8202-.218-.2175-.513-.3397-.821-.3397-.307 0-.602.1222-.82.3397-.217.2176-.339.5126-.339.8202 0 .3077.122.6027.339.8202.218.2176.513.3398.82.3398.308 0 .603-.1222.821-.3398.217-.2175.339-.5125.339-.8202zm1.355 3.3439c.003-.1476-.023-.2943-.077-.4316-.055-.1373-.136-.2624-.239-.3679s-.227-.1894-.363-.2466c-.136-.0573-.282-.0868-.43-.0868-.147 0-.293.0294-.43.0866-.136.0572-.259.141-.362.2464-.104.1055-.185.2305-.239.3678-.055.1373-.081.284-.078.4316.006.29.126.5666.333.7696s.486.316.776.316.569-.113.776-.316.327-.4791.333-.7691zm-.231 4.5581c.281 0 .549-.111.747-.309s.309-.466.309-.746-.111-.549-.309-.747-.466-.309-.747-.309c-.28 0-.548.111-.746.309s-.309.467-.309.747.111.548.309.746.466.309.746.309zm-29.586-47.895c0-.2032-.04-.4044-.118-.5921s-.192-.3582-.336-.5018c-.143-.1436-.314-.2576-.502-.3352-.187-.0777-.389-.1177-.592-.1176-.203 0-.404.0401-.592.1179-.188.0779-.358.1919-.502.3356-.143.1437-.257.3143-.335.5021-.078.1877-.118.3889-.118.5921.001.4103.164.8039.454 1.094.144.1436.314.2576.502.3353s.389.1177.592.1177c.203-.0001.404-.0401.592-.1179s.358-.1918.502-.3355.258-.3143.335-.502c.078-.1877.118-.3894.118-.5926zm1.849-1.8867c-.207-.0037-.412.0338-.604.1105-.193.0766-.368.1908-.515.3358-.148.145-.265.318-.345.5089-.08.1908-.122.3957-.122.6027s.042.4119.122.6027c.08.1909.197.3639.345.5089.147.145.322.2592.515.3358.192.0767.397.1142.604.1105.414 0 .81-.1641 1.102-.4564.292-.2922.457-.6885.457-1.1018 0-.4132-.165-.8095-.457-1.1018-.292-.2922-.688-.4558-1.102-.4558zm21.616 41.7254c0 .3156.125.6182.348.8415.223.2232.526.3487.841.3488.316.0001.618-.1251.842-.3481.223-.2231.348-.5256.348-.8412 0-.1562-.03-.311-.09-.4554-.06-.1443-.147-.2755-.258-.3861-.223-.2232-.525-.3487-.841-.3488-.156-.0001-.311.0307-.455.0904-.145.0597-.276.1473-.386.2577-.224.2231-.349.5257-.349.8412zm1.379 3.1617c0 .1488.03.2961.087.4335.057.1375.14.2623.245.3671.106.106.231.189.368.246.138.056.285.086.434.085.3 0 .588-.119.801-.331.212-.2127.331-.5008.331-.8011 0-.3004-.119-.5885-.331-.8009-.213-.2123-.501-.3317-.801-.3317-.149-.0001-.296.0291-.434.086s-.263.1403-.368.2456c-.105.1052-.189.2302-.246.3677s-.086.2849-.086.4338zm3.428 3.2006c0-.285-.114-.558-.315-.76-.202-.202-.475-.315-.761-.315-.285 0-.558.113-.76.315s-.315.475-.315.76c0 .286.113.559.315.761.202.201.475.315.76.315.286 0 .559-.114.761-.315.201-.202.315-.475.315-.761zm-.058 2.464c-.27 0-.528.107-.719.298s-.299.45-.299.72.108.529.299.72.449.298.719.298.529-.107.72-.298.299-.45.299-.72-.108-.529-.299-.72-.45-.298-.72-.298zm-25.966-2.219c.144 0 .287-.028.42-.083s.253-.136.355-.238.183-.223.238-.356.083-.275.083-.419-.029-.287-.084-.42-.136-.254-.238-.355c-.101-.102-.222-.183-.355-.238s-.276-.083-.42-.083c-.291 0-.569.116-.775.321-.205.206-.321.485-.321.776.001.29.116.569.322.775.205.205.484.32.775.32zm-2.759.297c.165.003.329-.027.482-.088.154-.061.294-.151.411-.267.118-.115.212-.253.276-.405s.097-.316.097-.481-.033-.328-.097-.48-.158-.29-.276-.406c-.117-.115-.257-.206-.411-.267-.153-.061-.317-.09-.482-.087-.324.006-.634.14-.861.372s-.355.543-.355.868.128.637.355.869c.227.231.537.365.861.372zm.944-42.4592c.395-.0001.774-.1573 1.054-.4369.279-.2797.436-.6589.436-1.0544 0-.3954-.157-.7746-.437-1.0542-.279-.2795-.659-.4366-1.054-.4365-.196 0-.39.0386-.571.1136-.18.075-.345.1848-.483.3233-.139.1385-.248.3028-.323.4837s-.114.3748-.114.5706.039.3897.114.5706.185.3452.323.4836c.139.1385.303.2483.484.3232s.375.1134.571.1134zm4.715-1.0967c.007-.2051-.027-.4095-.1-.601-.073-.1916-.185-.3665-.327-.5141-.142-.1477-.313-.2651-.502-.3453s-.392-.1216-.597-.1216-.408.0414-.597.1216-.359.1976-.502.3453c-.142.1476-.253.3225-.327.5141-.073.1915-.107.3959-.1.601.015.3951.182.7693.466 1.0438.285.2745.665.4278 1.06.4278s.775-.1533 1.06-.4278.452-.6487.466-1.0438zm16.959 35.5086c-.324 0-.634.1285-.863.3572-.228.2288-.357.539-.357.8625 0 .3234.129.6337.357.8624.229.2287.539.3572.863.3572.323 0 .633-.1285.862-.3572s.357-.539.357-.8624c0-.3235-.128-.6337-.357-.8625-.229-.2287-.539-.3572-.862-.3572zm.081 4.1922c0 .3067.122.601.338.8179.217.2172.512.3392.818.3392.307 0 .601-.122.818-.3388.217-.2169.339-.5111.339-.8178 0-.3068-.122-.601-.339-.8179-.216-.217-.511-.3388-.817-.3388-.307 0-.601.1218-.818.3388-.217.2169-.339.5111-.339.8179zm3.49 2.9751c0-.143-.029-.286-.084-.418-.055-.133-.135-.254-.237-.355-.102-.102-.222-.183-.355-.238s-.275-.083-.419-.083c-.143 0-.286.028-.418.083-.133.055-.254.136-.355.238-.102.101-.183.222-.238.355-.055.132-.083.275-.083.418 0 .291.115.569.321.774.205.205.483.321.773.321.291 0 .569-.116.774-.321s.321-.483.321-.774zm.443 4.06c.135 0 .269-.026.394-.078s.239-.128.335-.223c.095-.096.171-.21.223-.335s.079-.259.079-.394c0-.136-.027-.27-.078-.395-.052-.125-.128-.238-.224-.334-.095-.096-.209-.172-.334-.224s-.259-.078-.394-.078c-.274-.001-.536.108-.729.301-.194.193-.302.455-.302.729 0 .273.108.535.301.728.193.194.455.303.729.303zm1.207 1.884c.001-.257-.101-.503-.283-.685-.09-.09-.196-.161-.314-.21-.117-.049-.243-.074-.371-.074-.257 0-.503.102-.685.283-.182.182-.284.428-.284.685s.102.503.283.685c.182.182.428.284.685.284.257.001.503-.101.685-.283.182-.181.284-.428.284-.685zm-25.667-8.8002c0-.3076-.123-.6026-.34-.82-.218-.2174-.513-.3395-.821-.3394-.307.0002-.602.1225-.82.3401-.217.2176-.339.5127-.339.8203 0 .1524.03.3032.088.4439.059.1407.144.2685.252.3763.108.108.236.193.376.251.141.058.292.088.444.088.153 0 .303-.03.444-.088.141-.059.269-.144.376-.252.108-.1076.193-.2355.252-.3762.058-.1408.088-.2916.088-.444zm-16.972 1.6382c.385 0 .754-.153 1.026-.425s.425-.6407.425-1.0255c0-.3847-.153-.7537-.425-1.0257-.272-.2721-.641-.4249-1.026-.4249-.384 0-.753.1528-1.025.4249-.272.272-.425.641-.425 1.0257 0 .3848.153.7535.425 1.0255s.641.425 1.025.425zm-.429-3.7683c0-.1914-.038-.3809-.111-.5577s-.181-.3374-.316-.4727-.296-.2426-.473-.3158c-.177-.0731-.366-.1108-.558-.1107-.191.0001-.38.0378-.557.1111s-.338.1807-.473.3161-.243.2961-.316.4729c-.073.1769-.111.3664-.11.5578 0 .3865.153.7571.427 1.0304.273.2733.644.4268 1.03.4267.387-.0001.757-.1537 1.031-.427.273-.2734.426-.6446.426-1.0311zm13.412-34.7206c0 .3654.145.7158.403.9742.259.2584.609.4036.975.4037.359-.0096.699-.159.95-.4162.25-.2573.391-.6022.391-.9612 0-.3591-.141-.7039-.391-.9612-.251-.2573-.591-.4067-.95-.4163-.181-.0001-.36.0354-.528.1045-.167.0692-.319.1706-.447.2984-.128.1279-.229.2798-.298.4469-.07.1671-.105.3463-.105.5272zm2.958-.1553c0 .3807.151.7459.42 1.0152.269.2692.635.4205 1.015.4205.381 0 .746-.1513 1.016-.4205.269-.2693.42-.6345.42-1.0152 0-.3808-.151-.746-.42-1.0153-.27-.2692-.635-.4205-1.016-.4205-.38 0-.746.1513-1.015.4205-.269.2693-.42.6345-.42 1.0153zm19.002 37.006c0 .3132.124.6136.346.8352.221.221.522.346.835.346s.613-.125.835-.346c.221-.2216.346-.522.346-.8352 0-.3131-.125-.6135-.346-.8349-.222-.2215-.522-.3459-.835-.3459s-.614.1244-.835.3459c-.222.2214-.346.5218-.346.8349zm3.453 2.8002c0-.295-.117-.578-.326-.786-.208-.209-.491-.326-.786-.326s-.578.117-.786.326c-.209.208-.326.491-.326.786s.117.578.326.786c.208.209.491.326.786.326s.578-.117.786-.326c.209-.208.326-.491.326-.786zm.733 1.653c-.139-.003-.277.022-.406.073s-.247.128-.346.225c-.1.097-.179.213-.232.341-.054.128-.082.266-.082.405 0 .138.028.276.082.404.053.128.132.244.232.341.099.098.217.174.346.225s.267.076.406.073c.271-.009.528-.122.717-.317s.294-.455.294-.726-.105-.532-.294-.727c-.189-.194-.446-.308-.717-.316zm.324 2.638c-.538 0-.974.435-.974.973s.436.976.974.976c.537 0 .974-.438.974-.976s-.437-.973-.974-.973zm-19.683-6.4933c0-.1274-.025-.2535-.074-.3712-.048-.1178-.12-.2247-.21-.3148-.09-.09-.197-.1615-.315-.2102-.117-.0487-.244-.0738-.371-.0738-.127.0001-.254.0252-.371.074-.118.0488-.225.1203-.315.2104s-.162.1971-.21.3148c-.049.1177-.074.2439-.074.3713 0 .2578.102.5038.284.6858s.429.284.686.284c.258 0 .505-.102.686-.284.182-.182.284-.429.284-.6863zm-3.246-2.2939c-.003.1378.021.2749.072.4032.05.1282.126.2451.222.3437.097.0986.212.177.339.2305.127.0536.263.0812.401.0812.138.0001.275-.0274.402-.0808s.242-.1316.339-.2302c.096-.0985.172-.2153.223-.3435.05-.1282.075-.2653.072-.4031 0-.2747-.109-.5381-.303-.7324s-.457-.3035-.732-.3036-.538.1088-.732.3029c-.195.1941-.303.4574-.303.7321zm-2.661 1.3242c.285-.0105.555-.1311.752-.3364.198-.2053.309-.4794.309-.7646 0-.2851-.111-.5592-.309-.7645-.197-.2053-.467-.3259-.752-.3364-.292 0-.572.116-.779.3225-.206.2065-.322.4866-.322.7787 0 .292.116.5721.322.7786.207.2066.487.3226.779.3226zm-2.807.0219c.31 0 .606-.123.825-.3418s.342-.5156.342-.8251-.123-.6063-.342-.8251c-.219-.2189-.515-.3418-.825-.3418-.309 0-.606.1229-.825.3418-.219.2188-.342.5156-.342.8251s.123.6063.342.8251.516.3418.825.3418zm-8.37-.2828c.165-.0001.328-.0326.48-.0957.152-.063.29-.1554.406-.2719.116-.1164.209-.2546.272-.4067.062-.1521.095-.3151.095-.4797s-.033-.3275-.096-.4795c-.063-.1521-.155-.2902-.272-.4065-.116-.1163-.255-.2085-.407-.2714s-.315-.0952-.479-.0951c-.333.0002-.651.1324-.886.3676s-.367.554-.367.8864.133.6511.368.886.554.3667.886.3665zm-.592-3.2856c0-.164-.033-.3264-.095-.4779-.063-.1515-.155-.2891-.271-.4051-.116-.1159-.254-.2079-.405-.2706-.152-.0627-.314-.095-.478-.095-.164.0001-.327.0324-.478.0952-.152.0628-.289.1548-.405.2708s-.208.2537-.271.4052-.095.3139-.095.4779c0 .3311.132.6487.366.8828.234.2342.552.3657.883.3657s.648-.1315.883-.3657c.234-.2341.365-.5517.365-.8828zm5.54-15.6082c0-.313-.125-.6132-.346-.8345s-.522-.3456-.835-.3456-.613.1243-.834.3456-.346.5215-.346.8345c0 .1549.031.3083.09.4514.06.1432.147.2732.256.3827.11.1095.24.1964.383.2556s.297.0897.452.0896c.313 0 .613-.1243.834-.3455.221-.2213.346-.5209.346-.8338zm6.968-12.9683c.334 0 .655-.1328.891-.3692.237-.2364.37-.557.37-.8913s-.133-.6549-.37-.8913c-.236-.2364-.557-.3692-.891-.3692s-.655.1328-.891.3692c-.237.2364-.369.557-.369.8913s.132.6549.369.8913c.236.2364.557.3692.891.3692zm2.773-2.6648c-.356 0-.697.1413-.948.3928-.252.2515-.393.5926-.393.9483s.141.6968.393.9483c.251.2515.592.3928.948.3928s.697-.1413.948-.3928c.252-.2515.393-.5926.393-.9483s-.141-.6968-.393-.9483c-.251-.2515-.592-.3928-.948-.3928zm16.623 35.0571c-.16-.0033-.318.0252-.466.0839-.148.0586-.283.1462-.396.2576-.114.1114-.204.2444-.266.3912-.062.147-.094.304-.094.464 0 .159.032.316.094.463.061.147.152.28.265.391.114.112.249.2.397.258.148.059.306.088.465.084.313-.006.611-.135.831-.358.219-.224.342-.525.342-.838s-.123-.6138-.342-.8376c-.219-.2237-.517-.3527-.83-.3591zm1.068 4.9137c.298 0 .584-.119.795-.329.211-.211.329-.497.329-.795s-.118-.584-.329-.795c-.21-.211-.496-.329-.794-.329-.299 0-.585.118-.796.329-.21.211-.329.497-.329.795s.118.584.329.795.497.329.795.329zm2.772 1.283c0-.278-.111-.546-.308-.743s-.464-.307-.743-.307c-.278 0-.545.11-.742.307s-.308.465-.308.743c0 .279.111.546.308.743s.464.308.742.308c.279 0 .546-.111.743-.308s.308-.464.308-.743zm-.555 1.97c-.259 0-.508.103-.691.287-.183.183-.286.432-.286.692.001.259.104.507.287.691.184.183.432.286.692.286.128-.001.255-.026.374-.075.118-.049.226-.122.317-.212.091-.091.163-.199.212-.318.049-.118.074-.246.074-.374s-.026-.255-.075-.374-.121-.226-.212-.317-.199-.163-.317-.212c-.119-.049-.246-.074-.375-.074zm-21.318-12.4539c-.132 0-.263.0261-.385.0768-.123.0507-.234.125-.327.2185-.094.0936-.168.2047-.218.327-.051.1222-.077.2532-.077.3855s.026.2633.077.3854c.051.1222.125.2332.219.3267.093.0935.204.1677.327.2183.122.0505.253.0765.385.0764.267-.0001.523-.1063.712-.2954.189-.189.295-.4452.295-.7124s-.106-.5233-.295-.7122c-.189-.1888-.446-.2948-.713-.2946zm-2.564 1.5457c.277-.0001.542-.11.738-.3056.195-.1956.305-.4608.305-.7374 0-.2765-.11-.5417-.306-.7372-.195-.1955-.461-.3053-.737-.3052-.277 0-.542.1099-.738.3055-.195.1956-.305.4608-.305.7375 0 .2766.11.5418.305.7374.196.1956.461.3055.738.3055zm-2.626.005c.286 0 .56-.1135.762-.3156.202-.202.316-.476.316-.7617s-.114-.5597-.316-.7618c-.202-.202-.476-.3155-.762-.3155-.28.0085-.545.1257-.741.3268-.195.2011-.304.4703-.304.7505s.109.5493.304.7504c.196.2011.461.3184.741.3269zm-2.618.0189c.215-.0002.425-.0642.604-.1838.178-.1196.317-.2895.4-.4882.082-.1987.103-.4173.061-.6282-.042-.2108-.146-.4045-.298-.5564s-.346-.2553-.557-.2971c-.211-.0419-.429-.0202-.628.0622s-.368.2218-.488.4007c-.119.1788-.183.389-.183.604 0 .6004.487 1.0868 1.089 1.0868zm-2.614-.0712c.143.0001.284-.028.416-.0826s.252-.1347.353-.2356c.102-.101.182-.2209.236-.3528.055-.132.083-.2734.083-.4162 0-.1429-.028-.2843-.082-.4163-.055-.132-.135-.252-.236-.353-.101-.1011-.221-.1813-.353-.236s-.273-.0829-.416-.083c-.288-.0001-.565.1144-.769.3183s-.319.4805-.319.769c0 .2884.114.5652.318.7693.204.204.481.3188.769.3189zm-.84-2.7216c0-.1428-.028-.2843-.083-.4163-.054-.132-.134-.2519-.235-.353-.101-.101-.221-.1812-.353-.2359-.132-.0548-.274-.083-.416-.083-.143-.0001-.285.028-.417.0826s-.252.1346-.353.2356-.181.2208-.236.3528c-.054.1319-.083.2734-.083.4162 0 .2885.115.5652.319.7693s.48.3188.769.3189c.288.0002.565-.1143.769-.3182s.319-.4805.319-.769zm3.248-11.0611c.279 0 .547-.111.745-.3086.197-.1976.308-.4656.308-.745 0-.2795-.111-.5475-.308-.7451-.198-.1976-.466-.3086-.745-.3086-.28 0-.548.111-.745.3086-.198.1976-.309.4656-.309.7451 0 .2794.111.5474.309.745.197.1976.465.3086.745.3086zm.011-3.4489c-.003.1384.022.276.073.4047.05.1287.126.246.223.3449.097.099.213.1776.34.2313.128.0536.265.0813.403.0813.139 0 .276-.0277.403-.0813.128-.0537.243-.1323.34-.2313.097-.0989.173-.2162.224-.3449s.076-.2663.072-.4047c-.005-.2717-.118-.5302-.312-.7203-.194-.19-.455-.2964-.727-.2964-.271 0-.532.1064-.727.2964-.194.1901-.306.4486-.312.7203zm1.053-2.3965c0 .2753.109.5392.304.7338.097.0964.211.1728.337.225.126.0521.261.0789.397.0789.136-.0001.271-.0269.397-.0791s.241-.1287.337-.2251.173-.2109.225-.3368.079-.2609.079-.3972c0-.2753-.11-.5393-.304-.7339-.195-.1946-.459-.3039-.734-.3038-.276 0-.54.1094-.734.3041-.195.1948-.304.4588-.304.7341zm1.037-2.396c0 .138.027.2746.08.4021s.13.2433.228.3408.214.1749.341.2276c.128.0528.264.0799.402.0799.138-.0001.275-.0274.402-.0802.128-.0529.244-.1304.341-.228.098-.0976.175-.2135.228-.341.053-.1276.08-.2642.08-.4022 0-.2788-.111-.546-.308-.743-.198-.197-.465-.3076-.744-.3074-.278.0001-.546.1109-.743.3081s-.307.4645-.307.7433zm1.037-2.3966c0 .2824.113.5532.312.7528.2.1997.471.3118.753.3118s.553-.1121.753-.3118c.199-.1996.312-.4704.312-.7528 0-.2823-.113-.5531-.312-.7527-.2-.1997-.471-.3119-.753-.3119s-.553.1122-.753.3119c-.199.1996-.312.4704-.312.7527zm1.178-2.3248c0 .1416.028.2818.082.4126s.134.2497.234.3498.219.1795.35.2337c.13.0541.271.082.412.0819.142 0 .282-.0279.413-.0821.131-.0543.25-.1337.35-.2339.1-.1001.179-.219.233-.3498.054-.1309.082-.2711.082-.4127 0-.286-.113-.5602-.316-.7625-.202-.2022-.476-.3158-.762-.3158s-.56.1136-.762.3158c-.203.2023-.316.477-.316.763zm4.468-1.1923c0-.6218-.504-1.1246-1.125-1.1246s-1.125.5028-1.125 1.1246c0 .2984.119.5846.33.7956s.497.3295.795.3295c.299 0 .585-.1185.796-.3295s.329-.4972.329-.7956zm2.578.6676c0-.3258-.129-.6382-.359-.8686-.231-.2304-.543-.3598-.869-.3598s-.638.1294-.869.3598c-.23.2304-.359.5428-.359.8686s.129.6382.359.8686c.231.2304.543.3598.869.3598s.638-.1294.869-.3598c.23-.2304.359-.5428.359-.8686zm14.725 37.9047c0 .28.111.549.309.747s.466.309.746.309.549-.111.747-.309.309-.467.309-.747-.111-.548-.309-.746-.467-.309-.747-.309-.548.111-.746.309-.309.466-.309.746zm-13.515-7.208c.114 0 .227-.0225.332-.0662.106-.0437.201-.1078.282-.1885s.145-.1765.188-.2819c.044-.1055.066-.2185.066-.3326s-.022-.2271-.066-.3325-.108-.2012-.188-.2819c-.081-.0806-.177-.1446-.282-.1882-.106-.0437-.219-.0661-.333-.0661-.23 0-.451.0915-.614.2544-.163.163-.255.3839-.255.6143s.092.4514.255.6143.384.2544.614.2544zm-1.03-3.9139c-.223 0-.437.0887-.595.2464-.158.1578-.246.3718-.246.5949 0 .2232.088.4372.246.595.158.1577.372.2464.595.2464s.437-.0887.595-.2464c.158-.1578.246-.3718.246-.595 0-.2231-.088-.4371-.246-.5949-.158-.1577-.372-.2464-.595-.2464zm-1.616-1.7882c-.107 0-.212.0211-.311.0619-.099.0409-.188.1008-.264.1763-.075.0754-.135.1651-.176.2637s-.062.2043-.062.3111.021.2125.062.3111.101.1882.176.2637c.076.0755.165.1354.264.1763.099.0408.204.0618.311.0618.216 0 .423-.0856.575-.2381.153-.1524.238-.3592.238-.5748s-.085-.4224-.238-.5748c-.152-.1525-.359-.2382-.575-.2382zm-2.066.3177c.209 0 .408-.0828.556-.2301.147-.1473.23-.3472.23-.5555s-.083-.4082-.23-.5555c-.148-.1473-.347-.2301-.556-.2301-.208 0-.408.0828-.555.2301-.148.1473-.23.3472-.23.5555s.082.4082.23.5555c.147.1473.347.2301.555.2301zm-2.347-.6377c.207 0 .405-.0822.551-.2285.147-.1462.229-.3446.229-.5514s-.082-.4052-.229-.5514c-.146-.1463-.344-.2284-.551-.2284s-.405.0821-.551.2284c-.147.1462-.229.3446-.229.5514s.082.4052.229.5514c.146.1463.344.2285.551.2285zm-3.221-.8304c0 .1027.02.2044.06.2992.039.0949.097.1811.17.2537.072.0725.158.1301.253.1693.095.0393.197.0594.3.0594.102-.0001.204-.0204.299-.0598.095-.0393.181-.097.254-.1697.072-.0726.13-.1589.169-.2538s.059-.1966.059-.2993-.02-.2043-.059-.2992c-.04-.0948-.097-.181-.17-.2535-.073-.0726-.159-.1301-.254-.1693-.095-.0393-.196-.0594-.299-.0593-.103 0-.204.0203-.299.0597-.095.0393-.181.097-.254.1696-.072.0726-.13.1589-.169.2538-.039.0948-.06.1965-.06.2992zm-1.658-.7706c-.103 0-.205.0203-.3.0597-.095.0395-.181.0972-.254.1701-.073.0728-.131.1593-.17.2544s-.059.1971-.059.3001c0 .1029.02.2049.059.3.04.0951.098.1815.17.2543.073.0728.16.1305.255.1699s.197.0596.3.0596c.208-.0001.407-.0829.554-.23s.23-.3466.229-.5546c0-.2079-.082-.4073-.23-.5542-.147-.147-.346-.2295-.554-.2293zm-1.34-.1091c.004-.1055-.014-.2108-.052-.3095-.038-.0986-.095-.1887-.168-.2647-.074-.0761-.161-.1365-.259-.1779-.097-.0413-.201-.0626-.307-.0626-.106-.0001-.21.0212-.308.0624-.097.0413-.185.1017-.258.1777-.074.076-.131.166-.169.2647-.038.0986-.055.2039-.051.3094.007.2037.093.3966.239.5381.147.1416.343.2207.546.2208.204 0 .4-.079.547-.2204.146-.1415.232-.3343.24-.538zm-1.462-2.3148c-.003.1051.016.2097.054.3076.039.0979.096.1871.17.2624.073.0752.161.1351.258.1759.097.0409.201.0619.306.0619s.209-.021.306-.0619c.097-.0408.185-.1007.258-.1759.074-.0753.131-.1645.17-.2624.038-.0979.056-.2025.054-.3076-.005-.2055-.091-.4009-.238-.5444-.147-.1436-.345-.2239-.55-.2239-.206 0-.403.0803-.55.2239-.147.1435-.233.3389-.238.5444zm2.577-2.2273c0-.2112-.084-.4138-.233-.5632s-.352-.2333-.563-.2333-.414.0839-.563.2333c-.15.1494-.234.352-.234.5632 0 .2113.084.4139.234.5632.149.1494.352.2333.563.2333s.414-.0839.563-.2333c.149-.1493.233-.3519.233-.5632zm.196-3.0506c-.218 0-.427.0866-.581.2408-.154.1543-.241.3634-.241.5816 0 .2181.087.4272.241.5815.154.1542.363.2409.581.2409.219 0 .428-.0867.582-.2409.154-.1543.241-.3634.241-.5815 0-.2182-.087-.4273-.241-.5816-.154-.1542-.363-.2408-.582-.2408zm1.84-1.4054c.003-.113-.017-.2253-.058-.3305-.042-.1051-.103-.2009-.182-.2818-.079-.0808-.174-.1451-.278-.1889s-.216-.0664-.329-.0664c-.113.0001-.225.0227-.329.0666s-.198.1082-.277.1891-.141.1767-.182.2819c-.042.1052-.061.2175-.059.3305.006.2211.097.4313.256.5857.158.1545.37.2409.592.2408.221-.0001.433-.0866.591-.2411.159-.1545.25-.3648.255-.5859zm.146-3.1004c-.228.0054-.444.0998-.604.2629-.159.1631-.248.382-.248.61s.089.4469.248.61c.16.1631.376.2575.604.2629.232 0 .454-.0919.618-.2556.163-.1638.255-.3858.255-.6173s-.092-.4536-.255-.6173c-.164-.1637-.386-.2556-.618-.2556zm.992-2.2527c-.117 0-.234.0232-.343.0683s-.208.1113-.291.1946c-.084.0834-.15.1823-.195.2912s-.068.2256-.068.3435.023.2346.068.3435.111.2078.195.2912c.083.0833.182.1494.291.1945s.226.0684.343.0684c.239 0 .467-.0946.635-.2629.168-.1684.263-.3967.263-.6347 0-.2381-.095-.4664-.263-.6347s-.396-.2629-.635-.2629zm1.917-1.3292c.003-.123-.019-.2454-.064-.3599s-.113-.2188-.199-.3069c-.086-.088-.188-.1579-.302-.2057-.113-.0478-.235-.0724-.358-.0724s-.245.0246-.358.0724c-.114.0478-.217.1177-.303.2057-.086.0881-.153.1924-.198.3069s-.067.2369-.064.3599c0 .245.097.4798.27.653s.408.2705.653.2705.48-.0973.653-.2705.27-.408.27-.653zm.07-3.1771c-.125.0001-.248.0247-.363.0725-.116.0477-.22.1177-.308.2059-.088.0881-.158.1928-.206.308-.047.1152-.072.2386-.072.3632 0 .1247.025.2481.073.3632.047.1151.117.2197.206.3078.088.0881.192.1579.308.2056.115.0476.238.0721.363.072.251-.0001.493-.1002.671-.2783s.277-.4196.277-.6713-.1-.493-.278-.6709-.42-.2778-.671-.2777zm2.106-1.1942c0-.2584-.103-.5062-.286-.6889s-.43-.2854-.689-.2854c-.258 0-.506.1027-.689.2854-.182.1827-.285.4305-.285.6889.006.2545.111.4966.293.6746.182.1779.426.2776.681.2776s.499-.0997.681-.2776c.182-.178.288-.4201.294-.6746zm2.303-.1688c0-.1334-.026-.2654-.078-.3886-.051-.1232-.125-.2351-.22-.3294-.094-.0942-.206-.169-.329-.2199-.124-.051-.256-.0772-.389-.0772-.133.0001-.265.0264-.389.0775-.123.0511-.235.126-.329.2203-.094.0944-.169.2064-.22.3296-.051.1233-.077.2553-.077.3887 0 .2693.107.5276.298.718.19.1903.449.2972.718.2971.269-.0002.528-.1073.718-.2978.19-.1906.297-.449.297-.7183zm17.328 37.4217c0 .18-.04.359-.118.522-.077.163-.19.307-.33.421-.14.115-.304.196-.479.24-.175.043-.358.047-.535.011-.177-.035-.344-.11-.489-.218s-.264-.247-.348-.407c-.085-.159-.133-.336-.141-.516-.008-.181.024-.361.094-.527-.203.118-.426.206-.678.206-.179 0-.356-.036-.521-.104-.166-.069-.316-.169-.442-.296-.127-.126-.227-.276-.296-.442-.068-.165-.103-.342-.103-.521 0-.239.078-.452.186-.647-.031.001-.057.017-.088.017-.385 0-.755-.153-1.027-.425s-.425-.642-.425-1.027c0-.292.108-.549.256-.776-.712-.134-1.262-.731-1.262-1.482 0-.265.084-.502.202-.719-.69-.188-1.207-.792-1.207-1.541 0-.244.062-.47.159-.678-.662-.23-1.145-.8403-1.145-1.581 0-.2365.05-.46.137-.6651-.32-.1262-.595-.3457-.789-.63s-.297-.6204-.298-.9645c0-.228.049-.4416.129-.6407-.319-.1333-.592-.3579-.784-.6458s-.294-.6261-.295-.9722c0-.2215.051-.4291.126-.6232-.32-.1385-.591-.3672-.782-.6579-.191-.2908-.293-.6311-.294-.979 0-.2165.053-.4181.123-.6093-.319-.1423-.59-.3736-.78-.6662s-.292-.634-.293-.9831c0-.2155.053-.4142.121-.6043-.623-.2953-1.062-.919-1.062-1.6558 0-.23.053-.4465.131-.6492-.598-.2952-1.019-.898-1.019-1.6094 0-.2589.058-.5028.156-.7253-.575-.2768-.979-.8533-.979-1.5333 0-.3002.097-.5681.232-.813-.293-.1124-.545-.3108-.723-.5691s-.273-.5644-.274-.8781c0-.3514.137-.6591.334-.9209-.621-.1424-1.094-.6721-1.094-1.3377 0-.4102.183-.7716.465-1.028-.327-.0025-.64-.1348-.87-.3679-.229-.2331-.357-.5478-.354-.8749.002-.3271.135-.6398.368-.8693.233-.2296.548-.3571.875-.3546.45 0 .827.2539 1.043.6143.067-.1812.168-.3415.295-.4829-.269-.0241-.526-.1249-.739-.2905-.213-.1655-.375-.3888-.465-.6434-.105.4964-.525.8762-1.053.8762-.608 0-1.099-.4914-1.099-1.0977s.492-1.0992 1.099-1.0992c.446 0 .826.2688.998.6502.054-.3764.244-.697.532-.9195-.044.005-.083.0264-.129.0264-.349-.0068-.681-.15-.925-.399-.244-.2489-.381-.5837-.381-.9325 0-.3487.137-.6835.381-.9324.244-.249.576-.3922.925-.399.144 0 .277.0403.407.0827-.14-.2275-.241-.4799-.241-.7667 0-.4102.167-.7801.433-1.0514-.108.0259-.212.0662-.329.0662-.377 0-.738-.1498-1.005-.4165s-.417-.6284-.417-1.0055c0-.3772.15-.7388.417-1.0055s.628-.4165 1.005-.4165c.32 0 .601.1249.839.3036 0-.0134-.008-.0249-.008-.0388.001-.4109.164-.8048.454-1.0953.291-.2905.685-.4538 1.096-.4539.06 0 .111.0274.169.0338-.103-.2087-.157-.4379-.16-.6705 0-.8767.712-1.5881 1.589-1.5881.054 0 .098.0249.15.0299-.075-.1841-.115-.3807-.117-.5795 0-.4216.168-.8259.466-1.124s.702-.4655 1.124-.4655c.089 0 .167.0363.254.0513-.025-.1086-.067-.2111-.067-.3276 0-.4156.165-.8141.459-1.108s.692-.459 1.108-.4592c.129 0 .246.0438.367.0742-.005-.0488-.029-.0916-.029-.1429 0-.2973.088-.588.253-.8352.165-.2473.4-.4399.675-.5537s.577-.1436.868-.0856c.292.058.56.2012.77.4115.21.2102.354.4781.412.7697.058.2917.028.594-.086.8687s-.306.5095-.554.6747c-.247.1652-.538.2534-.835.2534-.111 0-.21-.0399-.314-.0638.008.0673.039.126.039.1962 0 .2057-.04.4094-.119.5995s-.194.3628-.339.5082c-.146.1455-.319.2608-.509.3395-.19.0786-.394.1191-.599.1189-.083 0-.155-.0348-.234-.0478.026.115.069.2241.069.3475.001.4218-.167.8263-.465 1.1247-.298.2983-.702.4661-1.124.4664-.053 0-.098-.0249-.15-.0299.07.1787.117.3714.117.5765 0 .1299-.045.2449-.075.3664.125-.2844.329-.5263.589-.6964.259-.1701.563-.2609.873-.2614.101 0 .19.0398.286.0572-.004-.0448-.027-.0846-.027-.1314 0-.8603.697-1.5567 1.557-1.5567.156 0 .298.0463.44.0886.003-.3885.159-.76.435-1.0339.276-.2738.648-.4277 1.037-.4282.391 0 .766.1553 1.042.4317.276.2765.432.6514.432 1.0424 0 .3909-.156.7658-.432 1.0423-.276.2764-.651.4317-1.042.4317-.13 0-.246-.0428-.366-.0742 0 .0199.011.0364.011.0563 0 .8592-.697 1.5562-1.557 1.5562-.088 0-.165-.0364-.25-.0498.006.0572.034.1085.034.1683.001.2102-.041.4184-.121.6126-.081.1942-.199.3707-.347.5194-.149.1487-.325.2666-.519.3471-.195.0804-.403.1219-.613.1219-.057 0-.105-.0264-.16-.0324.031.1249.076.2449.076.3788 0 .6328-.372 1.1654-.901 1.4323.167-.0568.337-.1056.521-.1056.074 0 .136.0329.206.0414-.005-.0538-.031-.1011-.031-.1564 0-.4272.17-.8368.473-1.1388.302-.302.711-.4716 1.139-.4716.132 0 .249.0448.372.0747.01-.3986.176-.7775.461-1.0561s.668-.435 1.066-.4359c.204 0 .397.0438.575.1165.073-.7293.668-1.3058 1.416-1.3058.383 0 .751.1522 1.022.4233.271.271.423.6386.423 1.0219 0 .3832-.152.7508-.423 1.0219-.271.271-.639.4232-1.022.4232-.166 0-.32-.0428-.469-.095-.039.8154-.698 1.467-1.522 1.467-.103 0-.193-.0388-.29-.0587 0 .005.002.0085.002.0134 0 .2117-.041.4213-.122.6169s-.2.3734-.35.5231c-.149.1497-.327.2685-.523.3496-.195.0811-.405.1228-.616.1229-.063 0-.116-.0289-.178-.0349.008.0623.038.1185.038.1837 0 .6014-.339 1.1052-.82 1.3919.134-.0348.265-.0826.412-.0826.106 0 .197.0413.297.0597.007-.4128.176-.8065.47-1.0962s.69-.4524 1.103-.453c.184 0 .354.0463.518.1036.086-.7453.697-1.3332 1.466-1.3332.256 0 .485.0816.697.1941.1-.683.663-1.2156 1.374-1.2156.375 0 .735.1491 1.001.4146.265.2656.414.6257.414 1.0012s-.149.7356-.414 1.0011c-.266.2655-.626.4147-1.001.4147-.219 0-.421-.0593-.606-.1479-.084.7478-.695 1.3372-1.465 1.3372-.151 0-.288-.0448-.425-.0852-.056.819-.723 1.4746-1.558 1.4746-.077 0-.142-.0324-.215-.0438 0 .0139.008.0249.008.0373 0 .6422-.376 1.1819-.908 1.4596.155-.0497.311-.0975.482-.0975.159 0 .303.0478.448.0901.071-.7806.708-1.4009 1.507-1.4009.237 0 .454.0637.655.1593.122-.6845.693-1.2137 1.412-1.2137.308 0 .58.118.815.2818.122-.6422.66-1.1356 1.336-1.1356.368 0 .72.1461.98.4061s.407.6127.407.9804-.147.7203-.407.9803-.612.4061-.98.4061c-.275 0-.517-.1015-.733-.2389-.108.6989-.688 1.2455-1.418 1.2455-.205 0-.399-.0438-.575-.119-.11.7403-.721 1.3168-1.492 1.3168-.127 0-.24-.0438-.358-.0722-.042.8528-.734 1.5358-1.597 1.5358-.079 0-.145-.0339-.22-.0438-.016.4027-.176.7864-.45 1.0817.14.0065.27.0413.399.0797.121-.7403.735-1.3143 1.51-1.3143.212 0 .413.0438.597.1205.119-.7044.704-1.252 1.442-1.252.294 0 .553.1075.783.2539.139-.6417.683-1.1321 1.367-1.1321.362 0 .683.1464.935.3679.14-.5994.654-1.0554 1.297-1.0554.36 0 .705.1431.96.3976.254.2546.397.5999.397.96 0 .36-.143.7053-.397.9599-.255.2546-.6.3977-.96.3977-.332 0-.626-.133-.862-.3316-.13.6517-.679 1.1545-1.37 1.1545-.265 0-.5-.0926-.712-.2191-.129.693-.707 1.2271-1.438 1.2271-.183 0-.356-.0438-.518-.1055-.096.7696-.727 1.3735-1.521 1.3735-.127 0-.239-.0438-.357-.0727-.04.3933-.194.7532-.459 1.0171.219.001.428.0438.618.1234.159-.6591.727-1.1589 1.436-1.1589.273 0 .514.0911.735.219.132-.6631.689-1.1708 1.389-1.1708.351 0 .662.1398.913.3484.152-.5998.672-1.0529 1.32-1.0529.424 0 .791.2017 1.046.5028.141-.5814.641-1.023 1.266-1.023.352 0 .69.1399.939.389s.389.5869.389.9392-.14.6901-.389.9392-.587.389-.939.389c-.395 0-.741-.1802-.984-.454-.138.6203-.667 1.0947-1.329 1.0947-.325 0-.612-.1294-.849-.3181-.145.6457-.695 1.136-1.383 1.136-.246 0-.466-.0767-.669-.1852-.122.7079-.711 1.257-1.455 1.257-.174 0-.337-.0448-.493-.1-.032.2062-.105.404-.214.5819s-.252.3324-.422.4545c.076-.0109.145-.0448.224-.0448.282 0 .532.0946.76.2265.16-.6292.704-1.1046 1.383-1.1046.333 0 .626.1314.871.3201.144-.6203.674-1.0918 1.338-1.0918.415 0 .778.1892 1.035.4755.156-.5725.658-1.0046 1.281-1.0046.496 0 .912.2817 1.147.6805.126-.5855.622-1.033 1.245-1.033.173-.0048.346.0252.508.0883s.309.158.434.2791c.124.1211.223.2659.291.4259.067.16.102.3319.102.5055 0 .1737-.035.3456-.102.5055-.068.16-.167.3048-.291.4259-.125.1211-.272.216-.434.2791s-.335.0931-.508.0883c-.471 0-.865-.2638-1.093-.6392-.123.6203-.644 1.0967-1.299 1.0967-.185-.0007-.368-.0399-.537-.1149-.169-.0751-.321-.1844-.446-.3212-.154.6064-.679 1.0644-1.333 1.0644-.31 0-.581-.1205-.813-.2917-.137.6621-.695 1.1683-1.396 1.1683-.237 0-.452-.0696-.649-.1702-.145.7079-.742 1.2505-1.494 1.2505-.062 0-.116-.0284-.177-.0363.066.1628.095.343.106.5267.258-.4202.702-.7154 1.232-.7154.34 0 .639.1339.888.3276.154-.6064.678-1.0644 1.332-1.0644.396 0 .751.1678 1.005.4316.151-.5839.658-1.024 1.289-1.024.494 0 .906.2763 1.143.6701.136-.5815.633-1.024 1.255-1.024.593 0 1.076.4002 1.24.9404.075-.6268.587-1.1196 1.233-1.1196.335 0 .657.1331.894.3701s.37.5584.37.8936c0 .3351-.133.6566-.37.8936s-.559.3701-.894.3701c-.565 0-1.025-.3764-1.187-.8891-.076.6541-.612 1.1699-1.286 1.1699-.472 0-.867-.2639-1.099-.6382-.132.6093-.65 1.0753-1.299 1.0753-.178.0004-.354-.0344-.519-.1026-.164-.0682-.314-.1684-.439-.2947-.149.6138-.677 1.0793-1.336 1.0793-.308 0-.578-.12-.809-.2888-.145.6616-.706 1.1664-1.411 1.1664-.122 0-.232-.0408-.346-.0697.061.1638.105.3376.105.5227 0 .5078-.266.936-.649 1.2108.068-.01.13-.0399.201-.0399.192 0 .374.0399.541.1086-.04-.129-.081-.2604-.081-.4028 0-.1825.036-.3632.105-.5318.07-.1686.172-.3218.301-.4508.13-.129.283-.2314.451-.3012.169-.0698.35-.1057.532-.1056.404 0 .76.1777 1.014.453.14-.5929.648-1.0444 1.285-1.0444.482 0 .886.2673 1.123.6486.119-.5973.621-1.0578 1.255-1.0578.607 0 1.095.4231 1.24.9842.057-.6442.583-1.1555 1.242-1.1555.335 0 .656.1332.893.3702.237.2369.371.5584.371.8935 0 .3352-.134.6566-.371.8936s-.558.3702-.893.3702c-.585 0-1.055-.4053-1.199-.9444-.057.6681-.601 1.1973-1.283 1.1973-.462 0-.849-.2554-1.08-.6178-.117.6262-.64 1.1091-1.298 1.1091-.181-.0003-.361-.0376-.527-.1097-.167-.0721-.317-.1774-.441-.3095-.138.6233-.667 1.0982-1.331 1.0982-.182 0-.353-.0398-.513-.1035.045.1389.086.2788.086.4311 0 .3772-.149.739-.416 1.0057s-.629.4166-1.006.4166c-.356 0-.672-.1439-.921-.3589-.063.1523-.162.2812-.267.4052.428.0562.785.2902 1.012.6342.098-.2509.268-.4666.49-.6188.223-.1522.485-.2339.755-.2345.262 0 .494.0951.701.2265-.039-.1264-.079-.2529-.079-.3927 0-.1732.034-.3447.1-.5047.067-.1599.164-.3053.286-.4277.123-.1224.268-.2195.428-.2857s.332-.1002.505-.1002c.491 0 .901.2803 1.129.6781.089-.6203.602-1.1047 1.247-1.1047.603 0 1.085.4241 1.223.9857.004-.3299.14-.6445.376-.8746.236-.23.555-.3568.885-.3523.329.0045.644.1398.874.3763.23.2364.357.5546.352.8844 0 .1639-.032.3261-.094.4775-.063.1514-.155.2889-.271.4048-.115.1159-.253.2079-.404.2706-.152.0628-.314.0951-.478.0952-.584 0-1.051-.4102-1.187-.9509-.008.3333-.146.6504-.384.8836-.239.2332-.558.3642-.892.365-.473 0-.87-.2688-1.093-.6502-.086.6452-.616 1.1495-1.283 1.1495-.255 0-.479-.0916-.68-.2166.041.13.081.2629.081.4063 0 .3562-.141.6979-.393.9499-.252.2519-.594.3935-.95.3937-.453 0-.833-.239-1.077-.582-.072.2241-.199.4269-.369.5904.627 0 1.131.4317 1.291 1.0081.114-.5854.605-1.0354 1.223-1.0354.335 0 .634.1349.861.3464-.039-.1214-.077-.2439-.077-.3788 0-.2471.074-.4887.211-.6942s.332-.3656.561-.4602c.228-.0946.479-.1193.722-.0711.242.0482.465.1672.64.342.174.1747.293.3973.341.6397.049.2424.024.4937-.071.722-.094.2283-.254.4235-.46.5608-.205.1373-.447.2105-.694.2105-.314-.002-.615-.1232-.842-.339.041.1245.078.2524.078.3913 0 .1668-.033.3319-.096.4859-.064.1541-.158.294-.276.4119s-.258.2114-.412.2752c-.154.0637-.319.0965-.486.0965-.575 0-1.041-.3879-1.198-.9121-.077.4292-.337.7866-.716.9773.125-.0399.251-.0792.389-.0792.341 0 .669.1358.911.3775s.377.5695.377.9111c0 .342-.135.67-.377.912-.242.241-.57.377-.911.377-.269 0-.506-.101-.712-.242-.034.174-.097.342-.186.495.299.095.56.281.748.531.152-.495.595-.863 1.14-.863.315.01.615.141.834.367.22.226.343.529.343.845 0 .315-.123.618-.343.844-.219.226-.519.358-.834.367-.338 0-.643-.14-.863-.364-.038.212-.123.413-.246.589.458.104.843.399 1.023.823.081-.548.533-.974 1.101-.974.297.006.579.128.787.34.207.212.324.497.324.793 0 .297-.117.582-.324.794-.208.212-.49.334-.787.34-.443 0-.819-.263-1.005-.634-.015.234-.091.443-.204.634.012-.001.022-.007.034-.007.361 0 .708.143.963.399.255.255.399.601.399.963 0 .207-.055.4-.138.576.174-.096.365-.166.58-.166.323 0 .634.129.863.357.229.229.357.54.357.864zm-12.233-42.3432c.111-.0239.216-.0672.335-.0672.051 0 .095.0249.146.0299-.04-.1219-.066-.2483-.076-.3764-.107.1628-.245.3033-.405.4137zm5.857 18.8974c-.001 0-.001.0014-.002.0014h.002zm1.949 13.3466c-.134.0433-.271.0846-.419.0846-.208 0-.399-.0538-.576-.1374-.03.1449-.062.2847-.127.4137.187.0727.353.1792.5.3116.117-.2934.339-.5331.622-.673zm-1.379-2.2517c-.011 0-.02.0065-.031.0065-.166 0-.318-.0438-.466-.0941-.025.1324-.039.2678-.092.3878.105.0438.187.1225.28.1852.067-.182.173-.3475.309-.4854zm.51-5.4641c-.081.0125-.153.0473-.238.0473-.278 0-.524-.0946-.749-.226-.044.1045-.124.1862-.188.2798.285.0677.549.1867.749.3883.101-.1992.249-.3585.426-.4894zm-2.451-17.4004c-.049 0-.09-.0239-.138-.0278 0 .0114.006.0214.006.0328 0 .4326-.174.8165-.44 1.1166.079.005.151.0299.228.0463.022-.2657.112-.5214.26-.7434.148-.2219.349-.4028.586-.526-.161.0513-.324.1015-.502.1015zm-1.239-2.9894c-.052 0-.097-.0249-.148-.0298.012.0761.045.1438.045.2225 0 .1025-.04.1916-.058.2877.142-.2325.332-.4231.567-.5615-.133.0338-.262.0811-.406.0811zm-.728-3.1039c-.163.0548-.329.1026-.51.1026-.057 0-.105-.0274-.161-.0324.039.1384.086.2748.086.4261 0 .009-.005.0175-.005.0264.155-.219.348-.4012.59-.5227zm-1.785-2.8824c-.068 0-.126-.0318-.193-.0393.077.1702.117.3579.128.5541.287-.4501.767-.7652 1.34-.7652.062 0 .115.0284.175.0349-.029-.12-.074-.235-.074-.3654 0-.131.045-.249.075-.3699-.123.2821-.326.5221-.584.6909-.257.1689-.559.2591-.867.2599zm12.663 44.3341c-.144-.002-.286.023-.42.076-.133.053-.254.132-.357.232-.102.101-.184.221-.239.353s-.084.274-.084.418c0 .143.029.285.085.417.055.132.137.252.24.352.102.1.224.179.357.232.134.052.276.078.42.075.281-.007.549-.123.746-.325.197-.201.307-.472.307-.753-.001-.282-.111-.553-.308-.754-.198-.201-.466-.317-.747-.323z" fill="#fff"/></svg>