<svg fill="none" height="160" viewBox="0 0 432 160" width="432" xmlns="http://www.w3.org/2000/svg"><path d="m0 0h432v160h-432z" fill="#fff"/><path clip-rule="evenodd" d="m241.187 71.7654s7.18 3.9507 7.18 8.2102-7.18 8.2102-7.18 8.2102 3.503 7.4132 1 10.8587c-2.5 3.4425-10.623 2.4125-10.623 2.4125s-1.509 8.071-5.562 9.388c-4.044 1.314-10.005-4.297-10.005-4.297s-5.956 5.639-10.005 4.326c-4.054-1.314-5.562-9.387-5.562-9.387s-8.119 1.026-10.623-2.4131c-2.514-3.4515 1-10.8881 1-10.8881s-7.172-3.9507-7.18-8.2102c-.008-4.2681 7.18-8.2396 7.18-8.2396s-3.52-7.4406-1-10.8881c2.508-3.4329 10.623-2.3836 10.623-2.3836s1.509-8.0702 5.562-9.3873c4.044-1.3145 10.005 4.2963 10.005 4.2963s5.961-5.6094 10.005-4.2963c4.062 1.3188 5.562 9.4167 5.562 9.4167s8.123-1.0291 10.623 2.413c2.503 3.4455-1 10.8587-1 10.8587zm-33.1 19.0576v-21.7411c0-1.6578 1.817-2.6652 3.216-1.7628l17 10.8496c1.295.8394 1.295 2.7281 0 3.5466l-17 10.8704c-1.399.9024-3.216-.1049-3.216-1.7627z" fill="#e91e63" fill-rule="evenodd"/></svg>