<svg fill="none" height="160" viewBox="0 0 432 160" width="432" xmlns="http://www.w3.org/2000/svg" xmlns:xlink="http://www.w3.org/1999/xlink"><clipPath id="a"><path d="m0 0h432v160h-432z"/></clipPath><clipPath id="b"><path d="m184 45h64v67.2h-64z"/></clipPath><g clip-path="url(#a)"><path d="m0 0h432v160h-432z" fill="#2b2a2b"/><g clip-path="url(#b)"><path d="m223.325 46.5684-3.162 3.1625 4.525 4.5312 3.162-3.1687zm16.013 1.775-3.2 3.2 4.525 4.525 3.2-3.2zm-22.444 4.6625-23.687 23.6875c-8.109 8.1088-8.109 21.3037 0 29.4126 3.926 3.933 9.154 6.094 14.712 6.094s10.777-2.168 14.706-6.094l18.044-18.0376-4.525-4.5251-18.05 18.0377c-2.717 2.72-6.329 4.219-10.175 4.219s-7.464-1.499-10.187-4.219c-2.72-2.7203-4.213-6.3318-4.213-10.1814s1.496-7.4611 4.213-10.1811l23.687-23.6939zm16.069 1.7125-16.025 16.025 4.525 4.525 16.025-16.025zm9.575 6.425-3.2 3.2 4.525 4.525 3.2-3.2zm-6.4 6.4-16 15.9999 4.525 4.5251 16-16zm6.4 9.5999-3.2 3.2 4.525 4.5251 3.2-3.2zm-34.544 6.2563c-2.122 0-4.156.8429-5.657 2.3431-1.5 1.5004-2.343 3.5353-2.343 5.6569s.843 4.1565 2.343 5.657c1.501 1.5001 3.535 2.343 5.657 2.343 1.051 0 2.091-.207 3.062-.6089.97-.402 1.852-.9914 2.595-1.7341.743-.7431 1.332-1.625 1.734-2.5955.402-.9706.609-2.0109.609-3.0615 0-1.0505-.207-2.0909-.609-3.0614-.402-.9706-.991-1.8525-1.734-2.5955-.743-.7428-1.625-1.3322-2.595-1.7341-.971-.4019-2.011-.609-3.062-.609z" fill="#fff"/></g></g></svg>