<svg fill="none" height="160" viewBox="0 0 432 160" width="432" xmlns="http://www.w3.org/2000/svg"><path d="m0 0h432v160h-432z" fill="#fff"/><path d="m240.569 71.7392c-5.284-6.7694-11.742-11.5956-19.583-14.5348-3.025 1.7373-5.181 4.4743-5.867 5.5414.088.0149.164.0449.24.0599h.011c8.458 2.4711 14.41 6.5672 19.69 13.5275.434.6141.895 1.288 1.28 1.932.374.5991 3.082 4.9273 3.143 10.1466v-.0262c.252 6.2153-3.825 13.4114-10.641 15.7624-6.861 2.359-13.632-.554-16.329-4.107 9.125-1.2729 17.712-5.223 24.764-11.0451-.251-3.1264-1.409-5.8783-2.228-7.4995-1.105 1.097-2.816 2.4561-2.964 2.546-3.057 2.4372-6.425 4.4724-10.017 6.0543-3.543 1.5351-7.307 2.5572-11.308 3.0252h-.015c-4.271.7039-7.353.015-10.953-1.55-13.381-6.0992-10.569-25.4901 3.779-29.0171-3.559 8.2586-4.783 17.3084-3.543 26.194 1.981.5878 5.136 1.2168 7.502 1.127-.768-3.5795-1.014-7.2479-.732-10.8955.286-3.6131 1.059-7.1962 2.263-10.7644h.015c.601-1.955 1.409-3.8425 2.412-5.6311.015-.015.015-.03.015-.03.088-.161.164-.307.267-.4493 2.781-4.3057 6.058-5.9831 6.058-5.9831 2.512-1.461 5.401-2.1778 8.318-2.0642s5.738 1.0527 8.125 2.7044c2.402 1.639 4.273 3.9227 5.39 6.5784s1.432 5.5711.908 8.3982zm5.475 11.5843c0-.116-.491-1.9469-.876-3.014-.028-.0655-.04-.1367-.035-.2077.005-.0709.028-.1396.065-.2004 5.593-9.5476 2.557-22.7569-6.831-28.9272-9.125-6.5522-22.757-4.785-29.9 3.6992-.046.0541-.103.0978-.167.1282-.065.0303-.135.0467-.207.0478-1.085 0-3.048.1759-3.185.2171h.016c-26.175 3.4971-28.887 39.8114-1.905 44.8548.209.0235.41.0987.582.2197.172.12.31.282.401.469 8.32 15.168 30.94 15.127 39.276.236 3.315-5.5599 4.18-11.4382 2.766-17.5075z" fill="#f7565d"/></svg>