<svg fill="none" height="160" viewBox="0 0 432 160" width="432" xmlns="http://www.w3.org/2000/svg" xmlns:xlink="http://www.w3.org/1999/xlink"><clipPath id="a"><path d="m173 37h86v86h-86z"/></clipPath><path d="m0 0h432v160h-432z" fill="#fff"/><g clip-path="url(#a)"><path d="m216 123c23.748 0 43-19.252 43-43 0-23.7482-19.252-43-43-43s-43 19.2518-43 43c0 23.748 19.252 43 43 43z" fill="#fff"/><path d="m211.657 49.6698c0 .2859.058.5631.174.8315l.125.3776.32 1.3971c.031.2859.104.5329.219.7409.158.3693.289.7508.393 1.1447.433 1.643.877 3.2828 1.332 4.9194.218.7806.423 1.5461.617 2.2965.848 3.2875 1.69 6.5564 2.526 9.8066.195.756.398 1.5271.61 2.3132.44 1.6287.856 3.2757 1.247 4.9408.141.5972.301 1.217.482 1.8594.172.6178.343 1.236.512 1.8546.116.4241.283 1.097.5 2.019.16.6758.334 1.3479.523 2.0166l3.195 12.4881c.089.6781.249 1.3412.477 1.9902l.37 1.242c.01.035.028.068.051.097.023.028.052.052.084.069.033.018.068.029.105.032.037.004.073 0 .109-.011.848-.257 1.683-.626 2.506-1.106 2.061-1.2056 3.877-2.6691 5.447-4.3907.2-.2202.579-.676 1.136-1.3678.098-.0473.154-.1119.167-.1939.628-.8306 1.199-1.7027 1.713-2.6158.003-.0052.019-.0499.047-.1335.019-.0536.059-.0994.12-.1367l.554-1.0245c.913-1.6826 1.711-3.4185 2.396-5.2076.164-.4304.329-.9049.494-1.4234.153-.4804.326-.9573.519-1.4306.006-.0167.019-.0309.034-.0405.016-.0095.034-.0138.052-.0124.018.0015.035.0087.049.0206.013.0118.023.0277.026.0454.007.0326.005.079-.008.1394-.156.7659-.317 1.5246-.541 2.2929-.301 1.0307-.624 2.1012-.971 3.2113-.108.347-.203.6452-.287.8946-.596 1.4992-1.162 2.9585-1.698 4.3773-.463 1.2232-1.151 2.7924-2.066 4.7074-.321.6734-.686 1.3745-1.093 2.1025-1.092 1.95-2.095 3.643-3.397 5.527l-1.184 1.724c-.461.656-.761 1.062-.9 1.218-.644.73-1.27 1.475-1.877 2.237-.226.284-.51.508-.711.817-.005.009-.013.016-.022.021s-.019.007-.029.007c-.011.001-.021-.002-.03-.007-.009-.004-.017-.011-.023-.02-.299-.445-.507-.896-.624-1.354-.177-.701-.365-1.392-.565-2.073l-.13-.82c-.005-.03-.008-.03-.01 0l-.014.294-.067-.336c-.066-.451-.155-.894-.268-1.327-.54-2.084-1.084-4.166-1.633-6.247-.051-.198-.17-.6806-.355-1.4502-.116-.4842-.245-.9651-.387-1.4425-.143-.4873-.235-.8158-.276-.9851-.622-2.5332-1.268-5.0969-1.939-7.6911-.212-.8202-.405-1.5909-.578-2.3119-1.073-4.4589-2.203-8.9661-3.39-13.5219-.186-.7122-.363-1.3979-.531-2.057-1.08-4.2357-2.254-8.7886-3.52-13.6588-.003-.0123-.01-.0232-.02-.0309-.01-.0078-.021-.012-.034-.012l-3.553-.0226c-.047-.0008-.078.0215-.093.0667-.044.1287-.078.2704-.14.3907-.374.729-.736 1.4611-1.084 2.1965-.418.8826-.855 1.7128-1.258 2.5597-1.18 2.4839-2.394 4.9464-3.641 7.3874-.837 1.6017-1.424 2.7901-1.761 3.5651-.678 1.5628-1.386 3.0818-2.122 4.5573-.079.157-.157.3155-.233.4741-.186.3875-.382.8044-.587 1.2506-.201.4392-.402.8529-.603 1.2412-.558 1.08-.916 1.7903-1.073 2.131-.424.9219-.723 1.5318-.898 1.8296-.093.158-.167.3033-.223.4359-.084.1993-.153.3459-.206.4395-.131.2335-.254.4872-.369.7611-.028.0652-.069.1422-.124.2311-.045.0755-.087.1517-.125.2288-.504 1.0441-1.002 2.0817-1.492 3.1126-.013.0268-.019.0562-.016.0862.002.0294.012.0578.029.0825.016.0247.039.0442.066.0573s.056.0189.086.0168c.58-.0368 1.167-.0562 1.762-.0594 5.519-.0226 10.962-.0016 16.327.0615.006.0011.278-.0031.817-.0126.356-.0058.711.0142 1.065.0605.097.0126.257.0762.48.1908.842 1.5854 1.871 3.0683 3.085 4.4477-.126.1703-.238.2492-.336.2355-.287-.0394-.533-.0915-.832-.0678-.326.0268-.652.0315-.978.0131l-27.185.0726c-.01 0-.021-.0021-.03-.0074-.009-.0047-.017-.0121-.023-.021-.006-.0084-.009-.0184-.01-.0289s.001-.0211.005-.0305l.364-.8485c.228-.2213.353-.4888.374-.8027-.01.0358-.006.0332.013-.0084.008.0111.014.0237.019.0368.008.0226.016.0226.023 0l.13-.4026c.09-.2697.212-.5089.367-.717.644-1.1182 1.221-2.2662 1.731-3.4446.488-1.1292.986-2.2215 1.513-3.3173.519-1.076 1.07-2.2791 1.654-3.6091.086-.1962.188-.3697.307-.5206.151-.1906.256-.4114.316-.6623.032-.1382.14-.2537.188-.3895.024-.0706.05-.1385.08-.2036.514-1.1452 1.025-2.3002 1.532-3.465.794-1.6772 1.581-3.3666 2.358-5.0684-.004-.0126.002-.0214.019-.0261.015-.0056.026-.0156.032-.0299l.849-1.8807c.048-.0524.08-.1152.096-.1882l.985-2.1369c.213-.2605.362-.5519.444-.8743.284-.6186.579-1.2376.884-1.857.043-.0866.092-.1687.148-.2466.047-.0659.077-.1366.091-.212.013-.0731.038-.1465.077-.2204.472-.9267.914-1.8597 1.324-2.7991.723-1.3198 1.329-2.6872 1.945-4.0535.212-.4709.449-.9604.714-1.4686.328-.629.569-1.1173.724-1.4651.27-.6043.501-1.0899.693-1.4568.077-.1453.146-.2946.206-.4479.152-.3799.377-.7289.545-1.1053.411-.9243.815-1.8538 1.212-2.7885.076-.1786.065-.3597.044-.5491-.004-.0111.001-.0337.016-.0679 0-.0011.001-.0021.002-.0027.001-.0007.003-.0009.004-.0008.001.0002.002.0008.002.0017.001.0008.001.002 0 .003 0 .0111.003.0207.01.0286.006.0071.01.0059.01-.0036.012-.1072.065-.2227.187-.2346.709-.0723 1.479-.079 2.311-.0203.072.0056.13.0358.173.0905.157.2002.216.434.177.7016-.004.0231.005.039.027.0477.011.0047.019.0111.026.019.008.0104.015.0223.019.0358.106.3605.191.7155.255 1.0648z" fill="#000"/><g fill="#acacb4"><path d="m208.441 48.0068c.02.1894.032.3705-.044.5492-.398.9346-.802 1.8641-1.213 2.7884-.168.3764-.393.7254-.544 1.1054-.061.1533-.13.3025-.207.4478-.192.3669-.423.8525-.693 1.4568-.155.3478-.396.8362-.724 1.4651-.264.5082-.502.9978-.713 1.4687-.616 1.3662-1.223 2.7336-1.946 4.0534.045-.3176.16-.6754.346-1.0732.09-.1914.177-.3391.263-.4431.025-.031.042-.0659.049-.1049.021-.1199.056-.2298.104-.3299.262-.5511.515-1.0986.758-1.6425.233-.521.484-1.0697.754-1.6462.543-1.1594 1.093-2.3934 1.651-3.7021.288-.6725.743-1.6179 1.366-2.836.18-.3518.369-.7528.567-1.2031.027-.0619.102-.1799.226-.3538z"/><path d="m211.658 49.6699c.115.2526.173.5297.174.8314-.116-.2684-.174-.5455-.174-.8314z"/><path d="m212.498 53.0173c-.115-.2081-.188-.455-.219-.7409.131.2438.204.4907.219.7409z"/></g><path d="m243.116 67.9952-.557 5.6888-.21 1.5557c-.065.2064-.086.4216-.064.6456-.188 1.1379-.351 2.0035-.488 2.5966-.277 1.1952-.537 2.3934-.783 3.5949-.034.1596-.097.3371-.173.4812-.084.1604-.24.2398-.467.2382-3.689-.0175-7.404-.0333-11.145-.0476-.34-.0016-.704-.0091-1.093-.0226-.041-.0016-.08-.0191-.108-.0488s-.043-.0691-.042-.1097c.035-1.2046.057-2.3001.066-3.2863.033-3.417.059-6.8383.081-10.264.012-1.9527-.017-3.9463-.087-5.9807 0-.015.005-.0296.015-.0408.011-.0111.025-.0178.04-.0188.106-.0055.212-.0087.315-.0095 3.644-.0381 8.24-.0512 13.788-.0393.307.0008.612.0199.915.0572.039.0055.059.0277.06.0666.036 1.6525.015 3.3003-.063 4.9433z" fill="#020203"/><path d="m199.833 66.6768c-.083.3224-.231.6138-.444.8743.099-.3137.247-.6051.444-.8743z" fill="#acacb4"/><path d="m243.118 67.9941c.015.2772.014.5519-.002.8243-.015.2525-.028.511-.041.7754-.02.4058-.05.8564-.089 1.3519-.046.5678-.114 1.082-.202 1.5426-.016.0826-.029.1648-.04.2466-.012.0818-.028.1639-.052.2465-.031.1088-.051.2247-.062.3478-.01.1167-.033.2347-.069.3538z" fill="#acacb4"/><path d="m196.927 69.651c-.125.2372-.208.4395-.185.4518s.144-.1701.27-.4072c.125-.2373.208-.4395.185-.4518s-.144.17-.27.4072z" fill="#f0ece0"/><path d="m198.403 69.6886c-.016.0731-.047.1358-.095.1882-.025-.112-.008-.2084.049-.2894.019-.0271.038-.0267.056.0011.013.0199.01.0533-.01.1001z" fill="#acacb4"/><path d="m201.942 69.8809c.034.0849.029.1766-.017.2751-.016.0357-.021.0731-.013.112.053.2382.133.4554.238.6515 1.17 2.1679 2.293 4.2623 3.368 6.2832.328.6171.668 1.2464 1.022 1.888.724 1.3174 1.41 2.7098 2.114 4.001.627 1.1483 1.248 2.3513 1.856 3.4543.746 1.354 1.49 2.7127 2.232 4.0759-.223-.1141-.383-.1777-.48-.1903-.353-.0463-.708-.0662-1.065-.061-.538.0095-.811.0142-.817.0132-5.365-.0636-10.807-.0841-16.327-.0621-.595.0032-1.182.0232-1.762.06-.029.0021-.059-.0037-.086-.0169-.026-.0131-.049-.0326-.066-.0573s-.027-.0531-.029-.083c-.002-.0295.003-.0589.016-.0862.491-1.0306.988-2.068 1.492-3.1123.038-.077.08-.1532.125-.2286.055-.089.096-.166.124-.2311.115-.274.239-.5277.369-.7611.054-.0938.122-.2403.207-.4396.055-.1326.129-.2779.222-.436.175-.2977.474-.9076.898-1.8295.158-.3407.515-1.051 1.074-2.131.201-.3883.401-.802.602-1.2411.205-.4463.401-.8632.588-1.2507.076-.1587.153-.317.232-.4741.737-1.4754 1.444-2.9945 2.122-4.5573.337-.775.924-1.9634 1.761-3.565z" fill="#000"/></g></svg>