<svg fill="none" height="160" viewBox="0 0 432 160" width="432" xmlns="http://www.w3.org/2000/svg" xmlns:xlink="http://www.w3.org/1999/xlink"><clipPath id="a"><path d="m182 50.3193h68v59.2386h-68z"/></clipPath><path d="m0 0h432v160h-432z" fill="#242429"/><g clip-path="url(#a)" fill="#e55543"><path d="m194.75 51.3814c0-.159.036-.3159.105-.4592.068-.1434.168-.2695.292-.369s.269-.1699.424-.2061c.155-.0361.316-.037.471-.0027l53.125 11.7789c.236.0522.447.1835.599.372.151.1886.234.4231.234.665v8.2599c0 .159-.036.3159-.105.4592-.068.1434-.168.2694-.292.369-.124.0995-.269.1699-.424.206-.155.0362-.316.0371-.471.0028l-53.125-11.7789c-.236-.0522-.447-.1835-.599-.372-.151-.1886-.234-.4232-.234-.665z" opacity=".5"/><path d="m182 77.6649c0-.2639.098-.5185.275-.7141s.421-.3183.683-.3442l53.125-5.185c.148-.0145.297.002.437.0484.141.0465.271.1219.381.2213.109.0995.197.2208.257.3563.061.1354.092.2819.092.4301v8.1388c0 .2639-.098.5185-.275.7141s-.421.3183-.683.3441l-53.125 5.185c-.148.0146-.297-.0019-.438-.0484-.14-.0464-.27-.1218-.38-.2213-.109-.0994-.197-.2208-.257-.3562-.061-.1354-.092-.282-.092-.4302z" opacity=".75"/><path d="m247.875 89.3701c0-.2818-.112-.552-.311-.7513-.199-.1992-.47-.3112-.752-.3112h-53.124c-.282 0-.553.112-.752.3112-.199.1993-.311.4695-.311.7513v19.1249c0 .282.112.552.311.751.199.2.47.312.752.312h53.124c.282 0 .553-.112.752-.312.199-.199.311-.469.311-.751z"/></g></svg>