<svg fill="none" height="160" viewBox="0 0 432 160" width="432" xmlns="http://www.w3.org/2000/svg" xmlns:xlink="http://www.w3.org/1999/xlink"><linearGradient id="a" gradientUnits="userSpaceOnUse" x1="184" x2="215.993" y1="86.2781" y2="86.2781"><stop offset="0" stop-color="#00a0f5"/><stop offset="1" stop-color="#4f3ce4" stop-opacity="0"/></linearGradient><linearGradient id="b" gradientUnits="userSpaceOnUse" x1="220.734" x2="221.173" y1="28.4604" y2="112"><stop offset="0" stop-color="#44def8"/><stop offset=".505208" stop-color="#5836c7"/><stop offset="1" stop-color="#432cb6"/></linearGradient><linearGradient id="c" gradientUnits="userSpaceOnUse" x1="221.17" x2="220.731" y1="80.0049" y2="39.1249"><stop offset="0" stop-color="#41d4ee" stop-opacity="0"/><stop offset="1" stop-color="#40dbf0"/></linearGradient><linearGradient id="d" gradientUnits="userSpaceOnUse" x1="207.822" x2="207.822" y1="80" y2="95.6774"><stop offset="0" stop-color="#276eec" stop-opacity="0"/><stop offset="1" stop-color="#fff"/></linearGradient><linearGradient id="e" gradientUnits="userSpaceOnUse" x1="184" x2="215.993" y1="73.4871" y2="73.4871"><stop offset="0" stop-color="#00a0f5"/><stop offset="1" stop-opacity="0"/></linearGradient><path d="m0 0h432v160h-432z" fill="#fff"/><path d="m193.249 92.7912c-5.108 0-9.249-2.9305-9.249-6.5454 0-2.9308 2.722-5.4117 6.475-6.2458h25.898c-4.581 7.6406-13.221 12.7912-23.124 12.7912z" fill="url(#a)"/><path d="m193.174 64.3808c0-9.0404 7.163-16.3691 15.999-16.3691 17.129 0 32.073 12.8806 39.997 31.9889h.002c-7.924 19.1143-22.869 31.9994-39.999 31.9994-8.836 0-15.999-7.331-15.999-16.3746 0-7.332 4.708-13.5383 11.199-15.6248-6.49-2.0859-11.199-8.2902-11.199-15.6198z" fill="url(#b)"/><path d="m209.17 48c-8.837 0-16 7.3324-16 16.3773 0 7.3332 4.708 13.5407 11.2 15.6276h44.799c-7.925-19.1178-22.869-32.0049-39.999-32.0049z" fill="url(#c)"/><path d="m216.175 95.6774c-4.613 0-8.353-3.5917-8.353-8.0223 0-3.5921 2.458-6.6329 5.847-7.6551h23.387c-4.137 9.3647-11.939 15.6774-20.881 15.6774z" fill="url(#d)" fill-opacity=".7"/><path clip-rule="evenodd" d="m231.918 73.6817c1.812 0 3.28-1.4685 3.28-3.2798s-1.468-3.2798-3.28-3.2798c-1.811 0-3.279 1.4685-3.279 3.2798s1.468 3.2798 3.279 3.2798z" fill="#fff" fill-rule="evenodd"/><path d="m193.249 67.209c-5.108 0-9.249 2.9304-9.249 6.5454 0 2.9308 2.722 5.4117 6.475 6.2458h25.898c-4.581-7.6407-13.221-12.7912-23.124-12.7912z" fill="url(#e)"/></svg>