<svg fill="none" height="160" viewBox="0 0 432 160" width="432" xmlns="http://www.w3.org/2000/svg"><path d="m0 0h432v160h-432z" fill="#9146ff"/><g fill="#fff"><path d="m216 96.3082c-4.518 0-8.728-2.5158-10.924-6.4512-.195-.3485-.041-.7821.319-.9536l2.545-1.212c.358-.1701.782-.0179.984.3226 1.485 2.5141 4.134 4.061 7.076 4.061 2.94 0 5.607-1.5256 7.078-4.0522.2-.3441.628-.4997.987-.3284l2.539 1.209c.361.1715.514.6051.32.9536-2.197 3.9354-6.406 6.4512-10.924 6.4512z"/><path clip-rule="evenodd" d="m247.418 77.91 2.814 1.5331c1.282.6864 1.968 2.128 1.716 3.5239l-2.54 14.3244c-.274 1.5103-1.487 2.6315-2.997 2.7686l-4.05.389c-.366.412-.755.801-1.144 1.167-3.318 3.158-7.712 5.355-12.746 6.659-3.844.984-8.055 1.465-12.471 1.465-.572 0-1.167 0-1.739-.023-5.789-.16-11.167-1.19-15.743-3.135-3.41-1.442-6.362-3.41-8.696-5.927l-4.302-.526c-1.464-.1832-2.654-1.2815-2.906-2.7461l-2.562-14.3931c-.252-1.4187.434-2.8603 1.716-3.5467l2.814-1.5331c1.488-7.1624 5.355-13.4551 10.732-18.0316 1.739-1.4644 3.616-2.7459 5.629-3.8214v-1.7848c0-1.4874 4.623-2.7688 10.938-3.1578 1.327-.0686 2.7-.1144 4.119-.1144 4.027 0 7.689.3432 10.389.9153 2.883.5949 4.668 1.4416 4.668 2.3798v1.7848c2.997 1.6018 5.698 3.6384 8.031 6.0639 4.142 4.279 7.094 9.7023 8.33 15.7662zm-49.541 19.4044c4.211 2.9976 10.481 4.5766 18.123 4.5766 7.643 0 13.913-1.579 18.169-4.5766 4.096-2.929 6.087-7.1395 6.087-12.9287 0-13.3634-10.869-24.2326-24.233-24.2326-13.363 0-24.232 10.8692-24.232 24.2326 0 5.7892 1.99 10.0226 6.086 12.9287z" fill-rule="evenodd"/></g></svg>