<svg fill="none" height="160" viewBox="0 0 432 160" width="432" xmlns="http://www.w3.org/2000/svg"><path d="m0 0h432v160h-432z" fill="#f5f5f5"/><g fill="#000"><path d="m205.329 48.6916c5.151-.3616 9.695 3.2229 10.357 8.1725.63 4.7017-2.587 9.2488-7.423 10.3134-1.21.2683-2.558.1925-3.841.3558-3.038.3565-5.864 1.7346-8.015 3.9083l-.023.0117-.03-.0029-.017-.0146-.009-.0263c0-.0175.003-.032.015-.0466.013-.0188.02-.0412.02-.0642-.032-4.4148-.042-8.8297-.029-13.2446.009-4.9 3.876-9.0008 8.995-9.3625z"/><path d="m205.868 89.6399c-6.554-.0525-11.253-6.5041-8.972-12.5416.64-1.6691 1.731-3.1279 3.15-4.2144 1.42-1.0864 3.113-1.7579 4.891-1.9398 1.12-.1167 2.465-.0875 3.544-.2858 5.542-1.0296 9.823-5.2675 10.69-10.6663.192-1.1958.09-2.625.373-3.8937 1.31-5.88 8.047-9.1788 13.705-6.5217 2.949 1.3883 4.93 4.0075 5.417 7.1371.099.6416.134 1.4379.099 2.3858-.642 17.0392-15.196 30.6804-32.897 30.5375zm8.257 2.7096c-.027-.0109-.049-.0317-.061-.0583-.003-.0056-.004-.0116-.003-.0175 0-.0059 0-.0117.006-.0175 0-.0059.005-.0088.008-.0117.005-.0042.011-.0072.018-.0088 6.723-1.54 12.55-4.6374 17.476-9.2895.088-.0817.17-.0759.243.0204.787 1.0412 1.615 2.1583 2.275 3.2258 2.691 4.3012 4.279 9.2003 4.622 14.2626.073 1.03.094 1.826.068 2.389-.245 4.973-4.405 8.983-9.655 9.012-4.643.029-8.726-3.141-9.607-7.574-.21-1.05-.146-2.503-.321-3.611-.548-3.4128-2.217-6.1748-5.002-8.2836-.021-.0154-.043-.0282-.067-.0379zm-9.826 19.3665c-3.947-.685-7.12-3.751-7.829-7.563-.115-.789-.164-1.586-.146-2.383v-12.6113c0-.0409.015-.0496.047-.0204 2.578 2.2925 5.291 3.6924 8.832 3.9258l.951.0292c4.611.1487 8.516 3.1704 9.418 7.5597 1.332 6.49-4.542 12.236-11.273 11.063z"/></g></svg>