<svg fill="none" height="160" viewBox="0 0 432 160" width="432" xmlns="http://www.w3.org/2000/svg" xmlns:xlink="http://www.w3.org/1999/xlink"><linearGradient id="a"><stop offset="0" stop-color="#9d21a4"/><stop offset=".52" stop-color="#f51c90"/><stop offset="1" stop-color="#9801ca"/></linearGradient><linearGradient id="b" gradientUnits="userSpaceOnUse" x1="218.014" x2="233.646" xlink:href="#a" y1="112.034" y2="112.034"/><linearGradient id="c"><stop offset="0" stop-color="#ff7300"/><stop offset=".681" stop-color="#ffb933"/><stop offset="1" stop-color="#ffdb4c"/></linearGradient><linearGradient id="d" gradientUnits="userSpaceOnUse" x1="223.186" x2="241.835" xlink:href="#c" y1="63.8251" y2="96.1496"/><linearGradient id="e"><stop offset="0" stop-color="#202646"/><stop offset=".349" stop-color="#0025c6"/><stop offset=".833" stop-color="#182948"/></linearGradient><radialGradient id="f" cx="0" cy="0" gradientTransform="matrix(11.7323 0 0 11.7241 219.663 72.1037)" gradientUnits="userSpaceOnUse" r="1" xlink:href="#e"/><linearGradient id="g" gradientUnits="userSpaceOnUse" x1="210.376" x2="221.562" y1="90.8153" y2="79.6211"><stop offset="0" stop-color="#f1d003"/><stop offset=".561" stop-color="#eb583f"/><stop offset=".923" stop-color="#e4d494"/></linearGradient><linearGradient id="h" gradientUnits="userSpaceOnUse" x1="228.223" x2="220.53" y1="82.0111" y2="74.3128"><stop offset="0" stop-color="#fbb03b"/><stop offset=".168" stop-color="#f3bc58"/><stop offset=".441" stop-color="#e8cd82"/><stop offset=".581" stop-color="#e4d492"/><stop offset="1" stop-color="#e4d494"/></linearGradient><linearGradient id="i" gradientUnits="userSpaceOnUse" x1="223.218" x2="223.218" y1="75.2508" y2="70.9297"><stop offset="0" stop-color="#c7b299"/><stop offset=".723" stop-color="#f89b23"/></linearGradient><radialGradient id="j" cx="0" cy="0" gradientTransform="matrix(11.7323 0 0 11.7241 219.666 72.1031)" gradientUnits="userSpaceOnUse" r="1" xlink:href="#e"/><linearGradient id="k" gradientUnits="userSpaceOnUse" x1="217.86" x2="236.497" y1="111.395" y2="111.395"><stop offset="0" stop-color="#9800ce"/><stop offset=".479" stop-color="#ff288b"/><stop offset="1" stop-color="#f84690"/></linearGradient><linearGradient id="l"><stop offset="0" stop-color="#f84690"/><stop offset=".52" stop-color="#ff288b"/><stop offset="1" stop-color="#9800ce"/></linearGradient><linearGradient id="m" gradientUnits="userSpaceOnUse" x1="217.83" x2="227.148" xlink:href="#l" y1="117.233" y2="117.233"/><linearGradient id="n" gradientUnits="userSpaceOnUse" x1="215.996" x2="215.996" y1="57.5566" y2="72.8481"><stop offset="0" stop-color="#ff7300"/><stop offset=".958" stop-color="#f7aa46"/><stop offset="1" stop-color="#f7ad49"/></linearGradient><linearGradient id="o" gradientUnits="userSpaceOnUse" x1="211.179" x2="221.462" xlink:href="#c" y1="95.0424" y2="95.0424"/><linearGradient id="p" gradientUnits="userSpaceOnUse" x1="211.181" x2="221.464" xlink:href="#c" y1="103.133" y2="103.133"/><radialGradient id="q" cx="0" cy="0" gradientTransform="matrix(9.15948 0 0 9.15309 212.658 73.002)" gradientUnits="userSpaceOnUse" r="1" xlink:href="#e"/><radialGradient id="r" cx="0" cy="0" gradientTransform="matrix(9.15948 0 0 9.1531 212.661 73.0014)" gradientUnits="userSpaceOnUse" r="1" xlink:href="#e"/><linearGradient id="s" gradientUnits="userSpaceOnUse" x1="204.848" x2="214.165" xlink:href="#l" y1="117.233" y2="117.233"/><linearGradient id="t" gradientUnits="userSpaceOnUse" x1="198.348" x2="213.98" xlink:href="#a" y1="112.034" y2="112.034"/><linearGradient id="u" gradientUnits="userSpaceOnUse" x1="203.04" x2="214.611" y1="70.644" y2="76.9777"><stop offset="0" stop-color="#f1d003"/><stop offset=".561" stop-color="#eb583f"/><stop offset=".923" stop-color="#848d73"/></linearGradient><linearGradient id="v" gradientUnits="userSpaceOnUse" x1="221.385" x2="210.27" y1="53.2574" y2="83.8152"><stop offset="0" stop-color="#f1d003"/><stop offset=".609" stop-color="#e65b42"/><stop offset="1" stop-color="#818e93"/></linearGradient><linearGradient id="w" gradientUnits="userSpaceOnUse" x1="195.499" x2="214.135" xlink:href="#l" y1="111.395" y2="111.395"/><linearGradient id="x"><stop offset="0" stop-color="#ff8f01"/><stop offset=".561" stop-color="#ff9800"/><stop offset="1" stop-color="#ffaf00"/></linearGradient><linearGradient id="y" gradientUnits="userSpaceOnUse" x1="207.391" x2="214.165" xlink:href="#x" y1="96.6765" y2="96.6765"/><linearGradient id="z" gradientUnits="userSpaceOnUse" x1="206.227" x2="225.765" xlink:href="#c" y1="89.5157" y2="89.5157"/><linearGradient id="A" gradientUnits="userSpaceOnUse" x1="204.325" x2="220.397" xlink:href="#x" y1="100.514" y2="100.514"/><linearGradient id="B" gradientUnits="userSpaceOnUse" x1="188.033" x2="196.924" y1="97.0806" y2="81.6703"><stop offset="0" stop-color="#009bb6"/><stop offset=".561" stop-color="#2d6db2"/><stop offset=".923" stop-color="#585ca4"/></linearGradient><clipPath id="C"><path d="m176 41h80v77.7143h-80z"/></clipPath><path d="m0 0h432v160h-432z" fill="#0b0f17"/><g clip-path="url(#C)"><path d="m222.805 110.751.25.514.009-.003c-.237.473-1.445 2.842-2.895 4.679-.692.876-1.438 1.631-2.16 2l-.151.108s-.01.007-.032.017c0 0-1.912.848-3.662 0l-.032-.017-.152-.108c-.721-.369-1.467-1.125-2.159-2-1.449-1.837-2.658-4.206-2.893-4.679l.008.003.249-.514.039-.021c.295.556.576 1.047.844 1.494.702 1.169 1.325 2.04 1.915 2.994.002.007.006.012.01.018.906 1.459 2.011 2.229 2.011 2.229s.555.537 1.497.627h.005c.152.014.315.016.489.002.172.014.335.011.488-.002h.006c.942-.09 1.496-.627 1.496-.627s1.105-.77 2.011-2.228l.012-.017c.588-.956 1.211-1.827 1.913-2.996.27-.448.55-.937.846-1.494z" fill="#fdfdfd"/><path d="m254.793 84.1123c.206.1623.449.2789.716.3337-.083 1.1735-.218 2.3427-.406 3.504l-.194-.0308c-.309 1.4137-.906 3.0285-1.6 4.608.805-2.7413 1.303-5.5636 1.484-8.4149z" fill="#dc01ff"/><path d="m254.907 87.9199.194.0297c-.501 3.1139-1.377 6.1558-2.608 9.0595-1.988 4.7039-4.872 8.9759-8.489 12.5809-1.854 1.855-3.887 3.521-6.069 4.976h-.002c-.825.36-1.534.622-2.089.701l.917-.839c7.884-4.996 13.854-12.749 16.542-21.8932l.001-.0046.001-.0034c.696-1.5794 1.294-3.1943 1.602-4.6069z" fill="#dc01ff"/><path d="m253.305 92.5352c-2.688 9.1428-8.657 16.8968-16.541 21.8948l3.057-2.798c1.049-.78 2.082-1.714 2.93-2.682 3.024-2.768 5.424-6.263 7.166-9.3154 2.14-3.7486 3.291-6.8309 3.385-7.0903 0-.0034.002-.0057.003-.0091z" fill="#ff8d02"/><path d="m253.3 92.5439c-.095.2583-1.243 3.3418-3.384 7.0903.187-.3224.288-.6869.295-1.0594.823-1.4309 2.062-3.6937 3.089-6.0309z" fill="#eaeaec"/><path d="m254.791 84.1119c-.182 2.8517-.681 5.6744-1.486 8.416v.0023l-.002.0046c0 .0034-.003.0057-.004.0091-1.028 2.3372-2.266 4.5989-3.089 6.0297.008-.3814-.083-.7585-.264-1.0944-.181-.3358-.446-.6191-.769-.8221 2.112-4.6855 3.199-9.768 3.189-14.9075.01-5.6565-1.308-11.2365-3.848-16.2902.361-.107.69-.3053.953-.576.263-.2706.452-.6044.548-.9692.094-.3421.102-.7018.025-1.048 3.126 5.6459 4.785 11.9857 4.826 18.4389" fill="#eaeaec"/><path d="m249.176 96.6592c.475.2971.814.7543.959 1.2994.055.2046.08.4114.075.6172-.294.5138-.596 1.0232-.906 1.5282l-.243.364c-.294.162-.622.254-.957.27-.336.017-.67-.044-.979-.176.143-.235.282-.472.421-.7108.082.0284.168.0487.254.0606l.083.0091c.215.0183.431-.0136.631-.0932.201-.0795.38-.2046.524-.3654.143-.1607.248-.3526.305-.5607.056-.208.064-.4264.022-.6378v-.0023c-.004-.0252-.01-.05-.017-.0743-.002-.0069-.002-.016-.006-.0229l-.023-.0754c-.018-.0547-.039-.1081-.064-.16l-.002-.008c-.025-.0531-.054-.1043-.087-.1531l-.002-.0012c-.016-.0263-.034-.0514-.053-.0754-.015-.0194-.028-.0377-.045-.0572-.012-.0143-.024-.0281-.037-.0411-.007-.0103-.016-.0183-.024-.0274-.014-.0158-.03-.0307-.046-.0446-.002-.0023-.003-.0057-.007-.0069l-.028-.0274c-.009-.0103-.021-.0171-.031-.0263-.021-.0178-.043-.0345-.065-.0503l-.001-.0011c.119-.248.236-.4983.349-.7497z" fill="#fdfdfd"/><path d="m249.304 100.103s.362-.5827.906-1.5278c-.009.3881-.12.7671-.321 1.099-.201.3318-.486.6048-.827.7928z" fill="#fdfdfd"/><path d="m249.916 99.6348c-1.742 3.0532-4.142 6.5472-7.166 9.3152 2.622-2.994 5.456-7.2 5.456-7.2l.856-1.282c.351-.192.649-.4767.854-.8332z" fill="#f05601"/><path d="m249.105 96.6159.072.0423c-.114.2515-.23.5029-.349.7509l-.003-.0034-.03-.0229-.03-.0194c-.022-.0153-.045-.0294-.068-.0423-.029-.016-.058-.032-.086-.0457-.054-.0277-.11-.0506-.168-.0686l-.042-.0126c-.037-.0161-.076-.0257-.116-.0285v-.8298c.287.04.567.1338.82.28z" fill="#fdfdfd"/><path d="m248.402 97.1953c.015.0034.029.0092.041.0137-.013-.005-.027-.0096-.041-.0137z" fill="#22245c"/><path d="m249.509 67.6061c-.307-.7256-.637-1.4411-.991-2.1452-.076.023-.154.0417-.233.056v30.8195c.288.0377.567.1325.821.2788l.072.0435c2.112-4.6855 3.199-9.768 3.188-14.9075 0-4.9063-.962-9.6663-2.857-14.1451z" fill="#202541"/><path d="m248.339 97.1786.048.0126.013.0034c.073.0191.144.0467.211.0823.029.0137.057.0297.086.0457.023.0114.046.0263.068.0411l.03.0206c.01.008.02.0137.029.0229.003 0 .003 0 .004.0022-.175.3669-.355.7303-.543 1.0915v-1.3349c.018.0018.036.0056.054.0114zm-.052 1.3211v.0892h-.047c.016-.0309.033-.0595.047-.0892z" fill="#22245c"/><path d="m248.283 96.2461v.0891l-.074-.008z" fill="#fefefe"/><path d="m248.286 95.9416c-.125-.1063-.32-.2743-.571-.5029v-29.64l.159-.2457h.012c.134 0 .27-.0114.4-.0354z" fill="#f1cf25"/><path d="m247.715 95.4395c.251.2262.446.3954.572.5017v.3062l-.074.08c-.166-.015-.333-.0116-.498.0103z" fill="#fefefe"/><path d="m248.285 97.1644-.054-.0091c.018.0016.037.0047.054.0091zm-.142 1.6057.126.256-.359.1737c.08-.1417.157-.2845.233-.4297zm.096-.1805c-.03.0601-.062.1199-.093.1794l-.088-.1794z" fill="#22245c"/><path d="m247.913 97.1401c.028-.0023.058-.0023.088-.0023.04-.0005.08.0014.121.0057l.034.0023c.017.0023.034.0034.05.0068.027.0035.054.008.08.0137v1.3349l-.045.0891h-.183l-.038-.0765-.159.0765h-.146v-1.4228c.019-.0046.039-.0092.059-.0114.007-.0023.014-.0023.02-.0023l.044-.0057c.025-.0045.05-.0072.075-.008z" fill="#22245c"/><path d="m248.02 98.5127.038.0766h-.197z" fill="#22245c"/><path d="m248 100.74c.377 0 .741-.097 1.062-.273l-.856 1.281s-2.834 4.206-5.456 7.201l-2.93 2.682c-2.186 1.628-4.444 2.595-5.254 1.854.069-.169.152-.384.246-.62h.001c2.792-1.689 5.344-3.747 7.587-6.117l.011-.011c.076-.079.151-.159.224-.239l.022-.023c1.689-1.813 3.188-3.795 4.472-5.914.274.117.571.179.871.179z" fill="#f05601"/><path d="m249.091 62.6456c.099.171.16.3612.18.5577.02.1966-.003.3951-.065.5824-.063.1873-.165.3591-.299.504-.135.1449-.298.2596-.48.3365l-.068.0263c-.018.0074-.037.0139-.057.0194l-.016.0057h-.003c-.049.016-.099.0283-.15.0366l-.062.0091-.042.0046c-.026.0044-.053.0063-.08.0057-.023.0023-.046.0023-.068.0023-.057-.0004-.113-.0042-.168-.0114-.021-.0023-.043-.0046-.064-.0092h-.006l-.048-.0103c-.014-.0022-.028-.0045-.041-.0091l-.021-.0046-.02-.0045c-.158-.0435-.306-.1139-.439-.208l-.009-.0069c-.009-.0045-.016-.0099-.023-.016l-.021-.016c-.07-.0504-.133-.11-.187-.1771-.014-.0143-.027-.0296-.039-.0458-.012-.0137-.023-.0274-.032-.0422-.032-.0428-.062-.0874-.089-.1338l-.035-.0662c-.026-.0516-.049-.1051-.068-.16-.007-.0149-.012-.0298-.016-.0435-.008-.0197-.014-.0399-.018-.0605l-.01-.0343c-.004-.0131-.007-.0265-.009-.04l-.007-.0332c-.011-.0425-.017-.0862-.019-.1303-.002-.0208-.004-.0418-.005-.0628l-.001-.0686c0-.0561.004-.1122.011-.168.001-.0148.002-.0286.005-.0434.004-.0408.012-.081.024-.12 0-.0012 0-.0023.003-.0034.002-.0138.006-.0298.011-.0423.003-.016.009-.032.015-.048.01-.033.021-.0654.034-.0972l.03-.0685c.025-.0554.055-.1086.089-.1589.031-.0533.068-.1031.11-.1486.009-.0103.017-.0217.027-.0308l.042-.0457c.021-.0213.042-.0419.064-.0618l.01-.008c.017-.0159.035-.0308.054-.0445.054-.0441.111-.0832.172-.1166.32-.1847.7-.2348 1.057-.1393.357.0956.662.3291.847.649z" fill="#1e205d"/><path d="m247.199 64.8229-.321.488c-.472-.2412-.842-.6439-1.042-1.1348-.133-.3308-.184-.6886-.15-1.0434.034-.3547.153-.6961.346-.9955.201-.3085.475-.5619.799-.7372.323-.1753.685-.2668 1.053-.2662.388.0016.769.1044 1.106.2985.336.194.616.4724.812.8078l.001.0023c.114.1977.197.4102.244.6262v.0023c.102.4586.054.9375-.136 1.3671-.19.4295-.511.7874-.919 1.0215-.335.1939-.715.2964-1.102.2971h-.014l.038-.0594zm-.573-.88c.014.0344.031.0676.051.0995.045.0791.098.1531.159.2205.05.0584.105.112.164.16l.023.0183.022.016c.01.0083.021.0159.032.0229l.053.0354c.039.0267.08.0504.123.0709l.054.0262c.068.0309.137.056.208.0755l.02.0046.021.0045.041.0103c.016.004.033.007.049.0092h.006c.077.0102.155.0166.233.0194h.069c.014-.0023.032-.0034.048-.0034l.03-.0035c.063-.005.124-.0154.184-.0308.023-.0058.047-.0115.07-.0195h.002c.006-.0023.012-.0022.018-.0057.019-.0055.038-.012.057-.0194.076-.0275.15-.0619.22-.1029.213-.1228.389-.2996.511-.5124.123-.2129.186-.4542.185-.6997-.001-.2454-.067-.4863-.191-.6981s-.301-.387-.515-.5081c-.242-.137-.519-.1985-.796-.1767-.278.0217-.542.1259-.759.299-.02.0137-.037.0286-.055.0435l-.009.008c-.038.033-.074.0689-.107.1074-.051.0549-.097.115-.137.1794l-.036.0572c-.058.0989-.103.205-.133.3154l-.011.0423v.0023l-.016.0685-.01.0526c-.008.0411-.012.0827-.013.1246-.003.0286-.003.0583-.003.0868l.002.0686.004.0629.007.0605c.002.0229.007.048.011.0697.003.0115.004.0229.007.0332.005.0251.011.05.019.0743.004.0206.01.0408.018.0605.019.0583.043.1152.07.1703z" fill="#fefcfd"/><path d="m247.712 65.5459c-.292-.0226-.577-.103-.837-.2366l.32-.488.712.6731-.037.0583c-.053 0-.106-.0023-.158-.0068z" fill="#fefcfd"/><path d="m247.715 65.5469c.052.0045.105.0068.159.0068l-.159.2457z" fill="#f1cf25"/><g fill="#fdfdfd"><path d="m247.715 96.5656c.088.008.176.016.264.0217l-.264.2914z"/><path d="m247.715 96.337c.165-.0213.332-.0244.498-.0091l-.233.2582c-.088-.0056-.176-.0133-.264-.0228z"/><path d="m247.838 97.1462-.043.0069c-.007 0-.014 0-.021.0023-.019.0034-.04.0057-.059.0114v-.288l.264-.2914.233-.2583.075.008v.8297h-.003c-.026-.0066-.051-.0112-.078-.0137-.067-.013-.136-.0183-.205-.016-.055-.0001-.109.003-.163.0091z"/></g><path d="m247.714 95.4411c-1.495-1.3577-4.906-4.8023-6.632-9.3257-.866-2.2743-1.496-4.6514-1.988-6.9451l8.62-13.3715z" fill="#202541"/><path d="m246.875 65.3096c.258.1325.543.2137.838.2365v.2515l-8.62 13.3714c-.148-.6853-.286-1.3726-.415-2.0617l7.957-11.4343z" fill="#00e9bf"/><path d="m247.715 96.3367c-.192.0252-.378.0754-.552.1463-4.853-.8994-7.965-6.7497-8.702-9.1726-.788-2.5828-1.855-6.2891-2.455-12.2788l-.006-.0572c-.525-5.1897-1.805-9.2023-2.129-10.1531 1.497.2411 2.566.2251 2.566.2251s.131.6263.937 4.5943c.4 1.9737.763 4.5989 1.304 7.4663l-1.088 1.5657 1.123 1.0857.38-.5897c.492 2.2926 1.123 4.672 1.988 6.944 1.726 4.5246 5.139 7.968 6.632 9.3257z" fill="#fefefe"/><path d="m247.16 96.4852c.175-.072.36-.1212.552-.1463v.2263c-.185-.02-.369-.0466-.552-.08z" fill="#fdfdfd"/><path d="m247.161 96.4854c.183.0342.366.0605.554.08v.3142l-.391.4309c-.028.016-.055.0309-.081.048-.08.0475-.153.1055-.218.1726-.131.1261-.235.2778-.306.4457v.0023l-.001.0023-.034.0365c-.277.0172-.558.0229-.84.0149.079-.3448.24-.6654.47-.9347.229-.2694.52-.4795.847-.6127z" fill="#fdfdfd"/><path d="m249.169 97.7667c.033.0489.062.1001.088.1531l.002.008.034.0766c.012.0274.023.0549.03.0834.009.0248.016.05.023.0755l.006.0228c.007.024.011.0503.017.0755l.015.0891c.023.176.011.3577-.035.5349l-.026.0868c-.03.0883-.068.1736-.114.2549-.129.2231-.317.4061-.543.5288-.226.1226-.482.1801-.739.166l-.04-.0023c-.051-.0025-.1-.0094-.149-.0205-.005 0-.006 0-.008-.0023l-.082-.0172-.012-.0034c-.021-.0055-.043-.012-.064-.0194-.008-.0012-.016-.0046-.023-.0069.123-.2148.245-.4308.363-.648l.359-.1737-.126-.2571c.032-.0599.064-.1201.095-.1806h.045v-.0891c.189-.36.37-.7235.544-1.0903h.003l.064.0514.029.0251c.012.0103.021.0172.03.0275.003.0021.006.0048.008.008.016.0137.03.0285.045.0434.008.0086.016.0178.024.0274.049.0543.094.1124.135.1737.002-.0022.002-.0034.002-.0011z" fill="#22245c"/><path d="m247.304 99.7372c.026.0155.053.03.08.0434l.005.0012c.051.0257.105.0479.16.0662-.138.24-.278.477-.421.712-.31-.132-.586-.334-.806-.5897l.777-.3771c.015.0137.031.0267.047.0388l.064.0469.022.0149zm.023-2.4274.391-.4309v.2857c-.017.0031-.034.0069-.051.0114l-.035.0103c-.022.0055-.044.012-.065.0195-.002 0-.004 0-.005.0022-.048.0159-.095.0346-.141.056-.016.0058-.032.0149-.048.0229-.013.0057-.028.0114-.039.0194z" fill="#fdfdfd"/><path d="m247.146 99.6342c-.017-.0124-.033-.0254-.048-.0389l.811-.3932c-.118.2172-.24.4332-.363.6481l-.077-.0286c-.03-.0119-.059-.0252-.087-.04-.027-.0131-.054-.0272-.08-.0423-.024-.0149-.049-.0286-.071-.0434-.007-.0044-.014-.0089-.021-.0137z" fill="#22245c"/><path d="m246.743 99.1338c.003.008.007.0148.012.0228.009.0214.02.042.032.0618.011.0228.024.0422.039.0617.048.0778.105.1502.169.216l.02.0228c.011.0111.022.0211.035.0297.016.0172.034.0332.051.0458l-.777.3782c-.125-.1465-.231-.3086-.314-.4822z" fill="#fdfdfd"/><path d="m246.892 100.444c.075.043.154.082.234.116-1.347 2.222-2.928 4.292-4.718 6.175l-.011.012c-2.449 2.495-6.901 4.371-6.901 4.371l.194-.498c.59-1.444 1.518-4.162 2.332-6.62l8.299-4.0293c.158.1833.348.3433.571.4733z" fill="#202541"/><path d="m246.84 99.3081c-.02-.0283-.038-.0581-.054-.0891l-.001-.0012c-.012-.0201-.023-.0407-.033-.0617l-.012-.0229 1.12-.5428h.196l.088.1794c-.077.1452-.154.2892-.233.4309l-.812.3931-.052-.0457c-.004-.0036-.008-.0074-.012-.0114-.008-.0057-.016-.0126-.023-.0206l-.02-.0206c-.056-.0583-.107-.1202-.152-.1874zm.482-1.9966-.603.6675c.008-.0219.018-.0433.028-.064l.044-.0823c.094-.1656.223-.309.377-.4206.023-.0194.049-.0354.074-.0526.026-.0176.053-.0336.08-.048z" fill="#22245c"/><path d="m246.676 98.9722c-.007-.0203-.013-.0409-.019-.0617l-.016-.0606c-.003-.0089-.005-.0181-.006-.0274l-.008-.0411-.008-.0457c-.003-.0149-.003-.0286-.006-.0435-.012-.0986-.013-.1982-.003-.2971l.001-.0149.005-.0411c.003-.0261.007-.0521.013-.0777.009-.0534.022-.1058.04-.1566.003-.0089.006-.0177.01-.0263l.009-.0274.005-.016c.007-.0195.015-.0386.024-.0572v-.0022l.605-.6675.007-.0034c.011-.008.026-.0137.04-.0206.034-.0185.069-.0346.105-.048.027-.0114.055-.0228.085-.0308l.003-.0012c.021-.0075.043-.0139.065-.0194l.036-.0103c.016-.0045.033-.0083.05-.0114v1.424h.147l-1.12.544c0-.0046-.002-.008-.003-.0114-.012-.0229-.021-.0446-.03-.0675-.012-.0259-.022-.0526-.031-.08z" fill="#22245c"/><path d="m245.846 98.0338c.282.008.561.0035.839-.0148l.034-.0366c-.01.0234-.02.0474-.027.072l-.009.0252-.009.0274c-.018.0509-.032.1033-.04.1566-.009.0396-.015.0797-.019.12l-.002.0148-.003.0572c-.005.0811-.003.16.008.24.001.0137.002.0274.005.0422l.008.0458c.002.0139.005.0276.008.0411l.006.0274c.008.0421.02.0834.035.1235.016.051.036.1007.06.1485l.004.0115-.733.3554c-.218-.4532-.276-.9668-.165-1.4572z" fill="#fdfdfd"/><path d="m246.515 63.6056c0 .0092.002.0218.006.032-.004-.0107-.006-.0218-.007-.0331z" fill="#1e205d"/><path d="m241.715 56.0527c1.738 1.7334 3.295 3.6379 4.65 5.6846-.128.12-.24.2548-.334.4l-17.7-8.496c-.277-.3079-.567-.6053-.867-.8914l-4.558-6.6903c6.643 1.2763 12.794 4.3882 17.758 8.9828.357.328.706.6652 1.051 1.0103z" fill="#1f2a48"/><path d="m246.007 99.4893c.082.1714.187.3337.314.4822l-8.3 4.0295.25-.755z" fill="#fdfdfd"/><path d="m243.779 55.1362c.891 1.064 3.406 4.1211 4.529 6.0388-.346-.0682-.703-.0528-1.042.045-.338.0978-.649.2752-.905.5173-1.623-2.4537-3.537-4.7017-5.701-6.6949 1.149-.112 2.27-.0262 3.12.0926z" fill="#986f09"/><path d="m228.331 53.6426 17.699 8.4937c-.104.16-.187.3349-.247.5154l-16.551-7.9428c-.286-.3612-.584-.7178-.901-1.0663zm17.356 9.9623c.023.192.071.3851.146.5714h-9.066c-.206-.1866-.408-.3771-.606-.5714z" fill="#f9b309"/><path d="m245.659 55.365-1.147-.1395c-2.818-3.0425-6.103-5.6168-9.731-7.6263l.62-.5142c3.153 1.7722 6.049 3.9687 8.605 6.528.572.5714 1.122 1.1542 1.653 1.752z" fill="#01ff94"/><path d="m255.603 81.013c-.065-5.0939-1.12-10.1265-3.108-14.8171-1.672-3.9593-3.982-7.618-6.837-10.8309l-1.148-.1394.034.0343c1.832 1.98 3.454 4.1447 4.84 6.4594.162.1486.303.3223.416.5189.114.1977.198.4114.245.6285l.001.0012c3.174 5.7331 4.836 12.1804 4.827 18.7337.001.8376-.026 1.675-.08 2.5108.206.1623.45.2789.716.3338.067-.9471.1-1.8963.099-2.8458 0-.1942-.001-.3908-.005-.5874z" fill="#ff7801"/><path d="m243.781 55.1359.729.0892.035.0342c-.217-.04-.476-.0834-.764-.1234z" fill="#e5e2e5"/><path d="m243.781 55.1359c.288.0389.547.0834.763.1257 1.831 1.9793 3.453 4.1433 4.838 6.4572-.3-.2765-.671-.4651-1.072-.5452-1.124-1.9165-3.637-4.9737-4.529-6.0377z" fill="#986f09"/><path d="m241.715 107.452c-2.074 2.077-4.391 3.895-6.903 5.415.229-.578.503-1.28.686-1.747 0 0 4.452-1.875 6.901-4.37-.224.237-.453.472-.684.702z" fill="#202541"/><path d="m239.822 111.632 2.929-2.682c-.881.993-1.862 1.892-2.929 2.682z" fill="#f05601"/><path d="m239.677 98.8781s-.622 1.9719-1.406 4.3659l-1.542.747c.701-2.343 1.117-4.4261 1.28-5.3221.956.1749 1.668.2092 1.668.2092z" fill="#ffe9b6"/><path d="m239.093 79.1682-.38.5885-1.123-1.0857 1.088-1.5646c.128.6766.265 1.3646.415 2.0618z" fill="#fefefe"/><path d="m236.728 103.994 1.543-.749-.25.757-1.525.74c.08-.252.159-.503.232-.748z" fill="#fdfdfd"/><path d="m235.133 97.7686c.206.096.41.1862.612.2697.763.3108 1.578.5085 2.266.6343-.334 1.7954-.761 3.5714-1.28 5.3224l-2.936 1.424c.59-2.863 1.154-6.4516 1.338-7.6504z" fill="#f6515b"/><path d="m236.765 64.1769h-.806v-.5714h.201c.257.2514.464.4423.606.5714z" fill="#fefefe"/><path d="m235.844 115.269c-.183.027-.349.033-.496.016.477-.276.948-.56 1.412-.856z" fill="#ff8d02"/><path d="m235.495 111.12c-.055.025-.933-.602-1.349-.903.06-.098.117-.195.172-.294.892-1.569 1.615-3.42 2.176-5.181l1.526-.741c-.814 2.457-1.742 5.176-2.331 6.619 0 0-.076.2-.194.5z" fill="#fde5d0"/><path d="m235.402 47.0826-.62.5142c-5.747-3.1849-12.211-4.8518-18.782-4.8434v-.7348c5.347 0 10.534 1.0468 15.417 3.1108 1.364.5765 2.694 1.2285 3.985 1.9532zm-.839 66.4024c.81.74 3.068-.226 5.254-1.854l-3.057 2.798c-.465.295-.936.579-1.414.855-.19-.015-.371-.09-.515-.215-.517-.474-.6-.767-.37-1.332z" fill="#ff8d02"/><path d="m235.134 97.7671c-.184 1.2-.749 4.7889-1.337 7.6499l-2.537 1.231c.64-4.539.589-10.7769.589-10.7769s1.64 1.1246 3.285 1.896z" fill="#a70d75"/><path d="m238.46 87.3128c-.787-2.5829-1.855-6.2903-2.455-12.2789l-.005-.0571c-.526-5.1909-1.806-9.2035-2.131-10.1543-1.005-.1612-2.204-.4377-3.404-.9143.377.6011 1.108 1.9063 1.707 3.8251.849 2.72.999 6.2663.999 6.2663s.016.3886.048 1.0115c.057 1.112.164 2.9737.314 4.7394.237 2.7588.693 7.2823 2.435 11.6251 1.626 4.0526 5.914 6.5577 9.875 6.6595.079-.3451.24-.6659.47-.9355.229-.2696.52-.4799.848-.6131-4.852-.9006-7.964-6.7509-8.701-9.1737z" fill="#feca3c"/><path d="m222.07 53.5375c.469.2754.923.5783 1.371.888.448.3108.882.6423 1.307.9886.851.6868 1.664 1.4285 2.427 2.224-.652-.8915-1.413-1.7018-2.218-2.4652-.811-.7631-1.687-1.4544-2.617-2.0663-.469-.304-.952-.5885-1.451-.8434-.503-.2491-1.02-.4766-1.549-.6697-.133-.048-.269-.0914-.402-.1337-.069-.0229-.134-.0457-.203-.0652l-.205-.0548c-.137-.0355-.272-.0789-.412-.1063l-.416-.0914c-.139-.0298-.28-.0458-.42-.0686l-.212-.032c-.069-.0103-.14-.016-.211-.0229-.142-.0114-.282-.0285-.425-.0388l-.135-.0046v-2.4c4.302.0857 7.3 1.2229 9.562 2.8469l1.695 2.4857 1.674.8023c.793 1.0022 1.486 2.0411 2.148 3.0468 1.384 2.1122 2.987 4.0727 4.783 5.8492h-.202v.5714h.807c.128.1166.204.1806.212.1886-1.423-.1895-2.822-.5266-4.175-1.0058-1.423-.7417-2.839-1.7554-4.647-3.1691-1.807-1.4137-2.998-2.6023-5.789-4.4743-2.467-1.6548-5.417-1.8457-6.068-1.8697v-2.2217l.097.0034c.133.0092.264.0229.397.0343.066.0069.132.0103.198.0194l.198.0286c.132.0229.265.0354.396.0629.525.0937 1.042.2377 1.554.4.508.1714 1.008.3737 1.497.6011.243.12.487.2377.725.3657.24.1234.474.2629.709.3966z" fill="#fefefe"/><path d="m231.259 106.65 2.536-1.231c-.05.243-.101.48-.151.709l-2.492 1.209c.039-.223.073-.453.105-.686z" fill="#fdfdfd"/><path d="m233.643 106.128c.049-.23.1-.466.149-.709l2.935-1.425c-.074.247-.151.496-.232.749z" fill="#fdfdfd"/><path d="m231.154 107.336 2.492-1.209c-.057.265-.116.522-.173.766-.824 3.493-3.347 6.538-6.694 8.609-3.346 2.071-8.765 2.439-8.765 2.439.721-.369 1.467-1.124 2.159-2 3.712.612 9.434-2.617 10.578-6.703.156-.557.29-1.202.404-1.902z" fill="url(#b)"/><path d="m238.159 95.7805c-1.143-1.0229-2.928-4.0492-3.691-7.1189-.761-3.0697-1.022-4.7165-1.173-8.6354-.066-1.6713-.107-3.3435-.124-5.016-.005-.6651-.001-1.008-.001-1.008s-.15-3.5463-.999-6.2663c-.6-1.92-1.329-3.224-1.707-3.8263l-.144-.0583c-2.988-1.2251-3.986-1.8057-4.017-1.824.051.0686 3.394 4.5509 4.194 9.6012.166 1.0434.258 2.0388.301 2.9977.168 3.7189-.413 6.872-.413 10.0114 0 3.9497 1.704 11.3623 9.44 12.6709.001 0-.523-.5052-1.666-1.528z" fill="url(#d)"/><path d="m223.065 111.262 8.089-3.927c-.114.699-.248 1.345-.405 1.902-1.145 4.087-6.866 7.315-10.579 6.704 1.451-1.837 2.659-4.206 2.895-4.679z" fill="#202541"/><path d="m222.367 55.7164c2.791 1.8709 3.981 3.0606 5.788 4.4731 1.807 1.4149 3.225 2.4263 4.647 3.168-3.973-1.3828-7.454-3.7577-10.172-5.6194-3.634-2.4903-6.331-3.008-6.331-3.008v-.8834c.65.0228 3.6.216 6.068 1.8697z" fill="#ffbb01"/><path d="m245.783 62.653c-.099.304-.133.6286-.095.9508h-9.525c-1.796-1.7759-3.399-3.7361-4.783-5.848-.663-1.0057-1.354-2.0445-2.148-3.0468l16.551 7.9428z" fill="#202541"/><path d="m225.908 71.3049c1.237.3954 2.288 1.1314 2.817 1.5451.162.5554.293 1.0594.364 1.4446l-3.108-.2857c.092-.103.179-.2106.261-.3223.1-.1486.056-.3177-.103-.3177l.062-.2103c.27.0971.398.0754.43-.0526.042-.168-.132-.2491-1.03-.7394-.899-.4915-1.33-.6457-2.061-.6092-.73.0377-1.845.568-2.656 1.6297-.341.4435-.731.7943-1.082 1.0949-.451.3863-.838.6903-.965 1.0034-.319-.1108-.905-.2285-1.243-.1965v-.9715c0-2.288.668-2.9965 1.431-3.1828.761-.1886 3.24-.2503 5.588-.088.442.0308.879.1257 1.295.2583z" fill="url(#f)"/><path d="m228.331 53.6424-.386-.1852-.482-.7063c.305.288.593.5875.868.8915zm-.868-.8915c-.492-.4685-1.024-.9165-1.601-1.3302l-3.747-5.5018c.263.0435.526.0915.788.1418l4.557 6.6902z" fill="#fefefe"/><path d="m229.235 54.7089-1.674-.8034-1.694-2.4846c.577.4137 1.108.8606 1.598 1.3303l.482.7074.386.1852c.317.3474.615.704.902 1.0651z" fill="#fefefe"/><path d="m222.77 110.729c.121-.226.243-.464.369-.714.621-1.235 1.093-2.045 1.469-2.695v-.002c.371-.644.645-1.13.874-1.72.457-1.189 1.234-3.969 1.441-6.3932.16-1.8755-.343-3.7863-1.155-5.4995-.238-.4994-.503-.9828-.783-1.4445-1.246-2.04-5.741-5.0903-6.265-5.3623-.525-.2709-.375-.4572-.224-.5714.148-.112 1.629-.9726 1.629-.9726s2.267.7577 4.101 2.3954c1.835 1.6377 2.408 2.7234 2.408 2.7234s-1.845-4.7542-1.527-4.8571 2.883 1.4972 3.783 3.8857c.899 2.3852.703 7.3269 0 10.0789-.703 2.7512-2.257 5.0172-3.24 6.9362-.678 1.303-1.378 2.594-2.098 3.874l-.743.36z" fill="#fffdfe"/><path d="m222.339 53.106c.93.612 1.806 1.3033 2.617 2.0663.805.7635 1.566 1.5737 2.218 2.4652-.761-.7924-1.571-1.5352-2.427-2.224-.423-.3463-.859-.6761-1.308-.9886-.445-.313-.901-.6092-1.369-.888-.235-.1349-.468-.2731-.711-.3954-.237-.1292-.481-.2469-.723-.3657-.488-.2283-.989-.429-1.499-.6012-.511-.1623-1.029-.3086-1.554-.4-.13-.0274-.262-.0423-.395-.0628l-.197-.0286c-.066-.0092-.132-.0137-.2-.0194-.132-.0115-.262-.0252-.396-.0343l-.096-.0035v-.6514l.135.0046c.143.0091.283.0251.425.0377.071.008.142.0137.211.0229l.212.032c.14.0228.282.04.42.0685l.416.0915c.14.0285.275.072.412.1062l.205.0549c.069.0206.134.0434.203.0651.133.0423.269.0869.402.1338.529.1931 1.046.4205 1.547.6697.501.256.983.5405 1.452.8457z" fill="#15134a"/><path d="m224.603 100.897s.389 1.228.426 3c.031 1.503-.009 2.208-.265 2.992-.048.146-.101.289-.159.431v.002c-.376.652-.848 1.46-1.468 2.695-.375.752-.78 1.489-1.214 2.208-.848-.065-3.62-.288-4.137-.392-.613-.126-.8-.586 0-1.223.799-.636 6.081-5.677 6.416-7.263.326-1.542.017-3.098 0-3.179.162.272.295.518.4.728z" fill="#250ef0"/><path d="m224.766 106.889c.989-1.56 1.564-10.1317 1.289-12.1648-.05-.3499-.154-.6899-.308-1.008l.019-.0092c.814 1.7143 1.316 3.624 1.157 5.5006-.206 2.4224-.983 5.2024-1.442 6.3924-.229.59-.503 1.077-.874 1.72.061-.149.115-.291.16-.431z" fill="#f9db00"/><path d="m226.056 94.7244c.274 2.0343-.302 10.6046-1.289 12.1646.256-.784.297-1.489.264-2.992-.037-1.773-.426-3.001-.426-3.001-.003-.042-.075-1.5293-.172-3.3018-.1-1.7966-.326-3.2309-1.399-4.8663-.06-.0919-.122-.1822-.186-.2709-1.089-1.5143-2.793-2.7543-4.409-2.6366-1.71.1258-2.439.8743-2.439.8743v-1.2354s1.072-.7874 2.501-.7874c1.43 0 3.041 1.1485 3.99 1.8034.786.5429 2.526 1.7051 3.258 3.2423.15.32.259.6571.307 1.0068z" fill="#162653"/><path d="m223.785 74.5087c-1.152-.0686-2-1.1166-2-1.1543 0-.0388.95-.7486 1.737-.8948.789-.1452 1.884.3325 2.371.5668.12.0572.221.1006.308.1326l-.06.2103c-.043.0011-.084.0104-.123.0274-.251.1029-1.081 1.1817-2.233 1.112z" fill="#071c50"/><path d="m231.152 107.336-8.09 3.927.043-.084.442-.788 7.709-3.743c-.032.236-.068.466-.104.688z" fill="#fdfdfd"/><path d="m223.058 111.266-.249-.514.742-.36-.443.787-.042.083z" fill="#fffdfe"/><path d="m221.646 44.2119 1.26 1.8492c-.262-.0514-.525-.0987-.788-.1418l-.944-1.3851z" fill="#ecedf6"/><path d="m221.263 81.0325c.703 1.0205.821 1.7965.994 2.6811.131.6686.208 1.5772.238 1.9806-.128-.0813-.261-.1553-.398-.2217-.825-.3932-.937-.5292-.899-.608.038-.08.612-.4777.44-1.2126-.173-.7349-1.246-2.7326-2.846-2.3874 0 0-.145-5.1223.017-5.7086.007-.0246.016-.0486.027-.072.125-.3143.514-.6171.963-1.0034l.109.0594c.044-.0286.171-.0537.453-.0594-.317.232-.752.6263-.765.6823-.015.0617-.141 2.4525.102 3.36.245.9085.863 1.4891 1.565 2.5097z" fill="url(#g)"/><path d="m222.118 45.9195c-1.294-.2197-2.6-.3685-3.91-.4458-.034-.5629-.281-1.0918-.691-1.4787-.411-.387-.953-.6028-1.517-.6035v-.6366c6.808 0 13.211 1.7577 18.782 4.8434 3.627 2.0104 6.912 4.585 9.73 7.6274l-.728-.0902c-.85-.1189-1.97-.2046-3.119-.0915-4.964-4.5937-11.116-7.7054-17.758-8.9828l-1.259-1.8492-.473.3212z" fill="#ecedf6"/><path d="m229.112 74.4351-.025-.1406-3.106-.2857c-.319.3588-.877.9028-1.481 1.1943-.858.4114-2.099-.3086-2.614-.6549-.516-.3463-1.119-.3428-1.438-.1257l-.087.0606c.78-.016 1.196.4651 2.007 1.0948.812.6309 1.574.8617 2.629.4115 1.056-.4492 3.354-1.328 3.354-1.328s-.899 1.9965-2.56 5.1291c-1.661 3.1314-2.011 4.992-2.111 5.6023-.063.392.114.7246.25.9108.108-.3988.35-.8308.741-1.4514.166-.2617.355-.5566.574-.8971.946-1.48 2.716-4.4183 3.175-5.3349.315-.632.632-1.6914.723-2.7634.046-.4735.036-.9507-.031-1.4217z" fill="url(#h)"/><path d="m228.351 74.6588s-.899 1.9966-2.56 5.1292c-1.661 3.1325-2.011 4.992-2.111 5.6034-.063.392.114.7234.25.9097-.043.1589-.064.3232-.061.488 0 0-.67-.6514-1.372-1.0926-.031-.4034-.108-1.312-.24-1.9817-.171-.8834-.29-1.6606-.993-2.6811-.702-1.0206-1.319-1.6-1.563-2.5086-.243-.9074-.118-3.2983-.103-3.36.014-.0549.448-.4491.766-.6823.778-.016 1.195.464 2.006 1.0949.812.6308 1.573.8605 2.629.4114 1.054-.4503 3.352-1.3303 3.352-1.3303z" fill="#f6f6f6"/><path d="m221.783 73.3537c0 .0366.847 1.0846 2 1.1543 1.152.0708 1.98-1.0092 2.233-1.1132.038-.0168.079-.0261.121-.0274.159 0 .204.168.103.3177-.034.0537-.126.1714-.261.3212-.318.36-.876.904-1.481 1.1954-.857.4114-2.098-.3086-2.612-.6549-.517-.3474-1.12-.3428-1.438-.1257-.029.0183-.057.0389-.087.0606-.283.0057-.409.0297-.455.0594l-.107-.0594c.352-.3006.743-.6514 1.082-1.0949.812-1.0605 1.927-1.5908 2.656-1.6297.732-.0366 1.162.1166 2.062.608.897.4914 1.072.5714 1.028.7406-.03.1257-.158.1497-.429.0526-.106-.0384-.209-.0826-.309-.1326-.487-.2343-1.583-.712-2.37-.5669-.785.1463-1.736.8583-1.736.8949z" fill="url(#i)"/><path d="m233.535 79.7488c.236 2.7588.692 7.2811 2.434 11.6251 1.628 4.0526 5.916 6.5577 9.877 6.6583-.115.4949-.052 1.008.163 1.4549l-7.737 3.7569c.786-2.396 1.408-4.3661 1.408-4.3661s-.712-.0343-1.669-.208c-.774-.1348-1.533-.3473-2.265-.6343-.206-.0845-.41-.1745-.611-.2697-1.646-.7714-3.285-1.896-3.285-1.896s.052 6.2391-.589 10.7771l-7.709 3.743c.535-.955 1.443-2.598 2.098-3.874.983-1.918 2.537-4.183 3.24-6.9364.703-2.7497.9-7.6925 0-10.08-.899-2.3862-3.465-3.9862-3.783-3.8834-.318.1029 1.527 4.8572 1.527 4.8572s-.571-1.0858-2.408-2.7235c-1.835-1.6388-4.1-2.3954-4.1-2.3954-.543-.1406-1.293.0926-1.827.5886-.533.496-1.414 1.2343-2.238 1.2548-.021.0006-.041.0002-.061-.0011v-.8c.721-.0834 1.718-.9829 1.929-1.3143.212-.3326.224-.6549.309-.6549.084 0 .891.2458 1.309.1795.42-.0652.84-.4366.983-.632.144-.1966.128-.3657-.259-.88-.386-.5143-.886-.6743-1.365-.3303-.476.3428-1.028.5394-1.028.5394s-.291-.0366-.291-2.0491c0-1.7337.006-3.9315.008-5.9692.341-.0331.926.0857 1.244.1966-.01.0237-.019.0482-.025.0731-.163.5863-.019 5.7086-.019 5.7086 1.6-.3463 2.675 1.6526 2.847 2.3874.173.7349-.402 1.1315-.44 1.2115-.037.08.075.2148.9.608.13.0628.265.1383.397.2228.704.4412 1.372 1.0926 1.372 1.0926-.003-.1644.018-.3283.062-.4869.107-.4.35-.832.741-1.4514.166-.2628.355-.5577.574-.8983.946-1.4788 2.717-4.4171 3.175-5.3348.315-.6309.632-1.6915.723-2.7623.043-.4834.039-.9726-.031-1.4217l-.024-.1406c-.097-.4872-.218-.9693-.363-1.4446-.478-1.6308-1.23-3.7097-1.542-4.5348-.431-1.1429-1.367-5.1863-4.869-8.1052-2.837-2.3657-5.434-2.6343-6.317-2.6514v-5.9383h.002l.302.0092v3.104s2.697.5177 6.331 3.008c2.718 1.8617 6.199 4.2342 10.172 5.6194 1.339.4674 2.734.8228 4.175 1.0068l-.212-.1885h9.067c.199.4911.569.894 1.042 1.1348l-.24.3635-7.959 11.4342c-.541-2.8674-.904-5.4925-1.304-7.4662-.806-3.968-.937-4.5943-.937-4.5943s-1.068.016-2.566-.2252c-1.006-.1623-2.206-.4388-3.406-.9143l-.144-.0594c-2.987-1.2251-3.986-1.8057-4.017-1.824.053.0686 3.395 4.5509 4.195 9.6012.165 1.0434.258 2.0388.3 2.9977.168 3.72-.412 6.872-.412 10.0114 0 3.9497 1.705 11.3623 9.44 12.672 0 0-.524-.5063-1.668-1.528-1.143-1.024-2.928-4.0503-3.689-7.12-.762-3.0686-1.024-4.7166-1.174-8.6343-.089-2.3383-.143-5.0046-.125-5.9966" fill="url(#j)"/><path d="m222.119 45.9195 3.748 5.5006c-2.262-1.6229-5.262-2.76-9.563-2.8457v2.4l-.293-.0092h-.011v-3.1543c.301-.0003.599-.0619.875-.1812.277-.1194.526-.2938.732-.5126.207-.2189.367-.4776.47-.7603.103-.2828.148-.5836.131-.8841 1.311.0773 2.616.2273 3.911.4468z" fill="#15134a"/><path d="m214.603 45.6019c0 .3699.147.7247.409.9863.261.2616.616.4085.986.4085s.725-.1469.986-.4085c.262-.2616.409-.6164.409-.9863 0-.3698-.147-.7244-.408-.9859-.262-.2615-.617-.4084-.986-.4084-.37 0-.725.1469-.986.4084-.262.2615-.41.6161-.41.9859zm1.397-2.2103c.586.0006 1.148.2336 1.562.648.415.4143.648.9762.649 1.5623 0 .5865-.234 1.1488-.649 1.5634-.414.4147-.977.6477-1.563.648-.301-.0003-.599-.062-.876-.1814-.276-.1193-.525-.2939-.732-.5128-.207-.219-.367-.4779-.47-.7607-.103-.2829-.147-.5839-.13-.8845.034-.563.282-1.0917.692-1.4786.41-.3868.953-.6027 1.517-.6037z" fill="#fefefe"/><path d="m218.011 117.94s5.421-.368 8.766-2.439c3.348-2.071 5.869-5.116 6.695-8.609.057-.243.114-.501.172-.766l2.853-1.385c-.563 1.762-1.284 3.613-2.176 5.182-.056.099-.113.197-.172.294-1.474 2.441-3.877 4.678-7.001 6.139 0 .002-.001.001-.001.001-3.007.97-6.13 1.539-9.286 1.693l.151-.11z" fill="url(#k)"/><path d="m217.862 118.052.346-.021c3.039-.177 6.042-.738 8.939-1.672-2.636 1.235-5.784 1.919-9.317 1.71.011-.005.021-.012.031-.018z" fill="url(#m)"/><path d="m216.001 44.2061c.37.0003.724.1474.985.4091.262.2617.408.6165.408.9863s-.147.7243-.409.9856c-.262.2612-.617.4078-.986.4075-.37-.0003-.725-.1475-.986-.4092s-.408-.6164-.408-.9862c.001-.3698.148-.7243.41-.9856.261-.2612.616-.4078.986-.4075z" fill="#1e205d"/><path d="m216.011 50.964.293.0092v.6514l-.302-.0091h-.002v-.6526z" fill="#15134a"/><path d="m215.996 42.7549v.6366c-1.177 0-2.143.9234-2.208 2.0822-1.31.0773-2.616.2261-3.911.4458l.944-1.3852-.473-.3211-1.259 1.8491c-6.642 1.2764-12.794 4.3883-17.758 8.9829-1.147-.1132-2.268-.0275-3.118.0914-.255.0351-.509.077-.762.1257 7.104-7.688 17.271-12.5074 28.544-12.5074z" fill="#ecedf6"/><path d="m215.996 42.0206v.7348c-11.273 0-21.44 4.8195-28.547 12.5063-1.106 1.1953-2.135 2.4587-3.083 3.7829l-.706-.3132c1.296-1.8242 2.744-3.5358 4.328-5.1165 3.609-3.6154 7.885-6.4961 12.591-8.4823 4.877-2.0644 10.121-3.1229 15.417-3.112z" fill="#2702ff"/><path d="m209.877 45.9193c1.295-.2196 2.6-.3684 3.91-.4457-.017.3006.028.6014.131.8841.103.2828.263.5415.47.7604.207.2188.456.3932.732.5125s.574.181.875.1813v3.1532h-.011l-.292.0102v-2.4c-4.301.0858-7.301 1.2229-9.563 2.8458l3.748-5.5006z" fill="#15134a"/><path d="m215.983 50.964h.011v.6526l-.303.0091v-.6514z" fill="#15134a"/><path d="m228.724 72.8481c-.478-1.632-1.23-3.7097-1.542-4.536-.431-1.1417-1.367-5.1852-4.87-8.104-2.836-2.3657-5.433-2.6343-6.316-2.6515-.884.0172-3.479.2858-6.317 2.6515-3.503 2.9188-4.439 6.9623-4.87 8.104-.312.8263-1.063 2.904-1.541 4.536.528-.4126 1.579-1.1497 2.817-1.5452-.168-.384-.513-1.3863-.275-2.72.31-1.7211 1.471-4.2011 3.131-6.0914 1.596-1.8217 4.836-3.1394 7.056-3.192 2.219.0526 5.459 1.3714 7.056 3.192 1.658 1.8903 2.819 4.3703 3.129 6.0914.24 1.3337-.105 2.336-.274 2.72 1.236.3966 2.288 1.1315 2.816 1.5452z" fill="url(#n)"/><path d="m226.182 68.5832c-.309-1.7211-1.47-4.2011-3.13-6.0914-1.596-1.8217-4.836-3.1394-7.056-3.192v10.8571c-.115 1.2183-.354 2.0412-.554 3.84-.274 2.4858-.114 7.8469-.114 9.5886-.003.9717.226 1.93.668 2.7955v.016c.721-.0835 1.718-.9829 1.929-1.3143.212-.3326.224-.6549.309-.6549.084 0 .891.2457 1.31.1794.418-.0651.84-.4365.982-.632.144-.1965.128-.3657-.259-.88-.386-.5142-.886-.6743-1.365-.3303-.476.3429-1.028.5395-1.028.5395s-.29-.0366-.29-2.0492c0-1.7337.005-3.9314.008-5.9691v-.9714c0-2.288.669-2.9966 1.43-3.1829.763-.1886 3.24-.2491 5.589-.088.443.0297.88.1257 1.297.2583.168-.3829.513-1.3852.274-2.7189z" fill="#fdfdfd"/><path d="m206.964 103.896c-.032 1.503.008 2.208.264 2.992-.988-1.56-1.564-10.1312-1.288-12.1644.047-.3508.155-.6857.308-1.008.732-1.5371 2.472-2.6994 3.258-3.2423.948-.6548 2.56-1.8034 3.99-1.8034 1.429 0 2.501.7863 2.501.7863v1.2366s-.729-.7497-2.44-.8743c-1.615-.1177-3.319 1.1223-4.408 2.6366-.064.088-.126.1794-.186.2708-1.075 1.6343-1.299 3.0697-1.399 4.8663-.098 1.7714-.17 3.2598-.172 3.3008 0 0-.39 1.231-.428 3.003z" fill="#162653"/><path d="m218.433 89.8193c-1.709.1257-2.439.8743-2.439.8743s-.729-.7498-2.44-.8743c-1.614-.1177-3.318 1.1223-4.408 2.6365.205.2469.764.7452 1.943.7829 1.549.048 3.028-.704 3.072-.7257l.001-.0012s.77.6343 1.832.72c.666-.0668 1.3-.3159 1.832-.72.046.0229 1.525.7749 3.075.7269 1.177-.0377 1.737-.536 1.941-.7829-1.089-1.5142-2.793-2.7542-4.409-2.6365z" fill="#fefefe"/><path d="m217.362 95.0996c-.222-.2435-.625-.5966-1.365-.6709-.74.0743-1.143.4274-1.364.6709-.183.2-.336.3325-.549.5577h3.829c-.215-.2252-.368-.3577-.551-.5577z" fill="url(#o)"/><path d="m215.997 113.953c.347.004.755.116 1.485.397 1.246.48 2.217.794 2.516.887-.905 1.459-2.011 2.229-2.011 2.229s-.554.537-1.497.627h-.004c-.162.015-.326.016-.489.002-.171.014-.336.011-.489-.002h-.004c-.942-.09-1.496-.627-1.496-.627s-1.107-.77-2.012-2.228c.848-.271 1.687-.567 2.517-.888.729-.281 1.137-.393 1.484-.397z" fill="#4f00ec"/><path d="m215.694 53.8477v.8834s-2.697.5177-6.331 3.008c-2.718 1.8617-6.199 4.2343-10.172 5.6194 1.422-.7417 2.839-1.7531 4.646-3.168 1.808-1.4126 2.998-2.6023 5.789-4.4731 2.466-1.6549 5.417-1.848 6.068-1.8697z" fill="#ff8701"/><path d="m207.245 55.4135c-.856.689-1.667 1.4318-2.429 2.224.654-.8915 1.414-1.7006 2.219-2.4652.811-.7631 1.686-1.4544 2.617-2.0663.468-.304.952-.5885 1.452-.8434.503-.2491 1.018-.4766 1.548-.6697.132-.048.268-.0914.402-.1337.069-.0217.134-.0457.202-.0652l.206-.0548c.137-.0343.272-.0777.412-.1063l.416-.0914c.139-.0286.28-.0457.42-.0686l.212-.032c.069-.0091.14-.0149.211-.0229.142-.0114.282-.0285.425-.0377l.135-.0057v.6514l-.096.0035-.398.0343c-.065.0068-.132.0114-.199.0205l-.196.0286c-.132.0217-.265.0354-.396.0629-.525.0937-1.042.2377-1.554.4-.508.1714-1.008.3737-1.498.6011-.244.12-.486.2377-.724.3657-.242.1223-.475.2606-.709.3954-.47.2755-.923.5783-1.371.888-.449.3098-.882.6423-1.307.9875z" fill="#15134a"/><path d="m218.666 96.5155c-.12-.1326-.26-.2971-.438-.5051-.103-.1208-.209-.2385-.318-.3532h-3.831c-.109.1152-.216.2334-.319.3543-.177.2069-.316.3714-.436.504 0 0-.302 2.3829.006 3.7305.308 1.348 1.179 2.348 1.798 3.762.136.311.248.632.336.96.32 1.13.394 2.199.53 2.402.137-.203.211-1.27.528-2.401.026-.093.054-.186.083-.279.073-.229.157-.459.254-.683.619-1.413 1.489-2.414 1.799-3.762.309-1.3466.008-3.7295.008-3.7295z" fill="#fffdfe"/><path d="m220.566 99.68c-.35-1.5108-1.261-2.6217-1.492-2.784-.149-.1109-.285-.2381-.405-.3794 0 0 .301 2.3817-.007 3.7304-.309 1.347-1.18 2.348-1.798 3.761-.136.312-.248.634-.337.962-.318 1.131-.393 2.198-.528 2.401-.137-.203-.212-1.273-.529-2.403-.089-.328-.202-.648-.336-.96-.62-1.411-1.489-2.413-1.799-3.76-.309-1.3485-.007-3.7303-.007-3.7303-.153.1703-.275.288-.406.3795-.228.1623-1.141 1.2731-1.491 2.7828-.091.391-.111.794-.06 1.192.084.669.348 1.295.647 1.921.147.309.302.617.448.93.542 1.17 2.988 5.144 3.532 6.028.545-.884 2.991-4.858 3.532-6.028.147-.313.302-.621.449-.93.299-.625.564-1.251.647-1.92.048-.382.036-.777-.06-1.193z" fill="url(#p)"/><path d="m205.362 73.106c.035.1326.172.152.471.0389l.021.224c-.158 0-.2.168-.102.3165.035.0537.127.1715.261.3212l-3.107.2868c.07-.3851.201-.8891.364-1.4445.528-.4126 1.579-1.1498 2.817-1.544.416-.1338.852-.2286 1.297-.2583 2.347-.1623 4.826-.1006 5.589.088.761.1863 1.428.896 1.428 3.184 0 .3165 0 .6411.002.9703-.34-.0332-.925.0857-1.244.1965-.12-.296-.471-.5828-.892-.9394-.368-.3143-.792-.6834-1.156-1.1589-.812-1.0605-1.926-1.5908-2.656-1.6285-.732-.0377-1.161.1165-2.061.608-.9.4914-1.074.5714-1.032.7394z" fill="url(#q)"/><path d="m207.791 103.349c.334 1.584 5.617 6.625 6.416 7.261.8.638.613 1.099 0 1.223-.516.105-3.29.327-4.137.392-.433-.72-.838-1.456-1.214-2.208-.62-1.234-1.092-2.043-1.468-2.694v-.003c-.058-.142-.112-.285-.16-.431-.255-.784-.296-1.489-.263-2.992.037-1.771.425-3.001.425-3.001.105-.21.238-.457.4-.728-.016.081-.324 1.638 0 3.181z" fill="#250ef0"/><path d="m198.829 73.9225c.028.9943-.04 3.7634-.129 6.1017-.151 3.9177-.412 5.5657-1.173 8.6354-.763 3.0686-2.548 6.0949-3.692 7.1189-1.143 1.0229-1.666 1.528-1.666 1.528 7.736-1.3109 9.44-8.7223 9.44-12.672 0-3.1394-.58-6.2914-.413-10.0114.043-.9577.136-1.9543.301-2.9977.8-5.0515 4.143-9.5315 4.194-9.6-.03.016-1.028.5977-4.016 1.8228l-.145.0594c-1.2.4755-2.4.752-3.406.9143-1.497.2412-2.565.2252-2.565.2252s-.131.6263-.938 4.5943c-.39 1.928-.746 4.4765-1.266 7.2651l-7.817-11.2331-.288-.4366c.411-.2457.73-.6184.911-1.0617h9.067c-.139.1257-.213.1885-.213.1885 1.423-.1894 2.822-.5264 4.176-1.0057 3.972-1.3851 7.454-3.76 10.171-5.6205 3.634-2.4903 6.331-3.008 6.331-3.008v-3.104l.303-.0092.001 5.9406c-.883.016-3.477.2846-6.315 2.6503-3.503 2.92-4.44 6.9623-4.871 8.1051-.312.8252-1.063 2.9029-1.54 4.5349-.164.5554-.294 1.0594-.364 1.4445-.01.0492-.017.096-.025.1406-.067.4706-.078.9475-.031 1.4206.093 1.072.409 2.1314.724 2.7634.459.9177 2.228 3.856 3.174 5.3349.218.3405.41.6365.574.8971.391.6206.634 1.0526.742 1.4514.043.1658.064.3235.062.488 0 0 .668-.6514 1.371-1.0925.133-.0846.267-.1589.399-.2229.824-.3931.937-.528.899-.608-.037-.08-.613-.4766-.441-1.2114.174-.736 1.246-2.7337 2.847-2.3886 0 0 .144-5.1223-.018-5.7074-.007-.0249-.015-.0494-.025-.0732.318-.1108.904-.2285 1.243-.1965.002 2.0377.009 4.2354.009 5.9691 0 2.0114-.29 2.0492-.29 2.0492s-.553-.1966-1.03-.5395c-.478-.3428-.977-.1851-1.364.3315-.387.5142-.403.6834-.259.88.143.1942.564.5657.982.6308.418.0674 1.225-.1794 1.311-.1794.083 0 .097.3223.308.6548.211.3315 1.207 1.2309 1.928 1.3143v.8c-.02.0009-.04.0009-.06 0-.824-.0183-1.705-.7565-2.238-1.2537-.535-.496-1.283-.7291-1.826-.5897 0 0-2.266.7577-4.102 2.3966-1.835 1.6365-2.408 2.7234-2.408 2.7234s1.846-4.7543 1.528-4.8571c-.318-.1029-2.884 1.4971-3.783 3.8845-.899 2.3863-.704 7.328 0 10.08.702 2.7511 2.256 5.0171 3.24 6.9351.678 1.303 1.378 2.594 2.099 3.874l-7.71-3.743c-.64-4.538-.59-10.7769-.59-10.7769s-1.639 1.1245-3.283 1.896c-.206.096-.409.1863-.612.2697-.732.2869-1.491.4994-2.266.6343-.955.1737-1.669.2091-1.669.2091s.623 1.9708 1.407 4.3648l-7.737-3.7568c.216-.4468.279-.9611.166-1.4548 3.961-.1006 8.249-2.6058 9.874-6.6595 1.742-4.3428 2.198-8.8663 2.434-11.6228" fill="url(#r)"/><path d="m211.724 83.0975c.388-.5154.887-.6743 1.365-.3314.477.3429 1.03.5406 1.03.5406s.29-.0378.29-2.0503c0-1.7337-.007-3.9303-.008-5.9692l-.001-.9703c0-2.288-.669-2.9965-1.43-3.184-.762-.1874-3.241-.2491-5.588-.0868-.442.0333-.877.1196-1.298.2571-.168-.3851-.513-1.3863-.274-2.72.31-1.7211 1.471-4.2011 3.129-6.0914 1.598-1.8217 4.837-3.1394 7.057-3.192v10.8571c-.116 1.2183-.354 2.0412-.554 3.84-.274 2.4858-.114 7.8469-.114 9.5886-.003.9717.227 1.93.668 2.7955v.016c-.722-.0835-1.717-.9829-1.929-1.3143-.211-.3326-.225-.6549-.308-.6549-.086 0-.892.2457-1.311.1794-.418-.0651-.839-.4365-.983-.632-.143-.1942-.128-.3645.259-.8777z" fill="#ddd3c0"/><path d="m214.165 118.069c-3.533.209-6.682-.475-9.317-1.71 3.007.97 6.129 1.538 9.285 1.692z" fill="url(#s)"/><path d="m198.348 106.127 2.491 1.209c.113.7.248 1.345.404 1.902 1.145 4.087 6.866 7.315 10.579 6.704.691.875 1.438 1.63 2.159 2 0 0-5.421-.369-8.766-2.44-3.347-2.071-5.87-5.117-6.694-8.609-.057-.245-.116-.501-.173-.766z" fill="url(#t)"/><path d="m205.834 73.1445c-.297.1132-.437.0938-.471-.0388-.041-.1692.133-.2492 1.031-.7406s1.329-.6446 2.06-.608c.731.0377 1.845.568 2.656 1.6297.366.4755.789.8435 1.158 1.1589l-.171.0034c-.037-.0343-.158-.0617-.465-.0686-.03-.0228-.059-.0411-.087-.0605-.318-.2172-.923-.2206-1.437.1257-.515.3463-1.756 1.0663-2.614.6548-.604-.2902-1.162-.8354-1.481-1.1954-.092-.1023-.179-.2091-.26-.32-.1-.1508-.056-.3177.1-.3188.036 0 .077.0091.124.0274.253.1028 1.081 1.184 2.233 1.1143s2-1.1177 2-1.1566c0-.0366-.95-.7474-1.737-.8937-.789-.1452-1.884.3326-2.371.5668-.087.0437-.177.0837-.268.12z" fill="url(#u)"/><path d="m212.27 74.5443c.419.3554.769.6434.891.9394.01.0229.018.0492.025.0732.162.5863.018 5.7085.018 5.7085-1.6-.3462-2.674 1.6526-2.846 2.3875-.173.7348.403 1.1314.44 1.2114s-.075.2149-.899.608c-.132.0629-.265.1383-.399.2229.031-.4035.109-1.312.239-1.9806.172-.8846.29-1.6617.994-2.6823.702-1.0206 1.319-1.6 1.564-2.5086.242-.9074.117-3.2983.102-3.36-.013-.0537-.448-.4491-.765-.6823.307.0058.428.0343.463.0686z" fill="url(#v)"/><path d="m212.396 75.1654c.015.0617.14 2.4526-.103 3.36-.242.9075-.862 1.4869-1.564 2.5075-.702 1.0217-.82 1.7977-.994 2.6822-.13.6686-.208 1.5772-.238 1.9806-.704.4412-1.371 1.0926-1.371 1.0926.002-.1644-.018-.3283-.062-.4869.135-.1863.313-.5177.249-.9108-.1-.6115-.45-2.472-2.11-5.6035-1.661-3.1314-2.56-5.1291-2.56-5.1291s2.298.88 3.354 1.3291c1.055.4503 1.817.2183 2.628-.4114.812-.6308 1.229-1.1108 2.007-1.0948.316.2331.751.6285.764.6845z" fill="#c8c090"/><path d="m217.787 110.611c.799-.638 6.081-5.679 6.416-7.263.325-1.543.017-3.099 0-3.179-.265-.4491-.562-.8798-.887-1.2873-.156-.1943-.311-.3897-.466-.5875l-.356-.4457c-.833-1.0365-1.754-2.1211-3.121-3.3485-1.143-1.0229-1.463-1.6549-1.543-1.9863h-.002s-.769.6343-1.831.72c-1.063-.0857-1.832-.72-1.832-.72-.08.3314-.403.9623-1.544 1.9874-1.368 1.2263-2.289 2.3109-3.122 3.3486-.119.1485-.238.2971-.354.4457-.157.1943-.311.392-.468.5863-.325.4076-.621.8372-.887 1.2853-.016.083-.324 1.637 0 3.18.334 1.585 5.618 6.626 6.416 7.263.8.637.613 1.098 0 1.223-.516.105-3.289.326-4.136.392.702 1.169 1.325 2.04 1.915 2.995l.01.017c.848-.271 1.688-.567 2.518-.888.73-.281 1.138-.392 1.484-.395.345.002.755.114 1.484.395 1.247.48 2.217.794 2.517.888l.012-.017c.588-.955 1.211-1.826 1.913-2.994-.846-.067-3.619-.288-4.137-.393-.612-.126-.799-.586 0-1.223zm-1.79-.862c-.545-.883-2.989-4.858-3.531-6.027-.146-.313-.303-.623-.449-.931-.3-.625-.565-1.251-.647-1.92-.052-.398-.033-.803.058-1.1939.35-1.5097 1.261-2.6206 1.492-2.7829.13-.0914.252-.2102.405-.3794.12-.1326.26-.2971.438-.5063.122-.1428.226-.256.319-.3531.214-.2229.366-.3577.548-.5566.222-.2434.627-.5966 1.366-.6708.74.0742 1.143.4274 1.365.6708.183.2.335.3326.548.5566.093.0971.197.2114.32.3543.177.208.316.3725.437.5051.153.1714.275.288.406.3794.229.1623 1.142 1.2732 1.491 2.7829.096.4179.107.8119.061 1.1919-.084.669-.349 1.295-.647 1.921-.148.309-.303.617-.449.931-.542 1.169-2.988 5.145-3.532 6.027z" fill="#252842"/><path d="m211.824 115.942c-3.712.611-9.434-2.617-10.578-6.704-.17-.626-.305-1.261-.406-1.902l8.089 3.927c.235.472 1.446 2.842 2.895 4.679z" fill="#24254b"/><path d="m204.85 116.357h-.003c-3.122-1.463-5.526-3.699-7-6.14-.059-.097-.116-.195-.171-.294-.894-1.569-1.615-3.42-2.176-5.182l2.851 1.385c.059.265.117.523.174.766.824 3.494 3.346 6.538 6.694 8.609 3.345 2.071 8.766 2.439 8.766 2.439l.15.109c-.115-.006-.232-.012-.346-.02-3.038-.176-6.042-.738-8.939-1.672z" fill="url(#w)"/><path d="m210.824 44.5332-.946 1.3852c-.264.0434-.525.0914-.788.1417l1.259-1.8492z" fill="#ecedf6"/><path d="m209.878 45.9189-3.749 5.5018c-.577.4137-1.107.8605-1.598 1.3302l4.558-6.6902c.263-.0515.525-.0983.789-.1418z" fill="#fffffb"/><path d="m208.475 72.4592c.786.1463 1.737.8572 1.737.8937 0 .0377-.848 1.0857-2 1.1566-1.152.0697-1.981-1.0103-2.234-1.1143-.039-.0164-.081-.0254-.123-.0263l-.021-.224c.08-.0297.169-.0685.271-.1188.488-.2343 1.583-.7109 2.37-.5669z" fill="#071c50"/><path d="m224.602 100.895c-.003-.041-.075-1.5283-.172-3.3008-.102-1.7966-.326-3.2309-1.399-4.8663-.06-.0918-.122-.1822-.186-.2709-.206.248-.763.7452-1.943.7829-1.548.048-3.028-.704-3.072-.7257.08.3303.401.9611 1.543 1.9863 1.367 1.2262 2.289 2.3108 3.121 3.3485.12.1486.239.2972.354.4457.157.1966.311.392.468.5863.359.4469.654.8915.888 1.286.16.273.292.519.398.728z" fill="#f7b41e"/><path d="m211.092 93.2399c-1.179-.0377-1.737-.5349-1.943-.7829-.064.0892-.126.1795-.186.2709-1.074 1.6343-1.298 3.0697-1.399 4.8663-.098 1.7714-.17 3.2598-.171 3.3008.105-.209.236-.457.398-.727.266-.4491.563-.8791.888-1.287l.467-.5863c.116-.1485.235-.2971.354-.4457.834-1.0377 1.755-2.1223 3.122-3.3485 1.142-1.024 1.463-1.656 1.543-1.9863-.046.0228-1.523.7748-3.073.7257z" fill="url(#y)"/><path d="m209.189 110.752-.249.514-.008-.003c-.015-.028-.029-.056-.042-.084l-.443-.788z" fill="#fdfdfd"/><path d="m209.087 46.0617-4.558 6.6891c-.304.2892-.592.5875-.867.8915l-17.699 8.4937c-.095-.1462-.207-.2802-.334-.3989 1.623-2.4533 3.537-4.7009 5.7-6.6937 4.965-4.5937 11.116-7.7043 17.758-8.9817z" fill="#272742"/><path d="m208.445 110.391.442.788.042.084-8.089-3.927c-.037-.228-.072-.457-.104-.686zm3.425-25.0355s1.481.8605 1.631.9737c.15.112.299.2994-.225.5703-.524.272-5.02 3.3223-6.265 5.3623-.282.4617-.546.9451-.783 1.4445-.813 1.7143-1.315 3.6229-1.156 5.4995.206 2.4242.983 5.2032 1.443 6.3932.228.591.502 1.078.873 1.72v.002c.375.652.847 1.46 1.468 2.695.126.249.249.488.369.714l-.037.021-.743-.36c-.721-1.28-1.42-2.572-2.098-3.874-.983-1.919-2.538-4.183-3.24-6.9364-.703-2.7508-.9-7.6926 0-10.08.899-2.3863 3.465-3.9863 3.782-3.8834.319.1028-1.526 4.8571-1.526 4.8571s.571-1.0857 2.408-2.7245c1.833-1.6366 4.099-2.3943 4.099-2.3943z" fill="#fdfdfd"/><path d="m209.623 75.5752c.812-.6309 1.229-1.1109 2.007-1.0949-.029-.0228-.058-.0411-.087-.0617-.318-.2149-.922-.2206-1.436.1257-.516.3474-1.757 1.0674-2.614.656-.606-.2914-1.162-.8354-1.481-1.1954l-3.107.2868-.023.1406c-.071.4503-.075.9372-.032 1.4206.092 1.072.409 2.1314.723 2.7634.46.9177 2.229 3.8549 3.175 5.3349.217.3394.409.6354.574.8971.391.6206.634 1.0526.741 1.4514.136-.1851.315-.5165.25-.9097-.101-.6125-.451-2.472-2.11-5.6034-1.662-3.1326-2.56-5.1291-2.56-5.1291s2.297.88 3.353 1.3291c1.054.4503 1.815.2194 2.627-.4114z" fill="#05b5cc"/><path d="m224.982 92.262c-1.246-2.04-5.741-5.0903-6.265-5.3623-.525-.2708-.375-.4571-.226-.5714.15-.112 1.631-.9726 1.631-.9726-.543-.1405-1.292.0938-1.826.5898s-1.415 1.2342-2.239 1.2537h-.121c-.824-.0183-1.705-.7577-2.239-1.2537-.535-.496-1.283-.7303-1.826-.5898 0 0 1.481.8606 1.631.9738.149.112.299.2994-.225.5702-.525.272-5.02 3.3223-6.266 5.3623-.285.4677-.547.9499-.782 1.4446l.019.0091c.731-1.5371 2.472-2.6994 3.258-3.2422.949-.6549 2.56-1.8035 3.99-1.8035 1.431 0 2.502.7863 2.502.7863s1.072-.7863 2.5-.7863c1.43 0 3.041 1.1486 3.99 1.8035.786.5428 2.526 1.7051 3.258 3.2422l.02-.0091c-.239-.4994-.503-.9829-.784-1.4446z" fill="url(#z)"/><path d="m205.942 94.7253c-.274 2.032.302 10.6037 1.288 12.1637.046.139.098.282.16.431-.371-.644-.646-1.131-.874-1.72-.457-1.189-1.235-3.968-1.441-6.3924-.16-1.8766.342-3.7874 1.155-5.5006l.019.0092c-.154.3179-.258.658-.308 1.008z" fill="url(#A)"/><path d="m206.132 51.4209-1.694 2.4846-1.674.8034c.285-.3611.585-.7177.903-1.0651l.385-.1852.482-.7074c.491-.4686 1.021-.9166 1.598-1.3303z" fill="#fefefe"/><path d="m201.673 63.8504c2.987-1.2252 3.986-1.8057 4.017-1.824-.053.0685-3.396 4.5508-4.195 9.6011-.157.9928-.257 1.9936-.301 2.9977-.71.224-1.555.336-2.372.384.005-.6663 0-1.008 0-1.008s.15-3.5463 1-6.2663c.599-1.92 1.329-3.224 1.707-3.8262z" fill="#8e485f"/><path d="m204.535 52.752-.483.7062-.386.1852c.275-.304.565-.6034.869-.8914z" fill="#fefefe"/><path d="m186.209 62.6518 16.551-7.9428c-.793 1.0023-1.486 2.0411-2.149 3.0468-1.384 2.1121-2.987 4.0726-4.781 5.8492h-9.526c.039-.3208.006-.6463-.095-.9532z" fill="#272742"/><path d="m198.126 64.8225c1.006-.1612 2.205-.4377 3.406-.9143-.378.6011-1.108 1.9063-1.707 3.8251-.851 2.72-.999 6.2663-.999 6.2663s-.016.3886-.049 1.0115c-1.136.0651-2.208.0091-2.781-.0343.526-5.1909 1.808-9.2035 2.13-10.1543z" fill="#dd5a79"/><path d="m201.196 74.6221c-.167 3.7211.414 6.8731.414 10.0125 0 3.9509-1.705 11.3623-9.44 12.672 0 0 .523-.5051 1.666-1.528 1.143-1.024 2.929-4.0502 3.69-7.1188.763-3.0697 1.024-4.7177 1.174-8.6354.089-2.3383.117-4.0309.125-5.0172.816-.048 1.66-.1611 2.371-.3851z" fill="#2b66ab"/><path d="m200.842 107.336-2.491-1.208c-.049-.231-.101-.467-.15-.709l2.537 1.23c.032.234.069.464.104.687z" fill="#fdfdfd"/><path d="m200.737 106.648-2.537-1.231c-.59-2.861-1.155-6.4501-1.339-7.6489 1.646-.7715 3.285-1.896 3.285-1.896s-.05 6.2369.591 10.7759z" fill="#2b21eb"/><path d="m198.352 106.128-2.852-1.385c-.082-.252-.159-.503-.232-.749l2.933 1.424z" fill="#fdfdfd"/><path d="m195.559 65.0464s1.067.016 2.566-.2251c-.323.9508-1.605 4.9634-2.131 10.1543l-.004.0571c-.6 5.9886-1.669 9.696-2.455 12.2777-.737 2.4229-3.849 8.2732-8.702 9.1726-.177-.0723-.362-.1214-.552-.1463v-.8971c1.495-1.3589 4.907-4.8023 6.631-9.3269.893-2.3417 1.534-4.7966 2.033-7.152l.515.7977 1.124-1.0857-1.23-1.7657c.522-2.7886.876-5.3371 1.269-7.2651.805-3.9692.936-4.5955.936-4.5955z" fill="#fefcfd"/><path d="m197.676 109.923c.054.098.113.197.171.294-.416.301-1.293.929-1.349.904l-.194-.499c-.59-1.444-1.518-4.163-2.331-6.619l1.525.739c.563 1.76 1.284 3.612 2.178 5.181z" fill="#ffe3b4"/><path d="m195.996 74.9766c.572.0422 1.645.0994 2.781.0342-.057 1.1109-.164 2.9738-.314 4.7395-.237 2.7577-.693 7.2811-2.435 11.624-1.627 4.0537-5.915 6.5588-9.875 6.6594-.079-.3451-.241-.6659-.47-.9355-.23-.2695-.521-.4798-.849-.6131 4.853-.9005 7.965-6.7497 8.702-9.1725.787-2.5829 1.855-6.2892 2.455-12.2789 0-.0194.003-.0389.005-.0571z" fill="url(#B)"/><path d="m196.864 97.7686c.183 1.1988.747 4.7884 1.337 7.6494l-2.932-1.424c-.521-1.75-.949-3.526-1.283-5.3214.689-.1258 1.503-.3246 2.267-.6355.201-.0823.405-.1725.611-.2685z" fill="#3858d6"/><path d="m193.97 104c.813 2.458 1.741 5.176 2.331 6.62l.194.499s-4.451-1.876-6.901-4.371c-.079-.083-.157-.166-.235-.25l-.022-.023c-1.689-1.813-3.188-3.795-4.472-5.915.311-.131.586-.333.806-.5893z" fill="#15134a"/><path d="m196.035 63.6055v.5714h-.806c.14-.128.347-.32.605-.5714z" fill="#fefefe"/><path d="m186.306 63.6055h9.526c-.258.2514-.464.4423-.606.5714h-9.066c.077-.1863.126-.3794.146-.5714z" fill="#ff7f16"/><path d="m195.496 104.74-1.524-.739-.249-.757 1.543.749c.074.248.152.497.232.747z" fill="#fdfdfd"/><path d="m199.189 63.3582c-1.353.4792-2.753.8162-4.175 1.0057 0 0 .074-.0628.212-.1885h.807v-.5715h-.201c1.04-1.016 2.923-3.0228 4.783-5.848.663-1.0057 1.354-2.0457 2.147-3.0468l1.675-.8035 1.693-2.4857c2.263-1.6228 5.263-2.76 9.564-2.8457v2.4l-.135.0046c-.143.0091-.284.0263-.425.0377-.071.008-.142.0137-.212.0229l-.211.0331c-.141.0229-.282.0389-.421.0686l-.416.0914c-.139.0286-.274.0709-.411.1063l-.206.0548c-.068.0195-.135.0423-.202.064-.134.0435-.27.0869-.402.1338-.531.1942-1.046.4217-1.548.6708-.502.2537-.983.5383-1.452.8434-.931.6116-1.806 1.3025-2.618 2.0652-.804.7646-1.565 1.5737-2.218 2.4651.761-.7923 1.572-1.5352 2.428-2.224.425-.3451.859-.6765 1.307-.9874s.901-.6126 1.369-.888c.236-.1349.469-.2743.711-.3954.712-.3843 1.456-.7077 2.223-.9669.511-.1623 1.028-.3086 1.553-.4.13-.0274.263-.0423.395-.0628l.197-.0298c.066-.0091.133-.0125.199-.0194.134-.0114.265-.0251.398-.0343l.096-.0034v2.2206c-.651.0228-3.603.2148-6.069 1.8697-2.791 1.872-3.981 3.0606-5.787 4.4743-1.808 1.4148-3.227 2.4263-4.648 3.1691z" fill="#fefefe"/><path d="m193.354 76.9072 1.23 1.7657-1.124 1.0858-.515-.7966c.149-.6949.284-1.3829.409-2.0549z" fill="#fefcfd"/><path d="m193.983 98.6719c.164.896.58 2.9781 1.282 5.3221l-1.543-.748c-.785-2.395-1.406-4.365-1.406-4.365s.711-.0343 1.667-.2091z" fill="#ffe3b4"/><path d="m193.974 104.001-8.3-4.0295c.126-.1474.232-.3097.314-.4822l7.737 3.7557z" fill="#fdfdfd"/><path d="m188.214 55.1364c.849-.12 1.969-.2057 3.118-.0914-2.164 1.9928-4.078 4.2404-5.701 6.6937-.256-.2425-.566-.4201-.905-.518-.339-.0978-.696-.113-1.042-.0443.325-.5554.768-1.2069 1.252-1.8777 1.192-1.6457 2.645-3.4046 3.278-4.1623z" fill="#e03528"/><path d="m189.598 106.752c2.45 2.494 6.901 4.37 6.901 4.37l.685 1.747c-2.792-1.689-5.344-3.747-7.586-6.117z" fill="#069ebf"/><path d="m187.45 55.2605c.217-.0423.474-.0857.762-.1257-.632.7565-2.084 2.5177-3.276 4.1634l-.571-.2549c.949-1.324 1.979-2.5874 3.085-3.7828z" fill="#ff5b32"/><path d="m185.215 61.4291c.471.2705.825.7063.994 1.2229.155.4759.145.9906-.029 1.4599-.175.4693-.503.8656-.932 1.1241l-.275-.4149-.712.6732.032.0491c-.196.0188-.394.0096-.587-.0274-.248-.0444-.486-.1323-.704-.2594-.252-.1446-.472-.3377-.649-.568-.176-.2303-.305-.4932-.38-.7737-.093-.3418-.101-.7011-.025-1.0469v-.0023c.048-.2171.131-.4286.245-.6263v-.0023c.196-.3353.475-.6138.812-.8078.336-.194.717-.2969 1.106-.2984.385.0022.768.104 1.104.2982zm-1.804 3.1223c.05.0286.102.0549.154.0755l.067.0262c.024.0095.049.0179.074.0252h.003c.023.008.046.0137.069.0194.027.0076.054.0133.081.0172.021.0039.041.0069.062.0091l.042.0046c.078.0123.156.0138.234.0045.028-.0022.055-.0034.082-.008l.065-.0091h.005c.016-.003.032-.0065.048-.0103.014-.0023.028-.0046.042-.0091.006 0 .013-.0023.02-.0046l.021-.0046c.071-.0196.141-.0449.209-.0754l.052-.0263c.063-.0294.122-.065.178-.1063l.009-.0068c.015-.0104.029-.0219.043-.0343.07-.0506.133-.1102.188-.1772.013-.0139.026-.0288.037-.0445l.035-.0423c.03-.0423.06-.088.088-.1337.011-.0229.024-.0446.034-.0675.027-.0515.05-.1049.068-.16l.016-.0422c.008-.0198.014-.04.019-.0606l.009-.0343c.003-.0137.008-.0263.009-.04l.007-.0331c.008-.0431.014-.0866.018-.1303.004-.0229.005-.0423.006-.0629l.001-.0686c0-.0561-.003-.1122-.01-.168-.001-.0148-.003-.0285-.007-.0434-.004-.0411-.012-.0817-.024-.1211v-.0023l-.012-.0423c-.012-.0501-.029-.099-.05-.1463l-.03-.0674c-.025-.0555-.054-.1087-.089-.1589-.031-.0533-.068-.1031-.109-.1485l-.028-.0309-.042-.0457c-.021-.0215-.042-.0421-.064-.0617l-.009-.008c-.048-.0431-.099-.0821-.153-.1166-.156-.0963-.329-.1611-.51-.1905-.181-.0295-.366-.023-.544.019-.178.0419-.346.1186-.495.2256-.148.107-.275.2422-.371.3979s-.161.3289-.19.5096c-.03.1807-.023.3655.019.5437.042.1783.118.3465.225.4951s.242.2747.398.371z" fill="#fefcfd"/><path d="m184.832 96.4851c.327.1344.617.3451.847.6145.229.2694.39.5896.471.934.104.4615.059.9442-.13 1.378s-.511.7954-.921 1.0334c-.328.191-.701.294-1.081.298s-.755-.091-1.088-.275c-.354-.196-.649-.4843-.853-.8332-.188-.3225-.289-.6876-.295-1.0606-.011-.545.179-1.0749.535-1.488.355-.4132.851-.6806 1.392-.7508l.074-.008c.357-.0321.717.0219 1.049.1577zm-1.667.9234-.002.0023c-.022.0156-.044.0324-.065.0503-.024.0189-.047.0391-.068.0605-.025.0219-.048.0456-.069.0709-.049.0542-.094.1123-.135.1737l-.001.0023c-.032.0489-.062.1001-.087.1531l-.003.0069-.034.0766c-.011.0285-.022.056-.03.0845-.009.0248-.017.05-.023.0755l-.006.0228c-.007.0243-.012.0492-.016.0743-.04.2065-.034.4205.02.624.033.1195.08.2346.14.3429.129.2229.316.4058.543.5285.226.1226.482.1802.738.1663l.042-.0023c.027-.002.055-.0054.082-.0102.022-.003.044-.0068.066-.0115l.007-.0011c.029-.0046.055-.0114.082-.0172l.012-.0034c.021-.0055.043-.012.064-.0194l.023-.008.078-.0286c.03-.0114.058-.0244.086-.0388.053-.0246.103-.0532.151-.0858l.023-.0148.063-.0457.002-.0035.045-.0354v-.0034c.023-.0171.044-.0362.064-.0572.098-.0939.182-.2017.249-.3199.012-.0206.023-.0415.034-.0629l.01-.0229c.003-.0023.003-.0068.005-.0103.01-.0228.02-.0434.028-.0674.021-.0466.038-.0947.051-.144l.016-.0606c.002-.0085.004-.0173.005-.0262l.008-.0412.008-.0468c.004-.0138.004-.0286.006-.0423.012-.0987.013-.1983.004-.2972l-.002-.0148-.004-.0412c-.01-.099-.034-.196-.072-.288-.008-.0241-.018-.0478-.029-.0708l-.001-.0035c-.064-.1494-.153-.2864-.265-.4045l-.021-.0229-.021-.0206c-.044-.0444-.091-.085-.142-.1211-.049-.0366-.101-.0698-.154-.0994l-.007-.0035c-.013-.008-.026-.0148-.04-.0205-.034-.0186-.069-.0346-.105-.048-.029-.0115-.055-.0229-.085-.0309-.001 0-.002 0-.003-.0023-.022-.0074-.043-.0139-.065-.0194l-.036-.0091c-.017-.0046-.034-.0085-.051-.0115-.02-.0047-.04-.0081-.06-.0103-.007-.0022-.012-.0022-.019-.0022-.039-.0082-.078-.0128-.118-.0138-.03-.0022-.059-.0022-.089-.0022-.04-.0004-.08.0015-.12.0057l-.035.0023-.051.008c-.008 0-.016 0-.024.0034-.018.0017-.036.0047-.053.0091l-.003.0012c-.018.0025-.036.0063-.053.0114-.022.0035-.042.0093-.062.0171-.016.0035-.03.0092-.042.0138-.059.0176-.115.0405-.17.0685-.077.0348-.149.0794-.214.1326z" fill="#fdfdfd"/><path d="m185.965 62.1363 17.699-8.4937c-.316.3485-.616.7051-.901 1.0663l-16.551 7.9428c-.06-.1812-.143-.3552-.247-.5154z" fill="#fff3bf"/><path d="m185.218 62.4948c.039.0485.074.1005.103.1555.021.0331.037.0663.054.1005.033.0686.06.1402.08.2138l.011.0422v.0035l.016.0685c.004.0172.007.0343.008.0515.009.041.014.0827.015.1245.002.0293.003.0587.002.088 0 .0229 0 .0446-.002.0686-.003.0645-.01.1287-.023.192-.002.0114-.003.0229-.007.0332-.004.0251-.01.0499-.018.0742-.004.0206-.011.0409-.018.0606-.004.016-.009.0297-.015.0434-.018.0551-.041.1087-.069.16-.05.1047-.116.2016-.194.288-.04.0458-.083.0892-.129.1292-.011.0114-.023.0206-.035.0297l-.023.0183-.046.0343c-.058.0446-.12.0826-.186.1131l-.052.0252c-.067.0305-.137.0557-.209.0754l-.02.0046c-.007.0022-.014.0038-.021.0045l-.041.0103c-.016.0039-.032.007-.048.0092h-.006l-.065.0102c-.027.0028-.053.005-.08.0069-.03.0034-.057.0034-.088.0034-.023 0-.046 0-.069-.0023l-.048-.0022c-.011 0-.021-.0023-.03-.0035-.035-.0022-.069-.0068-.103-.0137-.051-.008-.102-.0203-.151-.0366h-.002c-.049-.0141-.096-.0313-.142-.0514-.233-.0982-.435-.2579-.584-.4621-.149-.2041-.24-.445-.263-.6968-.022-.2518.024-.505.134-.7325.111-.2275.281-.4207.492-.5589.256-.1678.56-.247.865-.2253.305.0216.594.143.823.3453l.009.008.064.0617c.015.0146.029.0298.043.0458l.027.0308z" fill="#1e205d"/><path d="m185.474 63.6376.006-.0331c-.002.0111-.005.0222-.007.0331z" fill="#1e205d"/><path d="m184.976 64.8213.274.4148c-.286.1715-.613.2812-.953.3086l-.033-.0491z" fill="#fefcfd"/><path d="m184.897 99.5957c-.014.0127-.029.0249-.043.0366z" fill="#22245c"/><path d="m183.663 58.7305.706.3131c-.623.8665-1.208 1.7587-1.756 2.6743-.162.1486-.303.3234-.416.5189v.0022c-.114.1978-.198.4103-.244.6263v.0023c-3.147 5.6823-4.808 12.067-4.829 18.5623-.209-.1862-.46-.3187-.731-.3863.104-8.0026 2.639-15.7844 7.268-22.3131z" fill="#06c6fc"/><path d="m184.296 65.5439c.339-.0274.666-.1348.953-.3085l.288.4365 7.817 11.2332c-.128.6869-.264 1.3723-.408 2.056z" fill="#ff5359"/><path d="m190.912 86.1129c-1.726 4.5246-5.137 7.968-6.631 9.3269v-29.8926c.005 0 .009 0 .015-.0023l8.65 13.4172c-.499 2.3565-1.14 4.8114-2.034 7.152z" fill="#15134a"/><path d="m184.282 95.4395v.8971c-.165-.0212-.332-.0243-.498-.0092l-.075-.0811v-.3063c.127-.1051.322-.2743.573-.5005z" fill="#fefcfd"/><path d="m184.223 97.1543c.019.0034.04.0057.059.0114-.02-.0043-.039-.0081-.059-.0114z" fill="#22245c"/><path d="m184.109 65.553c.057 0 .114-.0023.171-.0069v29.8938c-.249.2263-.445.3954-.571.5017v-30.424c.131.0228.266.0354.4.0354z" fill="#f89120"/><path d="m184.002 99.9254c-.207.0011-.411-.0437-.597-.1312-.187-.0875-.352-.2155-.484-.3747-.131-.1592-.225-.3456-.275-.5457-.051-.2001-.056-.4089-.016-.6113l.018-.0765.005-.0229.023-.0743c.018-.0551.039-.1089.064-.1611l.004-.0069c.026-.0529.055-.1045.086-.1543l.002-.0011c.016-.0251.034-.0503.052-.0754.015-.0195.029-.0377.046-.0572.011-.0145.023-.0283.036-.0411l.024-.0274c.015-.0153.03-.0297.046-.0435l.007-.008c.039-.0372.081-.0716.126-.1028 0-.0023 0-.0023.001-.0012v-.0011l.004-.0034c.02-.0149.04-.0286.061-.0412.022-.0152.044-.0293.067-.0423.029-.016.058-.032.086-.0457.086-.0457.178-.0791.273-.0994.017-.0052.035-.009.053-.0114h.003l.053-.0103c.075-.016.152-.0226.23-.0195.054-.0001.109.003.163.0092l.043.0068c.044.0056.088.0136.131.024l.034.0092c.023.0057.046.0126.066.0206l.004.0011c.048.0161.096.0352.143.0571l.046.0218c.014.0068.028.0125.04.0205l.007.0023c.055.0282.106.0626.155.1006.051.0359.099.0765.142.1211.007.008.015.0137.021.0217l.021.0218c.112.1175.202.2546.265.4045l.001.0035c.011.023.02.0467.028.0708.008.0172.013.0343.019.0526.018.0512.032.104.041.1577.009.0442.015.0888.019.1337l.004.0583c.004.08.002.16-.008.24l-.005.0411-.009.0458c-.002.0142-.005.0283-.008.0422-.015.0799-.038.1577-.071.232l-.03.0663-.004.0115c-.002.008-.007.0148-.012.0228-.009.0213-.02.0419-.032.0617-.011.0218-.024.0428-.038.0629-.049.0778-.106.1503-.17.216-.012.0126-.026.0286-.042.0411l-.011.0115-.053.0457-.043.0365-.004.0023-.064.0469-.02.0137-.071.0434c-.026.0152-.053.0293-.08.0423l-.005.0023c-.058.0303-.12.0551-.183.0743-.025.009-.05.0167-.076.0228-.027.0066-.055.0124-.082.0172-.002.0023-.004.0023-.006.0023-.023.0048-.046.0086-.069.0114l-.081.0091c-.038.0054-.076.0077-.114.0069z" fill="#22245c"/><path d="m183.778 64.6962c-.023-.0057-.047-.0114-.069-.0194z" fill="#1e205d"/><path d="m183.709 96.2471.074.08-.074.0091z" fill="#fefcfd"/><path d="m183.477 65.4609c-2.542 5.054-3.86 10.6345-3.848 16.2915-.01 5.139 1.077 10.221 3.189 14.9063.271-.1701.575-.2796.892-.3212v-30.8194c-.079-.0147-.156-.0338-.233-.0572z" fill="#272742"/><path d="m183.656 97.1787-.049.0126c.016-.0055.032-.0097.049-.0126z" fill="#22245c"/><path d="m182.934 100.469c.294.161.621.253.956.269.335.017.67-.043.978-.176 1.52 2.508 3.337 4.822 5.414 6.891 2.074 2.076 4.392 3.894 6.903 5.413l.246.621c-1.198 1.097-5.568-1.549-8.183-4.536-.624-.717-1.228-1.45-1.813-2.2l-.003-.003c-1.967-2.51-3.642-4.997-3.642-4.997z" fill="#069ebf"/><path d="m187.429 106.745c-1.869-2.109-3.568-4.362-5.081-6.739.167.185.364.341.583.462l.857 1.281s1.674 2.487 3.64 4.996z" fill="#069ebf"/><path d="m182.611 61.7192c.548-.9157 1.133-1.8079 1.756-2.6743l.57.2537c-.446.6062-.864 1.2324-1.254 1.8766-.4.0789-.772.2697-1.072.5452z" fill="#ff5b32"/><path d="m177.125 81.4304c.02-6.495 1.681-12.8798 4.826-18.5622-.101.4587-.053.9377.137 1.3673.19.4297.512.7874.919 1.0212.149.0869.308.1543.471.2035-2.542 5.0542-3.86 10.6352-3.848 16.2925-.01 5.1395 1.077 10.2218 3.189 14.9075-.475.2971-.814.7543-.959 1.2994-.055.2046-.08.4114-.074.6171-.823-1.4331-2.066-3.7005-3.094-6.0422v-.0023l-.002-.0035c-.817-2.784-1.318-5.6512-1.493-8.5474" fill="#ece8e7"/><path d="m178.768 92.793c.249.7725 1.12 3.1885 3.17 6.5543.096.2424.234.4657.409.6597 1.514 2.376 3.213 4.63 5.081 6.739l.004.004c.589.754 1.206 1.508 1.811 2.2 2.616 2.986 6.986 5.633 8.184 4.534.042.106.077.192.103.254.228.565.146.857-.372 1.332-.144.125-.324.2-.515.214-8.505-4.897-14.991-12.922-17.875-22.491z" fill="#03b9ff"/><path d="m177.086 87.9199c.308 1.4137.906 3.0275 1.601 4.608l.001.0023.001.0023c.006.0222.013.0443.02.0663l.005.0194c.01.035.02.0697.032.104l.011.0343c.002.0114.006.0229.011.0343 2.885 9.5712 9.371 17.5952 17.877 22.4932-.598.068-1.49-.24-2.583-.716h-.003l-.002-.002c-2.182-1.455-4.215-3.121-6.068-4.976-5.886-5.865-9.769-13.4376-11.096-21.6392z" fill="#0165fe"/><path d="m181.941 99.3477c-2.051-3.3657-2.92-5.7828-3.171-6.5543l-.011-.0354-.01-.0343-.011-.0343c-.007-.023-.014-.0463-.02-.0697-.004-.0068-.005-.0137-.006-.0194l-.014-.0423-.007-.0228c1.029 2.3405 2.271 4.608 3.094 6.0411.005.2629.057.5234.156.7714z" fill="#ece8e7"/><path d="m178.689 92.529c-.696-1.5805-1.294-3.1942-1.602-4.608l-.194.0298c-.189-1.1742-.325-2.3564-.407-3.5429.27-.0846.513-.232.709-.4274.179 2.9497.69 5.8114 1.494 8.5485z" fill="#0165fe"/><path d="m177.13 82.2565c-.004-.2179-.006-.4358-.006-.6537v-.1714c-.206-.1852-.456-.3189-.732-.3875-.005.3494-.005.6987 0 1.048.008.7749.04 1.5475.094 2.3166.271-.0857.514-.2331.71-.4286-.034-.5714-.057-1.1451-.066-1.7222z" fill="#06c6fc"/></g></svg>