<svg fill="none" height="160" viewBox="0 0 432 160" width="432" xmlns="http://www.w3.org/2000/svg"><path d="m0 0h432v160h-432z" fill="#fff"/><path d="m225.038 94.2974h-20.627c-.816 0-1.542.4533-1.95 1.1333l-4.896 8.8853c-.408.68-.136 1.587.59 1.995.226.136.453.181.68.181h26.294c3.219 0 5.893-2.493 6.075-5.712.226-3.5812-2.63-6.4826-6.166-6.4826z" fill="#1d91e8"/><path d="m218.918 48.9174c-2.856-1.7681-6.664-.9067-8.386 1.9494 0 .0453 0 .0453-.046.0453l-25.569 46.2415c-1.768 2.8564-.906 6.6184 1.95 8.4324.952.589 2.085.907 3.219.907 2.13 0 4.08-1.088 5.168-2.902l25.569-46.2414c1.813-2.9014.952-6.6642-1.905-8.4322z" fill="#ff4072"/><path d="m247.117 97.1987-10.835-19.494c-1.768-2.8108-5.576-3.7175-8.387-1.9494-2.81 1.7227-3.717 5.4402-2.04 8.2963l10.835 19.5394c1.088 1.813 3.038 2.901 5.168 2.901 2.857 0 5.305-1.949 5.985-4.669.362-1.632.09-3.219-.726-4.6243zm-22.712-34.4091c-3.355 0-6.03 2.72-6.03 6.0295 0 3.3094 2.72 6.0295 6.03 6.0295 3.354 0 6.029-2.7201 6.029-6.0295.091-3.3095-2.629-6.0295-6.029-6.0295z" fill="#ffcd27"/></svg>