<svg fill="none" height="160" viewBox="0 0 432 160" width="432" xmlns="http://www.w3.org/2000/svg" xmlns:xlink="http://www.w3.org/1999/xlink"><linearGradient id="a" gradientUnits="userSpaceOnUse" x1="216" x2="216" y1="113.001" y2="46.999"><stop offset="0" stop-color="#415eed"/><stop offset="1" stop-color="#3651da"/></linearGradient><linearGradient id="b" gradientUnits="userSpaceOnUse" x1="183" x2="249.002" y1="46.999" y2="112.999"><stop offset="0" stop-color="#f7f8fc" stop-opacity="0"/><stop offset=".119535" stop-color="#f7f8fc" stop-opacity=".466594"/><stop offset=".275284" stop-color="#f7f8fc" stop-opacity=".1"/><stop offset=".525208" stop-color="#f7f8fc"/><stop offset=".821602" stop-color="#f7f8fc" stop-opacity="0"/><stop offset="1" stop-color="#f7f8fc" stop-opacity="0"/></linearGradient><clipPath id="c"><path d="m0 0h432v160h-432z"/></clipPath><clipPath id="d"><path d="m183 47h66v66h-66z"/></clipPath><g clip-path="url(#c)"><path d="m0 0h432v160h-432z" fill="#fff"/><g clip-path="url(#d)"><path d="m223.201 47.0259c3.632.3547 6.249 4.0686 6.603 9.3701.03.4486.041 1.5914.016 1.5914-.008 0-.207-.1153-.442-.2561-1.264-.7561-3.045-1.6186-4.045-1.9589-.949-.3224-2.066-.0327-3.36.8711-1.107.7727-2.179 1.8069-4.158 4.0115-1.702 1.8952-2.336 2.5619-2.944 3.099-1.208 1.0666-1.967 1.254-2.291.5652-.279-.5928-.293-3.0325-.029-4.9167 1.007-7.1856 5.875-12.8428 10.65-12.3766zm-20.306 3.3151c2.503.4038 5.019 1.8498 7.266 4.1754l.138.1426-.556.139c-1.937.4836-4.231 1.3446-4.756 1.7844-.737.6191-1.185 1.7159-1.383 3.381-.136 1.1583-.129 2.7865.027 5.5819.179 3.1997.143 4.4098-.153 5.196-.306.8114-.807.8686-1.625.1853-3.134-2.6174-5.528-6.6407-6.286-10.566-.986-5.1013.916-9.141 4.688-9.9604.732-.1589 1.864-.1843 2.64-.0592zm36.533 9.0191c6.532.692 8.32 6.8622 3.744 12.9166-.483.6391-1.708 2.0093-1.795 2.0093-.011 0-.081-.25-.158-.5553-.467-1.8659-1.294-4.1056-1.731-4.6862-.602-.8008-1.845-1.3014-3.671-1.479-.93-.0905-3.146-.0975-4.164-.0131-.342.0283-3.02.1542-3.594.1688-2.623.0673-3.778-.3947-3.334-1.3337.107-.2252.244-.4049.702-.9169 3.675-4.114 9.374-6.6009 14.001-6.1105zm-45.401 6.6987c.04.017-.006.1101-.289.5833-.788 1.3169-1.609 3.0088-1.961 4.038-.312.9147-.038 2.0384.796 3.2579.808 1.1824 1.932 2.3451 4.378 4.5297 2.433 2.173 3.27 3.0543 3.639 3.8323.307.6485.135 1.0727-.501 1.2305-.765.1899-3.182.1592-4.711-.06-5.273-.7559-9.865-3.5787-11.631-7.1505-2.384-4.8211 1.127-9.346 7.88-10.1557.78-.0935 2.272-.1591 2.4-.1055zm41.315 10.3344c2.773.2205 5.626 1.0558 7.78 2.2778.064.0361.174.0982.245.1378 1.655.9217 3.251 2.3265 4.218 3.7129 1.544 2.2149 1.836 4.5942.818 6.6638-1.298 2.6364-4.59 4.4028-8.79 4.7161-.414.0309-1.631.0491-1.656.0249-.008-.008.055-.1237.14-.2574.815-1.2874 2-3.7238 2.214-4.5534.071-.2751.078-.8468.013-1.1562-.338-1.6259-1.669-3.2488-5.369-6.5478-3.174-2.8304-4.047-3.993-3.5-4.6571.216-.262.499-.3245 1.827-.4037.287-.0171 1.67.0114 2.06.0423zm-44.668 9.306c0 .0243.058.2735.128.5536.52 2.0678 1.335 4.2331 1.801 4.7819.992 1.1694 3.178 1.6149 7.118 1.4508.693-.0289 2.234-.1092 2.424-.1261.941-.0843 3.178-.0856 3.781-.0022 1.042.1437 1.514.4461 1.48.9475-.019.2856-.093.3985-.757 1.1597-1.873 2.1465-4.476 3.9831-7.173 5.0614-1.885.7542-3.6 1.1282-5.382 1.1752-5.424.142-8.664-3.2783-7.671-8.0967.452-2.1958 1.773-4.4932 3.743-6.5116.43-.4407.508-.5016.508-.3935zm38.972 3.0086c.304.1423 1.347 1.0741 2.058 1.8387 2.362 2.5391 4.029 5.684 4.705 8.8799.216 1.0216.278 1.6496.277 2.8126-.001 1.186-.058 1.696-.29 2.59-1.501 5.786-7.82 6.592-13.506 1.722-.539-.461-1.276-1.189-1.223-1.206.024-.008.29-.073.591-.146 1.761-.423 4.125-1.293 4.709-1.732.637-.478 1.093-1.361 1.334-2.584.276-1.3964.3-2.9769.103-6.6638-.129-2.3921-.124-3.5296.016-4.3377.188-1.0832.593-1.4705 1.226-1.1737zm-10.537 6.6185c.28.117.398.3379.448.8401.349 3.5027-.33 7.1706-1.915 10.3456-2.997 6.004-8.365 8.228-12.135 5.029-2.158-1.831-3.461-5.237-3.463-9.05v-.599l.238.149c1.251.785 2.828 1.579 4.148 2.092.893.347 1.633.293 2.644-.191 1.416-.678 2.656-1.804 5.639-5.1199 1.588-1.7655 2.29-2.4717 2.944-2.9636.643-.4839 1.135-.6644 1.452-.5322z" fill="url(#a)"/><path d="m223.201 47.0259c3.632.3547 6.249 4.0686 6.603 9.3701.03.4486.041 1.5914.016 1.5914-.008 0-.207-.1153-.442-.2561-1.264-.7561-3.045-1.6186-4.045-1.9589-.949-.3224-2.066-.0327-3.36.8711-1.107.7727-2.179 1.8069-4.158 4.0115-1.702 1.8952-2.336 2.5619-2.944 3.099-1.208 1.0666-1.967 1.254-2.291.5652-.279-.5928-.293-3.0325-.029-4.9167 1.007-7.1856 5.875-12.8428 10.65-12.3766zm-20.306 3.3151c2.503.4038 5.019 1.8498 7.266 4.1754l.138.1426-.556.139c-1.937.4836-4.231 1.3446-4.756 1.7844-.737.6191-1.185 1.7159-1.383 3.381-.136 1.1583-.129 2.7865.027 5.5819.179 3.1997.143 4.4098-.153 5.196-.306.8114-.807.8686-1.625.1853-3.134-2.6174-5.528-6.6407-6.286-10.566-.986-5.1013.916-9.141 4.688-9.9604.732-.1589 1.864-.1843 2.64-.0592zm36.533 9.0191c6.532.692 8.32 6.8622 3.744 12.9166-.483.6391-1.708 2.0093-1.795 2.0093-.011 0-.081-.25-.158-.5553-.467-1.8659-1.294-4.1056-1.731-4.6862-.602-.8008-1.845-1.3014-3.671-1.479-.93-.0905-3.146-.0975-4.164-.0131-.342.0283-3.02.1542-3.594.1688-2.623.0673-3.778-.3947-3.334-1.3337.107-.2252.244-.4049.702-.9169 3.675-4.114 9.374-6.6009 14.001-6.1105zm-45.401 6.6987c.04.017-.006.1101-.289.5833-.788 1.3169-1.609 3.0088-1.961 4.038-.312.9147-.038 2.0384.796 3.2579.808 1.1824 1.932 2.3451 4.378 4.5297 2.433 2.173 3.27 3.0543 3.639 3.8323.307.6485.135 1.0727-.501 1.2305-.765.1899-3.182.1592-4.711-.06-5.273-.7559-9.865-3.5787-11.631-7.1505-2.384-4.8211 1.127-9.346 7.88-10.1557.78-.0935 2.272-.1591 2.4-.1055zm41.315 10.3344c2.773.2205 5.626 1.0558 7.78 2.2778.064.0361.174.0982.245.1378 1.655.9217 3.251 2.3265 4.218 3.7129 1.544 2.2149 1.836 4.5942.818 6.6638-1.298 2.6364-4.59 4.4028-8.79 4.7161-.414.0309-1.631.0491-1.656.0249-.008-.008.055-.1237.14-.2574.815-1.2874 2-3.7238 2.214-4.5534.071-.2751.078-.8468.013-1.1562-.338-1.6259-1.669-3.2488-5.369-6.5478-3.174-2.8304-4.047-3.993-3.5-4.6571.216-.262.499-.3245 1.827-.4037.287-.0171 1.67.0114 2.06.0423zm-44.668 9.306c0 .0243.058.2735.128.5536.52 2.0678 1.335 4.2331 1.801 4.7819.992 1.1694 3.178 1.6149 7.118 1.4508.693-.0289 2.234-.1092 2.424-.1261.941-.0843 3.178-.0856 3.781-.0022 1.042.1437 1.514.4461 1.48.9475-.019.2856-.093.3985-.757 1.1597-1.873 2.1465-4.476 3.9831-7.173 5.0614-1.885.7542-3.6 1.1282-5.382 1.1752-5.424.142-8.664-3.2783-7.671-8.0967.452-2.1958 1.773-4.4932 3.743-6.5116.43-.4407.508-.5016.508-.3935zm38.972 3.0086c.304.1423 1.347 1.0741 2.058 1.8387 2.362 2.5391 4.029 5.684 4.705 8.8799.216 1.0216.278 1.6496.277 2.8126-.001 1.186-.058 1.696-.29 2.59-1.501 5.786-7.82 6.592-13.506 1.722-.539-.461-1.276-1.189-1.223-1.206.024-.008.29-.073.591-.146 1.761-.423 4.125-1.293 4.709-1.732.637-.478 1.093-1.361 1.334-2.584.276-1.3964.3-2.9769.103-6.6638-.129-2.3921-.124-3.5296.016-4.3377.188-1.0832.593-1.4705 1.226-1.1737zm-10.537 6.6185c.28.117.398.3379.448.8401.349 3.5027-.33 7.1706-1.915 10.3456-2.997 6.004-8.365 8.228-12.135 5.029-2.158-1.831-3.461-5.237-3.463-9.05v-.599l.238.149c1.251.785 2.828 1.579 4.148 2.092.893.347 1.633.293 2.644-.191 1.416-.678 2.656-1.804 5.639-5.1199 1.588-1.7655 2.29-2.4717 2.944-2.9636.643-.4839 1.135-.6644 1.452-.5322z" fill="url(#b)" fill-opacity=".9"/></g></g></svg>