<svg fill="none" height="160" viewBox="0 0 432 160" width="432" xmlns="http://www.w3.org/2000/svg" xmlns:xlink="http://www.w3.org/1999/xlink"><clipPath id="a"><path d="m0 0h432v160h-432z"/></clipPath><g clip-path="url(#a)"><path d="m0 0h432v160h-432z" fill="#000"/><path d="m0 0h432v160h-432z" fill="#5340ff"/><path clip-rule="evenodd" d="m207.966 89.6479 16.391 9.5398-19.253 11.0303-16.805-9.737c-2.661-1.5421-4.299-4.3841-4.299-7.4594v-31.9923l19.636-11.0293.046 32.2099c.005 3.0642 1.636 5.8967 4.284 7.438zm16.067-19.0788-16.39-9.5398 19.254-11.0293 16.804 9.736c2.661 1.5421 4.299 4.3842 4.299 7.4594v31.9923l-19.636 11.0293-.047-32.2099c-.004-3.0642-1.635-5.8967-4.284-7.438z" fill="#fff" fill-rule="evenodd"/></g></svg>