<svg fill="none" height="160" viewBox="0 0 432 160" width="432" xmlns="http://www.w3.org/2000/svg" xmlns:xlink="http://www.w3.org/1999/xlink"><clipPath id="a"><path d="m183.787 48h64.4253v63h-64.4253z"/></clipPath><path d="m0 0h432v160h-432z" fill="#fff"/><g clip-path="url(#a)"><path clip-rule="evenodd" d="m206.889 81.185c.65.3133.637 1.1887.391 1.7458-.35.7876-.728 1.5632-1.131 2.3253-.758 1.4379-1.508 2.8401-2.251 4.2073-.622 1.144-1.238 2.2634-1.848 3.3581l-.518.925-.386.6836c-.325.5736-.617.9516-.879 1.1337-.632.4428-1.402.6303-2.313.5631-.721-.0528-1.453-.0913-2.198-.1155-3.631-.1172-8.053 1.2209-10.279 4.2986-1.969 2.721-1.996 6.459.509 8.798 1.064.993 2.672 1.645 4.146 1.711 4.841.216 8.146-4.062 10.684-7.537.438-.641.862-1.292 1.27-1.953 1.694.629 3.493 1.486 5.552 2.497l.022.011c6.361 3.021 12.711 3.75 17.614 3.922 6.621.395 14.234-.368 21.659-3.584.908-.394 1.325-1.45.933-2.359-.392-.91-1.445-1.329-2.352-.936-11.812 5.118-24.272 3.479-31.52 1.274-1.421-.493-2.935-1.115-4.62-1.915-1.775-.8715-3.509-1.7107-5.246-2.3955.426-.7611.846-1.5257 1.266-2.2896.332-.6035.663-1.2067.997-1.8074 1.897-3.4108 3.537-6.5571 4.924-9.438.449-.9345 1.156-1.4655 2.119-1.593.128-.0171.256-.0322.384-.0459l.215-.0216c.11-.0103.22-.0197.33-.0288l.471-.0359.023-.0017c.158-.0116.315-.0238.473-.0368l.299-.0262c.175-.0166.35-.0354.526-.0576 3.741-.4744 6.996-2.1064 9.763-4.8958 2.748-2.7725 4.912-6.3462 6.3-9.9203 1.321-3.3978 2.158-6.8816 2.514-10.4521.292-2.9316-.067-6.798-2.798-8.3958-3.098-1.8116-6.248.7429-8.176 3.0189-1.099 1.297-2.103 2.6725-3.002 4.1155l-.079.126-.016.0251-.014.0228c-.727 1.1685-1.475 2.3709-2.14 3.6016-.475.8808-.88 1.6357-1.213 2.2648-.487.9157-.824 1.565-1.011 1.9479-1.64 3.3444-3.393 7.0543-5.261 11.129-.244.5331-.595 1.2298-1.014 1.5825-1.16.9786-2.46.1738-3.513-.5479-1.846-1.2649-3.366-2.8177-4.559-4.6578-1.974-3.0456-3.53-6.9394-2.718-10.5053.34-1.4841-.81-2.5231-2.208-2.4231-.992.0713-1.628.6109-1.909 1.6186-.689 2.4784-.312 5.3382.526 7.7807 1.283 3.7466 3.461 7.1213 6.532 10.1236 1.348 1.3204 3.024 2.3424 4.73 3.1651zm-10.358 19.01c-2.122-.003-4.414.546-7.153 1.98-.924.76-1.577 1.73-1.243 2.847.043.143.101.287.177.434.506.975 1.612 1.208 2.625 1.01.145-.029.287-.066.427-.111 1.774-.577 3.186-1.762 4.399-3.198.078-.093.156-.187.232-.282l.105-.129.171-.219.128-.171c.084-.113.164-.228.242-.345.092-.137.179-.276.261-.417.332-.565.18-1.189-.371-1.399zm34.045-42.2054c-.238 1.9083-.781 4.0805-1.628 6.5164-1.842 5.2965-4.913 10.4605-10.242 12.8708l-.01.0043c-.79.3543-3.218 1.3372-3.762.4253-.335-.5616.169-1.5924.513-2.2971.055-.1126.106-.2169.149-.3096 2.026-4.3872 3.998-8.4266 5.917-12.1182.783-1.508 7.037-13.5513 8.662-10.0307.676 1.4661.603 3.3279.401 4.9388z" fill="#000" fill-rule="evenodd"/></g></svg>