<svg fill="none" height="160" viewBox="0 0 432 160" width="432" xmlns="http://www.w3.org/2000/svg" xmlns:xlink="http://www.w3.org/1999/xlink"><linearGradient id="a"><stop offset="0" stop-color="#7caef9"/><stop offset="1" stop-color="#4561df"/></linearGradient><linearGradient id="b" gradientUnits="userSpaceOnUse" x1="206.311" x2="206.311" xlink:href="#a" y1="64.533" y2="111.578"/><linearGradient id="c" gradientUnits="userSpaceOnUse" x1="235.061" x2="235.061" xlink:href="#a" y1="48.8513" y2="76.7296"/><clipPath id="d"><path d="m0 0h432v160h-432z"/></clipPath><g clip-path="url(#d)"><path d="m0 0h432v160h-432z" fill="#fbf7ee"/><g stroke="#1d1b1e"><path d="m206.311 64.533c1.697 12.2193 11.303 21.8253 23.523 23.5222-12.22 1.697-21.826 11.3029-23.523 23.5228-1.697-12.2199-11.304-21.8258-23.523-23.5228 12.219-1.6969 21.826-11.3029 23.523-23.5222z" fill="url(#b)" stroke-width="1.4"/><path d="m235.061 48.8513c1.005 7.2411 6.698 12.9335 13.939 13.9391-7.241 1.0057-12.934 6.6981-13.939 13.9392-1.006-7.2411-6.699-12.9335-13.94-13.9392 7.241-1.0056 12.934-6.698 13.94-13.9391z" fill="url(#c)" stroke-width="1.3"/></g></g></svg>