<svg fill="none" height="160" viewBox="0 0 432 160" width="432" xmlns="http://www.w3.org/2000/svg" xmlns:xlink="http://www.w3.org/1999/xlink"><linearGradient id="a" gradientUnits="userSpaceOnUse" x1="191.649" x2="232.153" y1="83.055" y2="83.055"><stop offset="0" stop-color="#fe2b7c"/><stop offset="1" stop-color="#fb0bf1"/></linearGradient><clipPath id="b"><path d="m0 0h432v160h-432z"/></clipPath><g clip-path="url(#b)"><path d="m0 0h432v160h-432z" fill="#0c0c0c"/><path clip-rule="evenodd" d="m239.37 96.3805c2.969-.0494 5.729-1.2665 7.768-3.4235 3.997-4.2448 3.779-11.1513-.475-15.4059l-11.33-11.3292c-4.245-4.2447-11.151-4.2447-15.405-.0099-1.059 1.0489-1.059 2.7705 0 3.8193 1.058 1.0587 2.77 1.0587 3.819 0 2.147-2.1372 5.63-2.1372 7.767 0l11.329 11.3293c2.207 2.2065 2.365 5.7389.357 7.8761-1.03 1.0883-2.415 1.7018-3.909 1.7316-1.494-.0101-2.899-.5442-3.958-1.6031l-23.173-23.1631c-4.245-4.2447-11.151-4.2447-15.396 0l-11.576 11.5768c-2.098 2.0975-3.236 4.8976-3.186 7.866.049 2.9684 1.266 5.729 3.423 7.7673 4.235 3.9973 11.151 3.7798 15.406-.4749l5.328-5.3279c.607.2097 1.259.3236 1.938.3236 3.279 0 5.937-2.658 5.937-5.9369 0-3.2787-2.658-5.9367-5.937-5.9367s-5.937 2.658-5.937 5.9367c0 .5983.089 1.1758.253 1.7203l-5.401 5.4015c-2.207 2.2065-5.739 2.3648-7.876.3563-1.089-1.029-1.702-2.4144-1.732-3.9085-.02-1.494.544-2.8989 1.603-3.9577l11.577-11.5767c1.038-1.0389 2.414-1.6029 3.878-1.6029 1.465 0 2.84.5739 3.879 1.6029l23.173 23.1632c2.058 2.0581 4.789 3.186 7.698 3.186zm-31.273-12.4053c1.093 0 1.979-.8859 1.979-1.9789 0-1.0929-.886-1.9789-1.979-1.9789s-1.979.886-1.979 1.9789c0 1.093.886 1.9789 1.979 1.9789z" fill="url(#a)" fill-rule="evenodd"/></g></svg>