<svg fill="none" height="160" viewBox="0 0 432 160" width="432" xmlns="http://www.w3.org/2000/svg" xmlns:xlink="http://www.w3.org/1999/xlink"><clipPath id="a"><path d="m0 0h432v160h-432z"/></clipPath><clipPath id="b"><path d="m185 47.45h62v65.1h-62z"/></clipPath><g clip-path="url(#a)"><path d="m0 0h432v160h-432z" fill="#fff"/><g clip-path="url(#b)"><path d="m195.691 58.7812c2.011 1.6332 2.765 1.5085 6.539 1.2567l35.588-2.1369c.755 0 .127-.753-.125-.8781l-5.91-4.2727c-1.133-.8791-2.641-1.886-5.533-1.6342l-34.459 2.5134c-1.257.1246-1.508.7529-1.007 1.2566zm2.137 8.2936v37.4442c0 2.012 1.005 2.765 3.269 2.641l39.11-2.263c2.265-.125 2.517-1.509 2.517-3.144v-37.1927c0-1.632-.628-2.5122-2.014-2.3866l-40.871 2.3866c-1.508.1268-2.011.8813-2.011 2.5145zm38.61 2.0086c.25 1.132 0 2.263-1.134 2.3902l-1.885.3755v27.6436c-1.636.8793-3.145 1.3823-4.402 1.3823-2.013 0-2.517-.629-4.025-2.5127l-12.326-19.3507v18.7224l3.9.8802s0 2.2608-3.146 2.2608l-8.676.503c-.252-.503 0-1.7587.88-2.0103l2.264-.6274v-24.7543l-3.143-.2519c-.252-1.132.376-2.7642 2.137-2.8909l9.307-.6273 12.828 19.6026v-17.3411l-3.271-.3754c-.251-1.3839.754-2.3888 2.012-2.5134zm-47.541-18.8465 35.844-2.6396c4.401-.3775 5.534-.1246 8.3 1.8851l11.442 8.0416c1.888 1.3829 2.517 1.7594 2.517 3.2669v44.1061c0 2.764-1.007 4.398-4.528 4.649l-41.624 2.513c-2.643.126-3.901-.25-5.285-2.011l-8.425-10.9317c-1.51-2.0122-2.138-3.5177-2.138-5.279v-39.2041c0-2.2605 1.007-4.146 3.897-4.3963z" fill="#000"/></g></g></svg>