<svg fill="none" height="160" viewBox="0 0 432 160" width="432" xmlns="http://www.w3.org/2000/svg" xmlns:xlink="http://www.w3.org/1999/xlink"><mask id="a" height="42" maskUnits="userSpaceOnUse" width="73" x="179" y="59"><path d="m251.5 59.7588h-72v40.4822h72z" fill="#fff"/></mask><path d="m0 0h432v160h-432z" fill="#fff"/><g mask="url(#a)"><path clip-rule="evenodd" d="m231.133 59.7583c5.384.0039 10.547 2.1342 14.363 5.9259s5.974 8.9367 6.004 14.3117c-.015 3.9434-1.177 7.7977-3.345 11.0937-2.168 3.2961-5.249 5.8918-8.868 7.4713-3.619 1.5801-7.62 2.0751-11.516 1.4256-3.896-.6493-7.518-2.4151-10.427-5.0826-3.579-2.9816-7.175-5.9209-10.788-8.8181l5.173-4.122c5.047 4.04 9.422 7.6105 11.147 8.9969 2.371 1.7702 5.252 2.7272 8.212 2.7282 7.399 0 13.954-6.1645 13.827-13.693-.025-2.5415-.753-5.0267-2.104-7.1813-1.35-2.1546-3.27-3.895-5.548-5.0292s-4.826-1.6181-7.362-1.3983c-2.536.2199-4.962 1.1348-7.01 2.644-10.975 9.0939-22.293 17.8896-33.469 26.7151-4.525 3.1829-9.885.0522-9.885-5.2177-.06-7.0069-.06-14.0086 0-21.0055.015-5.2923 5.368-8.4602 9.9-5.2923l12.191 9.8616-5.039 4.0699-10.505-8.2739c-.054 6.7483-.054 13.4867 0 20.2153 10.535-8.1994 21.009-16.4958 31.29-24.9933 3.75-3.446 8.662-5.3566 13.759-5.352z" fill="#000" fill-rule="evenodd"/></g></svg>