<svg fill="none" height="160" viewBox="0 0 432 160" width="432" xmlns="http://www.w3.org/2000/svg"><path d="m0 0h432v160h-432z" fill="#fff"/><path d="m195.453 112v-60.6797h23.94c4.603 0 8.523.879 11.763 2.637 3.239 1.7382 5.708 4.1579 7.407 7.259 1.719 3.0814 2.578 6.6369 2.578 10.6664s-.869 7.585-2.608 10.6664c-1.738 3.0814-4.256 5.4813-7.555 7.1998-3.279 1.7185-7.249 2.5777-11.911 2.5777h-15.259v-10.2812h13.185c2.469 0 4.504-.4247 6.104-1.274 1.62-.8692 2.824-2.0642 3.615-3.5851.809-1.5407 1.214-3.3086 1.214-5.3036 0-2.0148-.405-3.7727-1.214-5.2739-.791-1.521-1.995-2.6962-3.615-3.5258-1.62-.8494-3.674-1.2741-6.163-1.2741h-8.652v50.1911z" fill="#000"/></svg>