<svg fill="none" height="160" viewBox="0 0 432 160" width="432" xmlns="http://www.w3.org/2000/svg" xmlns:xlink="http://www.w3.org/1999/xlink"><filter id="a" color-interpolation-filters="sRGB" filterUnits="userSpaceOnUse" height="66" width="66" x="183" y="47"><feFlood flood-opacity="0" result="BackgroundImageFix"/><feColorMatrix in="SourceAlpha" result="hardAlpha" type="matrix" values="0 0 0 0 0 0 0 0 0 0 0 0 0 0 0 0 0 0 127 0"/><feOffset dy="1"/><feGaussianBlur stdDeviation=".5"/><feColorMatrix type="matrix" values="0 0 0 0 0.750708 0 0 0 0 0.750708 0 0 0 0 0.750708 0 0 0 0.5 0"/><feBlend in2="BackgroundImageFix" mode="normal" result="effect1_dropShadow_2881_10516"/><feBlend in="SourceGraphic" in2="effect1_dropShadow_2881_10516" mode="normal" result="shape"/></filter><radialGradient id="b" cx="3332.03" cy="47.5254" gradientUnits="userSpaceOnUse" r="6295"><stop offset="0" stop-color="#061b33"/><stop offset="1" stop-color="#040519"/></radialGradient><clipPath id="c"><path d="m183 47h66v66h-66z"/></clipPath><path d="m0 0h432v160h-432z" fill="#0f172a"/><g clip-path="url(#c)"><g filter="url(#a)" stroke="#fff"><path d="m247.475 79.0004c0-17.3832-14.091-31.475-31.475-31.475-17.383 0-31.475 14.0918-31.475 31.475s14.092 31.4746 31.475 31.4746c17.384 0 31.475-14.0914 31.475-31.4746z" fill="url(#b)" stroke-width="1.05"/><path clip-rule="evenodd" d="m218.495 67.8884c0-.6131.324-1.1675.699-1.6563.386-.5008.609-1.0949.609-1.7322 0-1.7892-1.756-3.2382-3.924-3.2382s-3.924 1.4507-3.924 3.2382c0 .6373.223 1.2314.608 1.7322.375.4888.7 1.0432.7 1.6563.001.2992-.12.5862-.336.7955s-.508.3229-.81.315c-2.427-.0693-4.849-.2421-7.261-.5182.324 2.7858.511 5.6129.549 8.4746.004.3032-.116.595-.332.8102-.215.2152-.509.3358-.815.3348-.619 0-1.179-.3212-1.673-.6925-.5-.3867-1.115-.5986-1.749-.6027-1.807 0-3.271 1.7391-3.271 3.8858s1.466 3.8858 3.271 3.8858c.643 0 1.243-.221 1.749-.6027.494-.3713 1.054-.6925 1.673-.6925.54 0 .968.449.928.9844-.217 2.9282-.591 5.8429-1.12 8.7319 2.647.3281 5.333.5336 8.051.6114.302.0079.594-.1057.81-.315s.337-.4963.336-.7955c0-.6131-.325-1.1675-.7-1.6563-.39-.495-.604-1.1041-.608-1.7322 0-1.7875 1.758-3.2382 3.924-3.2382 2.168 0 3.924 1.4507 3.924 3.2382 0 .6373-.223 1.2314-.609 1.7322-.375.4888-.697 1.0432-.697 1.6563 0 .5751.483 1.0345 1.064 1.0017 3.173-.1849 6.333-.5481 9.465-1.0881.474-2.6972.813-5.416 1.015-8.1464.019-.2552-.071-.5064-.248-.6932-.176-.1868-.423-.2924-.681-.2912-.62 0-1.179.3212-1.673.6925-.506.3817-1.106.6027-1.749.6027-1.806 0-3.271-1.7391-3.271-3.8858s1.465-3.8858 3.271-3.8858c.645 0 1.243.221 1.749.6027.494.3713 1.053.6925 1.674.6925.306.001.6-.1196.816-.3348s.335-.507.332-.8102c-.042-3.0951-.257-6.1855-.645-9.2569-3.29.5906-6.646.9913-10.057 1.1899-.278.0153-.549-.0836-.751-.2733-.201-.1896-.314-.4532-.313-.7284z" fill-rule="evenodd" stroke-width="2.625"/></g></g></svg>