<svg fill="none" height="160" viewBox="0 0 432 160" width="432" xmlns="http://www.w3.org/2000/svg" xmlns:xlink="http://www.w3.org/1999/xlink"><clipPath id="a"><path d="m0 0h432v160h-432z"/></clipPath><g clip-path="url(#a)"><path d="m0 0h432v160h-432z" fill="#111"/><path d="m233.067 111.961c-7.754.708-14.24-8.38-19.207-12.9877-2.515 18.1087-29.875 16.3897-29.86-1.9756.01-7.7176 0-26.5705 0-34.0418 0-2.6889.739-5.3931 2.119-7.6869 2.628-4.4489 7.697-7.3225 12.865-7.266 7.784.0102 26.524-.0103 34.083 0 18.386 0 20.13 27.3555 1.96 29.8186l8.621 8.6105c9.472 8.9082 2.365 25.9239-10.586 25.5339zm-4.177-10.776c5.342 5.506 13.875-3.0225 8.369-8.3591l-14.948-14.9273h-8.359v8.3591l12.921 12.9003zm-35.838-4.1822c-.123 7.6512 11.956 7.6762 11.838 0v-34.052c.103-3.8178-3.931-6.8453-7.579-5.6702-.159.0461-.308.0923-.447.1488-2.288.8467-3.879 3.1917-3.812 5.6343zm40.015-28.1458c7.681.1232 7.671-11.9408 0-11.8176h-20.3c1.539 3.2482 1.149 8.3026 1.175 11.8176z" fill="#fff"/></g></svg>