<svg fill="none" height="160" viewBox="0 0 432 160" width="432" xmlns="http://www.w3.org/2000/svg" xmlns:xlink="http://www.w3.org/1999/xlink"><clipPath id="a"><path d="m0 0h432v160h-432z"/></clipPath><clipPath id="b"><path d="m176 40h80v80h-80z"/></clipPath><g clip-path="url(#a)"><path d="m0 0h432v160h-432z" fill="#fff"/><g clip-path="url(#b)"><path clip-rule="evenodd" d="m214.155 51.3112c.957-1.58 3.25-1.58 4.207 0l31.152 51.3998c.993 1.639-.187 3.735-2.104 3.735h-62.303c-1.917 0-3.097-2.096-2.103-3.735zm-10.823 41.5894c-.332.5465.062 1.245.701 1.245h24.451c.639 0 1.033-.6985.701-1.245l-12.225-20.1722c-.319-.5267-1.084-.5267-1.403 0z" fill="#000" fill-rule="evenodd"/></g><g fill="#f2f2f2" opacity=".3"><path clip-rule="evenodd" d="m424.652 154.812c0 .668.541 1.209 1.209 1.209.667 0 1.208-.541 1.208-1.209 0-.598-.436-1.096-1.007-1.191.573.093 1.011.594 1.011 1.194 0 .665-.54 1.21-1.205 1.21h-1.355c-.289-.322-.465-.747-.465-1.213 0-.463.174-.886.461-1.207h1.302c-.644.026-1.159.557-1.159 1.207z" fill-rule="evenodd" opacity=".3"/><path clip-rule="evenodd" d="m421.629 154.812c0 .668.541 1.209 1.208 1.209s1.209-.541 1.209-1.209c0-.593-.429-1.088-.994-1.189.566.099.997.597.997 1.192 0 .665-.54 1.21-1.205 1.21h-1.355c-.289-.322-.465-.747-.465-1.213 0-.463.175-.886.461-1.207h1.303c-.645.026-1.159.557-1.159 1.207z" fill-rule="evenodd" opacity=".3"/><rect height="2.41952" opacity=".5" rx="1.2053" width="8.46833" x="418.604" y="153.605"/><g clip-rule="evenodd" fill-rule="evenodd"><path d="m426.051 153.62c.575.092 1.015.594 1.015 1.195 0 .665-.54 1.21-1.205 1.21h-1.355c.332.368.813.6 1.348.6 1.001 0 1.812-.811 1.812-1.812s-.811-1.813-1.812-1.813c-.537 0-1.02.234-1.352.605h1.304c.016-.001.032-.001.048-.001.067 0 .133.006.197.016z"/><path d="m423.041 153.621c.572.095 1.008.595 1.008 1.194 0 .665-.539 1.21-1.205 1.21h-1.355c.332.368.813.6 1.348.6 1.001 0 1.813-.811 1.813-1.812s-.812-1.813-1.813-1.813c-.537 0-1.02.234-1.352.605h1.304c.016-.001.032-.001.048-.001.07 0 .138.006.204.017z"/><path d="m419.813 156.021c-.668 0-1.209-.541-1.209-1.208 0-.668.541-1.209 1.209-1.209.667 0 1.208.541 1.208 1.209 0 .667-.541 1.208-1.208 1.208zm0 .604c-1.001 0-1.813-.811-1.813-1.812s.812-1.813 1.813-1.813 1.812.812 1.812 1.813-.811 1.812-1.812 1.812z"/></g></g></g></svg>