<svg fill="none" height="160" viewBox="0 0 432 160" width="432" xmlns="http://www.w3.org/2000/svg" xmlns:xlink="http://www.w3.org/1999/xlink"><radialGradient id="a" cx="0" cy="0" gradientTransform="matrix(45.27452058 -38.49227685 137.43656053 161.65254168 200.079 105.06)" gradientUnits="userSpaceOnUse" r="1"><stop offset="0" stop-color="#56ffe1"/><stop offset=".338542" stop-color="#fc01d8"/><stop offset=".677083" stop-color="#ff006c"/><stop offset="1" stop-color="#ffc300"/></radialGradient><mask id="b" height="50" maskUnits="userSpaceOnUse" width="72" x="180" y="53"><path d="m252 53h-72v49.846h72z" fill="#fff"/></mask><mask id="c" height="51" maskUnits="userSpaceOnUse" width="72" x="180" y="52"><path d="m252 52.9971h-72v49.8459h72z" fill="#fff"/><path clip-rule="evenodd" d="m199.937 96.1993c-7.341 0-13.292-5.9511-13.292-13.2923 0-7.3411 5.951-13.2923 13.292-13.2923s13.292 5.9512 13.292 13.2923c0 1.8354 1.488 3.3231 3.323 3.3231 1.836 0 3.323-1.4877 3.323-3.3231 0-5.288-2.1-10.3594-5.84-14.0986-2.183-2.184-4.822-3.809-7.693-4.783 3.194-2.7308 7.34-4.3799 11.872-4.3799 10.094 0 18.277 8.1829 18.277 18.2769 0 .1853-.003.3699-.009.5539h.009c4.894 0 8.861 3.9674 8.861 8.8615s-3.967 8.8615-8.861 8.8615c-.004 0-.008 0-.011 0h-18.266z" fill="#000" fill-rule="evenodd"/></mask><path d="m0 0h432v160h-432z" fill="#fff"/><g mask="url(#b)"><g mask="url(#c)"><path d="m206.344 64.0241-4.319-5.0513-8.879 7.5919 11.063 3.7532zm30.14 14.4509-6.643-.1978-.204 6.8468 6.85-.0029zm.008 0v-6.6462h-.001-.001zm-36.554 11.0769c-3.67 0-6.646-2.9756-6.646-6.6462h-13.292c0 11.0117 8.927 19.9383 19.938 19.9383zm-6.646-6.6462c0-3.6705 2.976-6.6461 6.646-6.6461v-13.2923c-11.011 0-19.938 8.9268-19.938 19.9384zm6.646-6.6461c3.671 0 6.647 2.9756 6.647 6.6461h13.292c0-11.0116-8.927-19.9384-19.939-19.9384zm6.647 6.6461c0 5.5059 4.463 9.9693 9.969 9.9693v-13.2923c1.835 0 3.323 1.4877 3.323 3.323zm9.969 9.9693c5.506 0 9.969-4.4634 9.969-9.9693h-13.292c0-1.8353 1.488-3.323 3.323-3.323zm9.969-9.9693c0-7.0506-2.801-13.8126-7.786-18.7982l-9.399 9.3991c2.492 2.4929 3.893 5.8738 3.893 9.3991zm-7.786-18.7982c-2.912-2.912-6.431-5.0787-10.258-6.3772l-4.27 12.5876c1.914.6496 3.673 1.7328 5.129 3.1887zm-8.074 4.968c2.036-1.7405 4.664-2.7851 7.552-2.7851v-13.2924c-6.174 0-11.838 2.2536-16.19 5.9748zm7.552-2.7851c6.424 0 11.631 5.2072 11.631 11.6307h13.292c0-13.7646-11.158-24.9231-24.923-24.9231zm11.631 11.6307c0 .1194-.002.2381-.005.3561l13.286.3956c.008-.25.011-.5006.011-.7517zm6.641 7.2h.008l-.005-13.2923h-.009zm.005 0c1.224 0 2.216.9919 2.216 2.2154h13.292c0-8.5647-6.943-15.5077-15.508-15.5077zm2.216 2.2154c0 1.2236-.992 2.2154-2.216 2.2154v13.2921c8.565 0 15.508-6.9428 15.508-15.5075zm-2.216 2.2154h.002-.001c-.001 0-.003 0-.004 0-.002 0-.005 0-.008 0v13.2921c-.001 0-.002 0-.002 0h.001.001.004.007zm-.011 0h-18.266v13.2921h18.266zm-18.266 0h-18.277v13.2921h18.277z" fill="url(#a)"/></g></g></svg>