<svg fill="none" height="160" viewBox="0 0 432 160" width="432" xmlns="http://www.w3.org/2000/svg" xmlns:xlink="http://www.w3.org/1999/xlink"><clipPath id="a"><path d="m0 0h432v160h-432z"/></clipPath><g clip-path="url(#a)"><path d="m0 0h432v160h-432z" fill="#fff"/><path d="m0 0h432v160h-432z" fill="#030303"/><g clip-rule="evenodd" fill-rule="evenodd"><path d="m222.4 112h-12.8c-14.138 0-25.6-11.462-25.6-25.6v-12.8c0-14.1382 11.462-25.6 25.6-25.6h12.8c14.138 0 25.6 11.4618 25.6 25.6v12.8c0 14.138-11.462 25.6-25.6 25.6z" fill="#ffc125"/><path d="m224.536 72.425c.281-1.2704 1.307-2.2957 2.576-2.5773.268-.0595.533-.0877.791-.0877 2.404 0 4.233 2.4525 3.124 4.9907-.308.7059-.882 1.2807-1.589 1.5891-2.811 1.2282-5.516-1.1475-4.902-3.9148zm-23.896-1.5138c0-.3527.286-.64.64-.64h5.12c.353 0 .64.2873.64.64v9.4214c0 4.7571 3.961 8.6272 8.832 8.6272 4.667 0 8.5-3.5546 8.811-8.0378.024-.336.318-.5894.654-.5894h5.109c.361 0 .659.2976.644.6573-.351 7.9821-7.043 14.3699-15.218 14.3699-8.399 0-15.232-6.7418-15.232-15.0272z" fill="#030303"/></g></g></svg>