<svg fill="none" height="160" viewBox="0 0 432 160" width="432" xmlns="http://www.w3.org/2000/svg"><path d="m0 0h432v160h-432z" fill="#4323fc"/><path d="m151.428 69.7945c0-.9581.777-1.7349 1.735-1.7349h3.149c.958 0 1.735.7768 1.735 1.7349v13.8837c0 1.8571-.445 3.4642-1.333 4.8213-.881 1.3491-2.111 2.3927-3.691 3.1308-1.579.7301-3.412 1.0952-5.5 1.0952-2.103 0-3.944-.3651-5.523-1.0952-1.579-.7381-2.81-1.7817-3.69-3.1308-.873-1.3571-1.31-2.9642-1.31-4.8213v-13.8837c0-.9581.777-1.7349 1.735-1.7349h3.149c.958 0 1.735.7768 1.735 1.7349v13.3123c0 .7539.166 1.4285.5 2.0237.333.5873.793 1.0476 1.381 1.3809.595.3333 1.269.5 2.023.5.762 0 1.437-.1667 2.024-.5.588-.3333 1.048-.7936 1.381-1.3809.333-.5952.5-1.2698.5-2.0237z" fill="#2f2f37"/><path d="m151.428 69.7945c0-.9581.777-1.7349 1.735-1.7349h3.149c.958 0 1.735.7768 1.735 1.7349v13.8837c0 1.8571-.445 3.4642-1.333 4.8213-.881 1.3491-2.111 2.3927-3.691 3.1308-1.579.7301-3.412 1.0952-5.5 1.0952-2.103 0-3.944-.3651-5.523-1.0952-1.579-.7381-2.81-1.7817-3.69-3.1308-.873-1.3571-1.31-2.9642-1.31-4.8213v-13.8837c0-.9581.777-1.7349 1.735-1.7349h3.149c.958 0 1.735.7768 1.735 1.7349v13.3123c0 .7539.166 1.4285.5 2.0237.333.5873.793 1.0476 1.381 1.3809.595.3333 1.269.5 2.023.5.762 0 1.437-.1667 2.024-.5.588-.3333 1.048-.7936 1.381-1.3809.333-.5952.5-1.2698.5-2.0237z" fill="#fff"/><path d="m200.719 92.4397c-.958 0-1.735-.7767-1.735-1.7349v-20.9103c0-.9582.777-1.7349 1.735-1.7349h8.789c1.809 0 3.392.3571 4.749 1.0714 1.358.7142 2.413 1.7182 3.167 3.0118s1.131 2.8054 1.131 4.5355c0 1.746-.389 3.2579-1.167 4.5356-.77 1.2778-1.853 2.2618-3.25 2.9523-1.388.6905-3.011 1.0357-4.869 1.0357h-4.177c-1.164 0-2.108-.9438-2.108-2.108v-.9267c0-1.1642.944-2.108 2.108-2.108h2.844c.778 0 1.441-.1349 1.988-.4048.556-.2777.98-.6706 1.274-1.1785.302-.5079.452-1.1071.452-1.7976 0-.6983-.15-1.2936-.452-1.7856-.294-.5-.718-.8809-1.274-1.1428-.547-.2699-1.21-.4048-1.988-.4048h-.225c-1.164 0-2.108.9438-2.108 2.108v15.2517c0 .9582-.777 1.7349-1.735 1.7349z" fill="#2f2f37"/><path d="m200.719 92.4397c-.958 0-1.735-.7767-1.735-1.7349v-20.9103c0-.9582.777-1.7349 1.735-1.7349h8.789c1.809 0 3.392.3571 4.749 1.0714 1.358.7142 2.413 1.7182 3.167 3.0118s1.131 2.8054 1.131 4.5355c0 1.746-.389 3.2579-1.167 4.5356-.77 1.2778-1.853 2.2618-3.25 2.9523-1.388.6905-3.011 1.0357-4.869 1.0357h-4.177c-1.164 0-2.108-.9438-2.108-2.108v-.9267c0-1.1642.944-2.108 2.108-2.108h2.844c.778 0 1.441-.1349 1.988-.4048.556-.2777.98-.6706 1.274-1.1785.302-.5079.452-1.1071.452-1.7976 0-.6983-.15-1.2936-.452-1.7856-.294-.5-.718-.8809-1.274-1.1428-.547-.2699-1.21-.4048-1.988-.4048h-.225c-1.164 0-2.108.9438-2.108 2.108v15.2517c0 .9582-.777 1.7349-1.735 1.7349z" fill="#fff"/><path d="m225.868 68.0596c.958 0 1.735.7767 1.735 1.7349v20.9103c0 .9582-.777 1.7349-1.735 1.7349h-3.149c-.958 0-1.735-.7767-1.735-1.7349v-20.9103c0-.9582.777-1.7349 1.735-1.7349z" fill="#2f2f37"/><path d="m225.868 68.0596c.958 0 1.735.7767 1.735 1.7349v20.9103c0 .9582-.777 1.7349-1.735 1.7349h-3.149c-.958 0-1.735-.7767-1.735-1.7349v-20.9103c0-.9582.777-1.7349 1.735-1.7349z" fill="#fff"/><path d="m232.475 92.4397c-.958 0-1.735-.7767-1.735-1.7349v-20.9103c0-.9582.777-1.7349 1.735-1.7349h3.149c.958 0 1.735.7767 1.735 1.7349v16.8784c0 .2395.194.4337.434.4337h7.688c.958 0 1.735.7767 1.735 1.7349v1.8633c0 .9582-.777 1.7349-1.735 1.7349z" fill="#2f2f37"/><path d="m232.475 92.4397c-.958 0-1.735-.7767-1.735-1.7349v-20.9103c0-.9582.777-1.7349 1.735-1.7349h3.149c.958 0 1.735.7767 1.735 1.7349v16.8784c0 .2395.194.4337.434.4337h7.688c.958 0 1.735.7767 1.735 1.7349v1.8633c0 .9582-.777 1.7349-1.735 1.7349z" fill="#fff"/><path d="m272.561 80.249c0 2.7142-.528 5.0038-1.583 6.8688-1.056 1.8571-2.48 3.2658-4.274 4.226-1.793.9524-3.793 1.4286-6 1.4286-2.222 0-4.23-.4802-6.023-1.4405-1.786-.9682-3.207-2.3808-4.262-4.2379-1.048-1.865-1.571-4.1467-1.571-6.845 0-2.7142.523-4.9999 1.571-6.857 1.055-1.865 2.476-3.2737 4.262-4.226 1.793-.9603 3.801-1.4404 6.023-1.4404 2.207 0 4.207.4801 6 1.4404 1.794.9523 3.218 2.361 4.274 4.226 1.055 1.8571 1.583 4.1428 1.583 6.857zm-6.809 0c0-1.4603-.195-2.6904-.584-3.6904-.38-1.0079-.948-1.7698-1.702-2.2856-.746-.5238-1.666-.7857-2.762-.7857-1.095 0-2.019.2619-2.773.7857-.746.5158-1.314 1.2777-1.703 2.2856-.381 1-.571 2.2301-.571 3.6904 0 1.4602.19 2.6943.571 3.7022.389 1 .957 1.7619 1.703 2.2857.754.5158 1.678.7737 2.773.7737 1.096 0 2.016-.2579 2.762-.7737.754-.5238 1.322-1.2857 1.702-2.2857.389-1.0079.584-2.242.584-3.7022z" fill="#2f2f37"/><path d="m272.561 80.249c0 2.7142-.528 5.0038-1.583 6.8688-1.056 1.8571-2.48 3.2658-4.274 4.226-1.793.9524-3.793 1.4286-6 1.4286-2.222 0-4.23-.4802-6.023-1.4405-1.786-.9682-3.207-2.3808-4.262-4.2379-1.048-1.865-1.571-4.1467-1.571-6.845 0-2.7142.523-4.9999 1.571-6.857 1.055-1.865 2.476-3.2737 4.262-4.226 1.793-.9603 3.801-1.4404 6.023-1.4404 2.207 0 4.207.4801 6 1.4404 1.794.9523 3.218 2.361 4.274 4.226 1.055 1.8571 1.583 4.1428 1.583 6.857zm-6.809 0c0-1.4603-.195-2.6904-.584-3.6904-.38-1.0079-.948-1.7698-1.702-2.2856-.746-.5238-1.666-.7857-2.762-.7857-1.095 0-2.019.2619-2.773.7857-.746.5158-1.314 1.2777-1.703 2.2856-.381 1-.571 2.2301-.571 3.6904 0 1.4602.19 2.6943.571 3.7022.389 1 .957 1.7619 1.703 2.2857.754.5158 1.678.7737 2.773.7737 1.096 0 2.016-.2579 2.762-.7737.754-.5238 1.322-1.2857 1.702-2.2857.389-1.0079.584-2.242.584-3.7022z" fill="#fff"/><path d="m275.546 73.3927c-.958 0-1.735-.7767-1.735-1.7349v-1.8633c0-.9582.777-1.7349 1.735-1.7349h17.72c.958 0 1.735.7767 1.735 1.7349v1.8633c0 .9582-.777 1.7349-1.735 1.7349h-5.165c-.239 0-.433.1942-.433.4338v16.8783c0 .9582-.777 1.7349-1.735 1.7349h-3.054c-.958 0-1.735-.7767-1.735-1.7349v-16.8783c0-.2396-.194-.4338-.434-.4338z" fill="#2f2f37"/><path d="m275.546 73.3927c-.958 0-1.735-.7767-1.735-1.7349v-1.8633c0-.9582.777-1.7349 1.735-1.7349h17.72c.958 0 1.735.7767 1.735 1.7349v1.8633c0 .9582-.777 1.7349-1.735 1.7349h-5.165c-.239 0-.433.1942-.433.4338v16.8783c0 .9582-.777 1.7349-1.735 1.7349h-3.054c-.958 0-1.735-.7767-1.735-1.7349v-16.8783c0-.2396-.194-.4338-.434-.4338z" fill="#fff"/><path d="m181.221 67.5024c2.297-1.687 5.311.8485 4.042 3.4001l-4.531 7.1108c-.453.911-.36 1.9987.243 2.8187l5.682 6.2297c1.687 2.2967-.848 5.3108-3.4 4.042l-7.11-4.5318c-.911-.4531-1.999-.3592-2.819.2431l-6.23 5.6825c-2.296 1.687-5.31-.8485-4.042-3.4001l4.532-7.1107c.453-.911.359-1.9988-.243-2.8188l-5.682-6.2297c-1.687-2.2966.848-5.3108 3.4-4.042l7.11 4.5319c.911.453 1.999.3592 2.819-.2432z" fill="#77e7ff"/><path d="m183.344 68.9664c2.561-1.2494 5.073 1.7841 3.369 4.0678l-5.73 6.1861c-.609.8154-.711 1.9024-.265 2.8168l4.478 7.1452c1.249 2.5612-1.785 5.0736-4.068 3.3691l-6.186-5.7299c-.816-.6086-1.903-.7107-2.817-.2647l-7.146 4.4775c-2.561 1.2493-5.073-1.7841-3.369-4.0678l5.731-6.1862c.608-.8153.71-1.9024.264-2.8168l-4.478-7.1451c-1.249-2.5612 1.785-5.0737 4.069-3.3691l6.186 5.7299c.815.6085 1.902.7106 2.816.2646z" fill="#b377ff"/><path d="m182.269 68.1554c2.433-1.4834 5.218 1.3017 3.735 3.7349l-4.775 6.695c-.529.8687-.529 1.9605 0 2.8291l4.775 6.6951c1.483 2.4331-1.302 5.2182-3.735 3.7348l-6.695-4.7748c-.868-.5296-1.96-.5296-2.829 0l-6.695 4.7748c-2.433 1.4834-5.218-1.3017-3.734-3.7348l4.774-6.695c.53-.8687.53-1.9605 0-2.8292l-4.774-6.695c-1.484-2.4332 1.301-5.2183 3.734-3.7349l6.695 4.7748c.869.5297 1.961.5297 2.829 0z" fill="#fff"/></svg>