<svg fill="none" height="160" viewBox="0 0 432 160" width="432" xmlns="http://www.w3.org/2000/svg" xmlns:xlink="http://www.w3.org/1999/xlink"><radialGradient id="a" cx="226.337" cy="104.304" gradientUnits="userSpaceOnUse" r="37.6879"><stop offset="0" stop-color="#3a78dd"/><stop offset="1" stop-color="#45b2ee"/></radialGradient><radialGradient id="b" cx="198.78" cy="58.8584" gradientUnits="userSpaceOnUse" r="66.1196"><stop offset="0" stop-color="#6454d6"/><stop offset="1" stop-color="#3a78dd"/></radialGradient><path d="m0 0h432v160h-432z" fill="#fff"/><path d="m246.68 74.3246c-.277-2.9288-3.178-3.9097-5.858-2.7976-3.73 1.5474-9.311 6.3965-10.948 8.2132-8.29 9.2631-9.809 18.4779-10.548 26.2008-.739 7.722 11.28 8.22 12.482.587 4.559-28.9084 15.411-26.5805 14.872-32.2034z" fill="url(#a)"/><path d="m231.46 104.932c-.293-12.2567-3.434-24.2773-9.173-35.1112-3.436-6.7231-8.126-12.7275-13.815-17.6904-8.29-7.5155-22.616-4.7732-23.203 8.2131-.352 7.8333 6.507 11.0038 10.209 13.3455 4.608 2.8319 8.776 6.3226 12.372 10.3614 5.71 6.3921 9.586 14.2084 11.218 22.6226 1.388 7.895 13.746 6.624 12.392-1.741z" fill="url(#b)"/></svg>