<svg fill="none" height="160" viewBox="0 0 432 160" width="432" xmlns="http://www.w3.org/2000/svg" xmlns:xlink="http://www.w3.org/1999/xlink"><clipPath id="a"><path d="m0 0h432v160h-432z"/></clipPath><clipPath id="b"><path d="m180 53h72v53.5814h-72z"/></clipPath><g clip-path="url(#a)"><path d="m0 0h432v160h-432z" fill="#fff"/><g clip-path="url(#b)"><path d="m215.72 53c-19.724 0-35.72 11.9939-35.72 26.7907 0 14.7952 15.991 26.7903 35.72 26.7903 19.727 0 35.722-11.9935 35.722-26.7903 0-14.7952-15.992-26.7907-35.722-26.7907zm0 50.4c-17.961 0-32.522-10.5656-32.522-23.6009 0-13.0337 14.563-23.5993 32.524-23.5993 17.963 0 32.526 10.5656 32.526 23.5993 0 13.0336-14.566 23.6009-32.528 23.6009z" fill="#083547"/><path d="m215.882 72.5249 2.91-10.8536c1.151.1942 2.264.4906 3.333.8875l-2.909 10.8586c-1.024-.5586-2.168-.8646-3.334-.8925zm-.32.0033-2.911-10.8602c-1.122.1892-2.239.4922-3.332.8991l2.91 10.8536c1.022-.5613 2.164-.8674 3.33-.8925m-3.61 1.0516-7.95-7.9502c-.877.7267-1.691 1.5422-2.435 2.4413l7.945 7.9452c.607-.9959 1.443-1.8315 2.44-2.4363zm-2.6 2.7209-10.861-2.9101c-.401 1.0803-.698 2.1967-.885 3.3337l10.853 2.9085c.025-1.1664.331-2.3096.893-3.3321zm-.893 3.6519-10.858 2.9102c.187 1.1218.49 2.237.897 3.3287l10.854-2.9085c-.561-1.0223-.867-2.1647-.893-3.3304zm1.055 3.6101-7.948 7.9484c.726.8774 1.542 1.6912 2.441 2.4363l7.945-7.9451c-.995-.6075-1.831-1.4446-2.436-2.4413m2.717 2.597-2.908 10.8603c1.067.3985 2.182.6949 3.332.8874l2.91-10.8552c-1.167-.0226-2.311-.3289-3.334-.8925zm3.654.8958 2.908 10.8603c1.122-.1892 2.237-.4923 3.331-.8992l-2.91-10.8535c-1.022.5609-2.164.867-3.329.8924zm3.608-1.0549 7.952 7.9502c.886-.7347 1.701-1.551 2.435-2.438l-7.945-7.9451c-.606.9961-1.444 1.8296-2.442 2.4329zm2.601-2.7159 10.86 2.9102c.399-1.0666.695-2.1835.887-3.3338l-10.855-2.9085c-.025 1.1664-.331 2.3095-.892 3.3321zm.892-3.6519 10.86-2.9101c-.193-1.136-.493-2.2511-.897-3.3304l-10.855 2.9101c.569 1.0348.867 2.1784.892 3.3304zm-1.055-3.61 7.952-7.9502c-.736-.8866-1.553-1.7023-2.441-2.4362l-7.945 7.9451c1.008.6128 1.838 1.4567 2.434 2.4413z" fill="#ff3c00"/></g></g></svg>