<svg fill="none" height="160" viewBox="0 0 432 160" width="432" xmlns="http://www.w3.org/2000/svg"><path d="m0 0h432v160h-432z" fill="#1a1e29"/><path d="m250.436 71.2272c.886-.8885 1.432-2.0592 1.543-3.3085s-.219-2.4982-.933-3.5294c-.175-.2681-.379-.5155-.61-.7377-.75-.7491-1.705-1.259-2.745-1.4652s-2.118-.0995-3.097.3066c-.98.4061-1.817 1.0935-2.406 1.9751-.589.8817-.903 1.9182-.903 2.9784s.314 2.0967.903 2.9784c.589.8816 1.426 1.569 2.406 1.9751.979.4061 2.057.5128 3.097.3066s1.995-.7161 2.745-1.4652z" fill="#00c65e"/><g fill="#fff"><path d="m209.17 66.9156c1.149-1.4144 2.583-2.5711 4.208-3.3948s3.406-1.296 5.226-1.386c9.647 0 17.364 18.0594 30.174 17.6055-.59 1.9238-1.779 3.6085-3.395 4.8081s-3.572 1.8512-5.585 1.8596c-11.562 0-23.18-21.4359-30.628-19.4924z"/><path d="m180.838 74.1652s.582-12.172 12.044-12.172c10.47 0 18.442 10.7959 26.784 18.1588 6.058 5.3483 11.534 10.8669 19.861 10.8669-.777 2.1092-2.18 3.9308-4.02 5.2212-1.841 1.2904-4.032 1.9881-6.279 1.9997-6.569 0-11.889-5.8732-18.982-12.0869-12.228-10.7393-17.875-19.0668-29.408-11.9877z"/><path d="m180 83.2727c.816-1.8388 2.149-3.4009 3.836-4.4964 1.688-1.0956 3.657-1.6774 5.669-1.6747 8.072 0 17.378 17.6339 23.975 15.4633-.74 1.6518-1.932 3.0609-3.438 4.0649s-3.265 1.562-5.074 1.6097c-10.952 0-13.434-16.584-24.968-14.9668z"/></g></svg>