<svg fill="none" height="160" viewBox="0 0 432 160" width="432" xmlns="http://www.w3.org/2000/svg" xmlns:xlink="http://www.w3.org/1999/xlink"><linearGradient id="a" gradientUnits="userSpaceOnUse" x1="190.318" x2="248.986" y1="84.6722" y2="84.6722"><stop offset="0" stop-color="#ffb3ff"/><stop offset=".5335" stop-color="#ff76df"/><stop offset="1" stop-color="#c239c6"/></linearGradient><path d="m0 0h432v160h-432z" fill="#000"/><path d="m204.523 59.4111h36.513l.52-2.3196c.759-3.5994-1.96-6.9987-5.639-6.9987h-35.473c-4.599 0-8.558 3.1994-9.558 7.6786l-7.758 35.8335c-.76 3.5995 1.96 6.9991 5.639 6.9991h2.159l7.919-36.6337c.599-2.6395 2.959-4.5592 5.678-4.5592z" fill="#00cdfa"/><path d="m243.195 59.4111h-2.159l-7.919 36.6335c-.56 2.6395-2.919 4.5594-5.638 4.5594h-36.513l-.52 2.319c-.76 3.6 1.96 6.999 5.639 6.999h35.473c4.598 0 8.558-3.199 9.558-7.679l7.758-35.7931c.76-3.6394-2-7.0388-5.679-7.0388z" fill="url(#a)"/><path d="m233.116 96.0446 7.918-36.6335h-36.512c-2.719 0-5.079 1.8797-5.639 4.5592l-7.918 36.6337h36.512c2.72 0 5.039-1.9199 5.639-4.5594z" fill="#3a00ff"/><g fill="#fff"><path d="m202.845 86.6266-2.642-13.737h4.144l1.276 8.5725 4.188-8.5725h2.793l1.636 8.5725 3.843-8.5725h4.144l-6.711 13.737h-3.468l-1.651-8.047-4.039 8.047z"/><path d="m220.771 84.4028 2.162-2.5074c.976 1.2012 2.207 1.8168 3.724 1.8168.975 0 1.831-.4055 1.966-1.0811.045-.4052-.225-.7507-.856-1.0508-.15-.075-.48-.1954-1.005-.3755-1.036-.4052-1.486-.5555-2.387-1.1258-1.261-.7807-1.862-1.8617-1.652-3.7233.406-2.5372 2.733-3.9485 5.675-3.9485 2.012 0 3.663.6606 4.999 1.9667l-2.132 2.4922c-.885-.8257-1.906-1.2311-3.062-1.2311-.931 0-1.486.2703-1.606.8558-.106.4804.15.8858.75 1.1559.195.1053.601.2704 1.201.4955.601.2251 1.111.4205 1.531.6606 1.352.5706 2.943 1.9068 2.463 3.9483-.226 1.3363-.901 2.3873-2.042 3.138-1.126.7506-2.492 1.1258-4.024 1.1258-2.462-.015-4.368-.8707-5.705-2.6121z"/></g></svg>